<svg xmlns="http://www.w3.org/2000/svg" xmlns:xlink="http://www.w3.org/1999/xlink" width="1024" zoomAndPan="magnify" viewBox="0 0 768 383.999986" height="512" preserveAspectRatio="xMidYMid meet" version="1.0"><defs><g/><clipPath id="08527b0e74"><path d="M 402 236 L 666 236 L 666 346 L 402 346 Z M 402 236 " clip-rule="nonzero"/></clipPath><clipPath id="e97172ba57"><path d="M 711.3125 90.445312 L 619.34375 383.871094 L 332.359375 293.921875 L 424.328125 0.496094 Z M 711.3125 90.445312 " clip-rule="nonzero"/></clipPath><clipPath id="53df2310dc"><path d="M 711.3125 90.445312 L 619.34375 383.871094 L 332.359375 293.921875 L 424.328125 0.496094 Z M 711.3125 90.445312 " clip-rule="nonzero"/></clipPath><clipPath id="109204a437"><path d="M 378 38 L 637 38 L 637 148 L 378 148 Z M 378 38 " clip-rule="nonzero"/></clipPath><clipPath id="5011ca80b8"><path d="M 711.3125 90.445312 L 619.34375 383.871094 L 332.359375 293.921875 L 424.328125 0.496094 Z M 711.3125 90.445312 " clip-rule="nonzero"/></clipPath><clipPath id="3ee6890018"><path d="M 711.3125 90.445312 L 619.34375 383.871094 L 332.359375 293.921875 L 424.328125 0.496094 Z M 711.3125 90.445312 " clip-rule="nonzero"/></clipPath></defs><rect x="-76.8" width="921.6" fill="#ffffff" y="-38.399999" height="460.799983" fill-opacity="1"/><rect x="-76.8" width="921.6" fill="#1e1e1e" y="-38.399999" height="460.799983" fill-opacity="1"/><g fill="#ffffff" fill-opacity="1"><g transform="translate(173.773184, 267.97945)"><g><path d="M 12.15625 -98.96875 C 10.882812 -98.96875 9.804688 -99.410156 8.921875 -100.296875 C 8.035156 -101.179688 7.59375 -102.257812 7.59375 -103.53125 C 7.59375 -104.664062 8.035156 -105.675781 8.921875 -106.5625 C 9.804688 -107.445312 10.882812 -107.890625 12.15625 -107.890625 C 13.425781 -107.890625 14.503906 -107.445312 15.390625 -106.5625 C 16.273438 -105.675781 16.71875 -104.664062 16.71875 -103.53125 C 16.71875 -102.257812 16.273438 -101.179688 15.390625 -100.296875 C 14.503906 -99.410156 13.425781 -98.96875 12.15625 -98.96875 Z M 15.390625 -0.765625 L 20.890625 -0.765625 L 20.890625 0 L 3.796875 0 L 3.796875 -0.765625 L 9.3125 -0.765625 L 9.3125 -94.21875 L 3.796875 -94.21875 L 3.796875 -94.96875 L 15.390625 -94.96875 Z M 15.390625 -0.765625 "/></g></g></g><g fill="#ffffff" fill-opacity="1"><g transform="translate(212.524547, 267.97945)"><g><path d="M 15.765625 -0.765625 L 21.28125 -0.765625 L 21.28125 0 L 3.796875 0 L 3.796875 -0.765625 L 9.3125 -0.765625 L 9.3125 -132.203125 L 3.796875 -132.203125 L 3.796875 -132.96875 L 15.765625 -132.96875 Z M 15.765625 -0.765625 "/></g></g></g><g clip-path="url(#08527b0e74)"><g clip-path="url(#e97172ba57)"><g clip-path="url(#53df2310dc)"><path fill="#ffbd59" d="M 665.273438 236.953125 L 664.148438 240.644531 L 663.742188 241.863281 L 662.921875 244.304688 L 662.042969 246.722656 L 661.605469 247.933594 L 661.132812 249.132812 L 660.191406 251.53125 L 659.191406 253.90625 L 658.6875 255.09375 L 658.15625 256.265625 C 657.804688 257.050781 657.449219 257.832031 657.089844 258.613281 L 655.964844 260.933594 C 655.777344 261.320312 655.59375 261.710938 655.398438 262.09375 L 654.804688 263.242188 L 654.214844 264.390625 C 654.011719 264.773438 653.828125 265.160156 653.613281 265.535156 C 652.785156 267.039062 651.976562 268.5625 651.09375 270.042969 L 650.445312 271.160156 L 650.125 271.71875 L 649.789062 272.269531 L 648.4375 274.46875 C 641.035156 286.234375 632.179688 296.777344 621.863281 306.089844 C 620.5625 307.234375 619.277344 308.390625 617.941406 309.492188 C 616.628906 310.621094 615.265625 311.6875 613.914062 312.773438 C 613.234375 313.308594 612.539062 313.824219 611.851562 314.351562 L 610.820312 315.140625 L 609.769531 315.902344 C 609.070312 316.402344 608.367188 316.921875 607.660156 317.425781 L 605.523438 318.898438 C 602.648438 320.835938 599.71875 322.707031 596.71875 324.441406 L 595.597656 325.097656 C 595.21875 325.3125 594.839844 325.519531 594.460938 325.730469 L 592.179688 326.992188 C 590.644531 327.792969 589.117188 328.621094 587.546875 329.371094 C 575 335.578125 561.84375 339.964844 548.078125 342.527344 C 534.382812 345.066406 520.320312 345.882812 506.367188 344.695312 L 503.757812 344.433594 L 502.453125 344.300781 L 501.148438 344.136719 L 498.546875 343.796875 L 495.953125 343.390625 C 495.519531 343.320312 495.085938 343.265625 494.65625 343.179688 L 493.367188 342.945312 C 492.503906 342.785156 491.640625 342.632812 490.78125 342.457031 L 488.21875 341.90625 C 487.792969 341.8125 487.359375 341.730469 486.933594 341.625 L 485.660156 341.3125 C 484.8125 341.101562 483.960938 340.902344 483.113281 340.679688 L 480.582031 339.984375 C 480.160156 339.863281 479.734375 339.757812 479.316406 339.628906 L 478.0625 339.246094 C 477.222656 338.992188 476.382812 338.742188 475.554688 338.472656 C 472.222656 337.398438 468.9375 336.183594 465.695312 334.871094 C 462.453125 333.554688 459.261719 332.117188 456.132812 330.566406 C 453 329.011719 449.925781 327.34375 446.921875 325.566406 C 443.914062 323.789062 440.972656 321.917969 438.109375 319.925781 L 435.980469 318.402344 C 435.625 318.15625 435.277344 317.894531 434.925781 317.632812 L 433.875 316.851562 L 433.351562 316.460938 L 432.835938 316.0625 L 431.804688 315.261719 C 431.113281 314.730469 430.4375 314.183594 429.761719 313.632812 C 424.363281 309.257812 419.328125 304.496094 414.652344 299.351562 C 412.328125 296.785156 410.109375 294.140625 407.992188 291.414062 C 405.878906 288.6875 403.871094 285.882812 402.003906 282.996094 L 402.550781 282.582031 C 404.824219 285.140625 407.140625 287.644531 409.527344 290.074219 C 411.914062 292.5 414.363281 294.855469 416.871094 297.128906 C 421.882812 301.667969 427.160156 305.882812 432.695312 309.761719 C 433.386719 310.246094 434.074219 310.734375 434.773438 311.199219 L 436.34375 312.253906 L 436.875 312.597656 C 437.582031 313.046875 438.277344 313.515625 438.992188 313.964844 L 441.128906 315.296875 C 444 317.039062 446.914062 318.707031 449.882812 320.261719 C 452.851562 321.820312 455.859375 323.296875 458.914062 324.664062 L 461.210938 325.671875 C 461.980469 326 462.753906 326.316406 463.527344 326.636719 L 464.105469 326.878906 L 464.6875 327.109375 L 465.855469 327.574219 C 466.242188 327.722656 466.628906 327.882812 467.023438 328.027344 L 468.199219 328.464844 L 469.371094 328.910156 C 469.757812 329.054688 470.160156 329.1875 470.550781 329.332031 L 471.734375 329.75 L 472.324219 329.957031 L 472.917969 330.15625 L 475.296875 330.949219 L 477.6875 331.699219 C 480.890625 332.652344 484.101562 333.582031 487.351562 334.347656 L 488.566406 334.648438 C 488.964844 334.75 489.378906 334.832031 489.789062 334.925781 L 492.230469 335.472656 C 492.636719 335.5625 493.042969 335.632812 493.460938 335.710938 L 495.921875 336.195312 C 496.328125 336.273438 496.738281 336.339844 497.148438 336.414062 L 499.613281 336.851562 L 502.09375 337.253906 L 503.332031 337.441406 L 504.574219 337.605469 L 507.066406 337.925781 C 513.726562 338.714844 520.40625 339.046875 527.109375 338.929688 C 528.785156 338.917969 530.457031 338.816406 532.132812 338.75 C 532.96875 338.703125 533.804688 338.640625 534.640625 338.585938 L 535.898438 338.5 L 537.148438 338.382812 C 540.496094 338.101562 543.820312 337.636719 547.136719 337.113281 C 573.652344 332.769531 598.984375 321.027344 619.605469 303.503906 C 624.773438 299.113281 629.617188 294.390625 634.140625 289.335938 L 634.988281 288.390625 C 635.277344 288.078125 635.542969 287.75 635.820312 287.429688 L 637.472656 285.5 L 639.078125 283.527344 L 639.878906 282.539062 L 640.65625 281.53125 C 641.171875 280.859375 641.699219 280.191406 642.207031 279.515625 L 643.714844 277.464844 C 644.226562 276.785156 644.703125 276.082031 645.191406 275.390625 L 645.921875 274.34375 L 646.285156 273.824219 C 646.40625 273.648438 646.519531 273.464844 646.636719 273.292969 L 648.046875 271.171875 L 648.386719 270.628906 L 648.722656 270.097656 L 649.402344 269.011719 C 650.320312 267.582031 651.167969 266.109375 652.035156 264.652344 C 652.257812 264.292969 652.457031 263.921875 652.671875 263.546875 L 653.285156 262.429688 L 653.910156 261.316406 C 654.117188 260.949219 654.308594 260.566406 654.507812 260.191406 L 655.703125 257.933594 C 656.085938 257.175781 656.460938 256.410156 656.839844 255.648438 L 657.410156 254.503906 L 657.949219 253.347656 L 659.03125 251.03125 L 660.050781 248.691406 L 660.554688 247.511719 L 661.996094 243.960938 L 662.890625 241.5625 L 663.34375 240.367188 L 663.765625 239.160156 L 664.609375 236.742188 Z M 665.273438 236.953125 " fill-opacity="1" fill-rule="nonzero"/></g></g></g><g clip-path="url(#109204a437)"><g clip-path="url(#5011ca80b8)"><g clip-path="url(#3ee6890018)"><path fill="#ffbd59" d="M 378.226562 146.984375 L 378.957031 144.589844 L 379.324219 143.390625 C 379.445312 142.996094 379.585938 142.597656 379.714844 142.199219 L 380.511719 139.820312 C 380.785156 139.03125 381.078125 138.25 381.363281 137.460938 C 381.914062 135.882812 382.550781 134.335938 383.15625 132.777344 C 383.300781 132.390625 383.472656 132 383.632812 131.617188 L 384.121094 130.457031 C 384.449219 129.6875 384.761719 128.910156 385.117188 128.152344 L 386.152344 125.863281 C 386.320312 125.484375 386.507812 125.109375 386.6875 124.734375 L 387.234375 123.609375 C 387.945312 122.09375 388.730469 120.613281 389.503906 119.121094 C 391.085938 116.164062 392.71875 113.234375 394.496094 110.386719 C 395.359375 108.945312 396.292969 107.550781 397.207031 106.140625 C 397.429688 105.785156 397.675781 105.445312 397.910156 105.097656 L 399.339844 103.019531 C 399.574219 102.671875 399.828125 102.335938 400.070312 101.996094 L 401.550781 99.953125 C 402.050781 99.28125 402.566406 98.617188 403.074219 97.945312 L 403.839844 96.945312 C 404.097656 96.613281 404.363281 96.289062 404.625 95.957031 L 406.207031 93.992188 C 410.496094 88.785156 415.109375 83.886719 420.050781 79.296875 C 439.78125 60.910156 464.636719 47.9375 491.1875 42.238281 L 492.425781 41.960938 L 493.675781 41.71875 L 496.175781 41.230469 L 498.683594 40.796875 C 499.101562 40.726562 499.519531 40.648438 499.941406 40.585938 L 501.199219 40.40625 C 504.554688 39.875 507.933594 39.503906 511.320312 39.199219 L 513.863281 39.003906 L 514.5 38.953125 L 515.136719 38.917969 L 516.410156 38.851562 L 517.6875 38.785156 L 518.324219 38.730469 L 518.960938 38.714844 L 521.519531 38.644531 C 524.921875 38.597656 528.332031 38.617188 531.734375 38.804688 C 538.558594 39.144531 545.320312 39.984375 552.019531 41.328125 C 555.363281 42.015625 558.6875 42.785156 561.964844 43.726562 L 563.195312 44.070312 L 563.8125 44.246094 C 564.015625 44.308594 564.21875 44.371094 564.421875 44.4375 L 566.867188 45.1875 C 567.683594 45.429688 568.484375 45.722656 569.289062 46 L 571.699219 46.84375 C 584.585938 51.480469 596.550781 57.835938 607.605469 65.917969 C 613.066406 69.921875 618.207031 74.308594 623.019531 79.074219 L 624.785156 80.878906 L 625.667969 81.785156 C 625.960938 82.085938 626.261719 82.382812 626.535156 82.699219 L 628.226562 84.570312 C 628.789062 85.195312 629.359375 85.8125 629.90625 86.449219 C 630.988281 87.738281 632.058594 89.03125 633.125 90.324219 C 634.148438 91.652344 635.171875 92.980469 636.171875 94.324219 L 635.648438 94.769531 C 634.449219 93.609375 633.265625 92.4375 632.085938 91.269531 L 628.449219 87.871094 L 624.726562 84.582031 C 624.417969 84.304688 624.09375 84.046875 623.777344 83.785156 L 622.832031 82.988281 L 620.925781 81.40625 C 615.808594 77.257812 610.457031 73.433594 604.878906 69.929688 C 593.757812 62.949219 581.957031 57.417969 569.472656 53.339844 L 567.144531 52.597656 C 566.371094 52.355469 565.597656 52.09375 564.8125 51.882812 L 562.464844 51.203125 C 562.273438 51.144531 562.074219 51.082031 561.878906 51.035156 L 561.289062 50.878906 L 558.929688 50.261719 L 558.339844 50.101562 L 557.746094 49.960938 L 555.371094 49.390625 C 554.972656 49.292969 554.582031 49.195312 554.183594 49.117188 L 552.992188 48.855469 L 551.800781 48.597656 C 551.402344 48.507812 551.007812 48.417969 550.605469 48.347656 C 544.230469 47.066406 537.78125 46.105469 531.289062 45.59375 C 528.046875 45.296875 524.789062 45.171875 521.527344 45.097656 L 519.085938 45.074219 L 518.476562 45.070312 L 517.863281 45.078125 L 515.417969 45.117188 L 514.804688 45.128906 L 514.191406 45.152344 L 511.75 45.25 C 508.488281 45.4375 505.230469 45.675781 501.980469 46.085938 L 500.765625 46.230469 C 500.359375 46.277344 499.957031 46.34375 499.550781 46.402344 L 497.125 46.753906 L 494.707031 47.164062 L 493.496094 47.371094 L 492.292969 47.605469 L 489.886719 48.085938 L 487.492188 48.617188 C 487.09375 48.710938 486.691406 48.789062 486.292969 48.890625 L 485.101562 49.183594 L 483.910156 49.480469 C 483.515625 49.582031 483.117188 49.671875 482.722656 49.785156 C 481.144531 50.21875 479.558594 50.632812 477.996094 51.121094 L 476.820312 51.472656 L 476.230469 51.648438 L 475.648438 51.839844 L 473.3125 52.601562 C 472.921875 52.722656 472.535156 52.863281 472.148438 53 L 470.988281 53.40625 C 470.21875 53.679688 469.441406 53.945312 468.679688 54.242188 L 466.378906 55.113281 C 465.617188 55.414062 464.859375 55.726562 464.097656 56.035156 L 462.960938 56.496094 L 461.832031 56.988281 L 459.574219 57.96875 L 457.34375 58.996094 C 456.972656 59.167969 456.59375 59.339844 456.230469 59.519531 L 455.125 60.0625 C 452.167969 61.488281 449.277344 63.050781 446.421875 64.671875 L 444.292969 65.910156 C 443.941406 66.117188 443.582031 66.332031 443.238281 66.550781 L 441.136719 67.839844 C 440.785156 68.050781 440.445312 68.285156 440.101562 68.503906 L 438.03125 69.84375 C 429.75 75.324219 422.101562 81.574219 415.078125 88.589844 C 408.050781 95.605469 401.796875 103.25 396.308594 111.523438 C 394.457031 114.265625 392.746094 117.101562 391.082031 119.964844 C 390.277344 121.414062 389.449219 122.847656 388.691406 124.324219 L 388.113281 125.425781 C 387.917969 125.796875 387.722656 126.152344 387.542969 126.527344 L 386.4375 128.753906 C 386.058594 129.5 385.71875 130.257812 385.367188 131 L 384.839844 132.132812 C 384.667969 132.511719 384.480469 132.886719 384.320312 133.265625 C 383.664062 134.789062 382.972656 136.300781 382.367188 137.847656 C 382.058594 138.613281 381.742188 139.378906 381.433594 140.15625 L 380.558594 142.488281 C 380.414062 142.875 380.265625 143.261719 380.121094 143.65625 L 379.710938 144.832031 L 378.886719 147.1875 Z M 378.226562 146.984375 " fill-opacity="1" fill-rule="nonzero"/></g></g></g><g fill="#ffffff" fill-opacity="1"><g transform="translate(254.595112, 284.556887)"><g><path d="M 100.515625 -181.453125 L 124.234375 -181.453125 L 124.234375 -180.421875 L 113.15625 -180.421875 L 113.15625 0 L 111.609375 0 L 18.046875 -175.015625 L 18.046875 -1.03125 L 28.875 -1.03125 L 28.875 0 L 5.15625 0 L 5.15625 -1.03125 L 16.5 -1.03125 L 16.5 -179.390625 L 5.15625 -179.390625 L 5.15625 -180.421875 L 25.265625 -180.421875 L 111.609375 -19.078125 L 111.609375 -180.421875 L 100.515625 -180.421875 Z M 100.515625 -181.453125 "/></g></g></g><g fill="#ffffff" fill-opacity="1"><g transform="translate(383.12514, 226.119533)"><g><path d="M 40.796875 -45.078125 C 41.304688 -42.734375 41.664062 -40.367188 41.875 -37.984375 C 42.082031 -35.597656 42.1875 -33.191406 42.1875 -30.765625 C 42.1875 -28.503906 42.082031 -26.242188 41.875 -23.984375 C 41.664062 -21.722656 41.304688 -19.460938 40.796875 -17.203125 C 39.878906 -12.347656 37.867188 -8.179688 34.765625 -4.703125 C 31.671875 -1.234375 27.570312 0.5 22.46875 0.5 C 17.363281 0.5 13.21875 -1.234375 10.03125 -4.703125 C 6.851562 -8.179688 4.765625 -12.347656 3.765625 -17.203125 C 3.347656 -19.460938 3.035156 -21.722656 2.828125 -23.984375 C 2.617188 -26.242188 2.515625 -28.503906 2.515625 -30.765625 C 2.515625 -33.191406 2.617188 -35.597656 2.828125 -37.984375 C 3.035156 -40.367188 3.347656 -42.734375 3.765625 -45.078125 C 4.429688 -48.335938 5.582031 -51.347656 7.21875 -54.109375 C 8.851562 -56.867188 10.945312 -59.085938 13.5 -60.765625 C 16.050781 -62.441406 19.039062 -63.28125 22.46875 -63.28125 C 25.90625 -63.28125 28.878906 -62.441406 31.390625 -60.765625 C 33.898438 -59.085938 35.945312 -56.867188 37.53125 -54.109375 C 39.125 -51.347656 40.210938 -48.335938 40.796875 -45.078125 Z M 36.53125 -13.4375 C 36.945312 -16.363281 37.257812 -19.269531 37.46875 -22.15625 C 37.6875 -25.039062 37.796875 -27.910156 37.796875 -30.765625 C 37.796875 -33.859375 37.6875 -36.890625 37.46875 -39.859375 C 37.257812 -42.828125 36.945312 -45.820312 36.53125 -48.84375 C 35.945312 -52.9375 34.359375 -56.28125 31.765625 -58.875 C 29.171875 -61.476562 26.070312 -62.78125 22.46875 -62.78125 C 18.875 -62.78125 15.78125 -61.476562 13.1875 -58.875 C 10.59375 -56.28125 8.957031 -52.9375 8.28125 -48.84375 C 7.863281 -45.820312 7.550781 -42.828125 7.34375 -39.859375 C 7.132812 -36.890625 7.03125 -33.859375 7.03125 -30.765625 C 7.03125 -27.910156 7.132812 -25.039062 7.34375 -22.15625 C 7.550781 -19.269531 7.863281 -16.363281 8.28125 -13.4375 C 8.957031 -9.332031 10.59375 -6.066406 13.1875 -3.640625 C 15.78125 -1.210938 18.875 0 22.46875 0 C 26.070312 0 29.148438 -1.210938 31.703125 -3.640625 C 34.253906 -6.066406 35.863281 -9.332031 36.53125 -13.4375 Z M 36.53125 -13.4375 "/></g></g></g><g fill="#ffffff" fill-opacity="1"><g transform="translate(431.836201, 226.119533)"><g><path d="M 23.859375 -62.78125 C 29.628906 -62.78125 34.0625 -61.144531 37.15625 -57.875 C 40.257812 -54.613281 41.644531 -50.640625 41.3125 -45.953125 C 41.21875 -44.109375 40.796875 -42.722656 40.046875 -41.796875 C 39.296875 -40.878906 38.414062 -40.585938 37.40625 -40.921875 C 36.570312 -41.179688 36.132812 -41.789062 36.09375 -42.75 C 36.050781 -43.707031 36.238281 -44.773438 36.65625 -45.953125 C 37.5 -48.296875 37.625 -50.722656 37.03125 -53.234375 C 36.445312 -55.742188 35.085938 -57.875 32.953125 -59.625 C 30.816406 -61.382812 27.785156 -62.265625 23.859375 -62.265625 C 21.179688 -62.265625 18.835938 -61.46875 16.828125 -59.875 C 14.816406 -58.289062 13.242188 -56.242188 12.109375 -53.734375 C 10.984375 -51.222656 10.421875 -48.628906 10.421875 -45.953125 L 10.421875 -0.5 L 14.0625 -0.5 L 14.0625 0 L 2.515625 0 L 2.515625 -0.5 L 6.15625 -0.5 L 6.15625 -62.265625 L 2.515625 -62.265625 L 2.515625 -62.78125 L 10.421875 -62.78125 L 10.421875 -54.859375 C 12.097656 -57.203125 14.085938 -59.109375 16.390625 -60.578125 C 18.691406 -62.046875 21.179688 -62.78125 23.859375 -62.78125 Z M 23.859375 -62.78125 "/></g></g></g><g fill="#ffffff" fill-opacity="1"><g transform="translate(479.668458, 226.119533)"><g><path d="M 42.6875 -17.578125 L 43.1875 -17.578125 C 43.1875 -12.722656 41.804688 -8.578125 39.046875 -5.140625 C 36.285156 -1.710938 32.476562 0 27.625 0 C 22.6875 0 18.875 -1.710938 16.1875 -5.140625 C 13.507812 -8.578125 12.210938 -12.722656 12.296875 -17.578125 C 12.378906 -25.023438 12.421875 -32.472656 12.421875 -39.921875 C 12.421875 -47.367188 12.421875 -54.816406 12.421875 -62.265625 L 2.515625 -62.265625 L 2.515625 -62.78125 L 12.296875 -62.78125 L 12.296875 -87.890625 L 16.578125 -87.890625 L 16.578125 -62.78125 L 42.6875 -62.78125 L 42.6875 -62.265625 L 16.578125 -62.265625 L 16.578125 -13.8125 C 16.578125 -9.789062 17.390625 -6.566406 19.015625 -4.140625 C 20.648438 -1.710938 23.519531 -0.5 27.625 -0.5 C 31.632812 -0.5 35.144531 -2.003906 38.15625 -5.015625 C 41.175781 -8.035156 42.6875 -12.222656 42.6875 -17.578125 Z M 42.6875 -17.578125 "/></g></g></g><g fill="#ffffff" fill-opacity="1"><g transform="translate(533.652269, 226.119533)"><g><path d="M 40.546875 -33.265625 L 6.90625 -33.265625 L 6.90625 -31.015625 C 6.90625 -28.160156 7.007812 -25.3125 7.21875 -22.46875 C 7.425781 -19.625 7.738281 -16.738281 8.15625 -13.8125 C 8.832031 -9.789062 10.445312 -6.566406 13 -4.140625 C 15.550781 -1.710938 18.582031 -0.5 22.09375 -0.5 C 25.613281 -0.5 28.628906 -1.710938 31.140625 -4.140625 C 33.648438 -6.566406 35.238281 -9.789062 35.90625 -13.8125 C 36.15625 -15.488281 36.363281 -17.097656 36.53125 -18.640625 C 36.695312 -20.191406 36.820312 -21.765625 36.90625 -23.359375 C 36.90625 -24.523438 37.257812 -25.296875 37.96875 -25.671875 C 38.6875 -26.046875 39.378906 -26.046875 40.046875 -25.671875 C 40.710938 -25.296875 41.046875 -24.476562 41.046875 -23.21875 C 40.960938 -22.300781 40.835938 -21.359375 40.671875 -20.390625 C 40.503906 -19.429688 40.335938 -18.492188 40.171875 -17.578125 C 39.171875 -12.722656 37.160156 -8.578125 34.140625 -5.140625 C 31.128906 -1.710938 27.113281 0 22.09375 0 C 16.988281 0 12.90625 -1.710938 9.84375 -5.140625 C 6.789062 -8.578125 4.765625 -12.722656 3.765625 -17.578125 C 3.347656 -19.835938 3.035156 -22.078125 2.828125 -24.296875 C 2.617188 -26.515625 2.515625 -28.753906 2.515625 -31.015625 C 2.515625 -33.441406 2.617188 -35.828125 2.828125 -38.171875 C 3.035156 -40.515625 3.347656 -42.859375 3.765625 -45.203125 C 4.679688 -50.054688 6.6875 -54.195312 9.78125 -57.625 C 12.882812 -61.0625 16.988281 -62.78125 22.09375 -62.78125 C 27.113281 -62.78125 31.148438 -61.0625 34.203125 -57.625 C 37.265625 -54.195312 39.253906 -50.054688 40.171875 -45.203125 C 40.835938 -41.765625 41.257812 -38.082031 41.4375 -34.15625 C 41.4375 -33.5625 41.140625 -33.265625 40.546875 -33.265625 Z M 8.15625 -48.96875 C 7.820312 -46.375 7.550781 -43.816406 7.34375 -41.296875 C 7.132812 -38.785156 6.988281 -36.273438 6.90625 -33.765625 L 37.15625 -33.765625 C 37.070312 -36.453125 36.945312 -39.03125 36.78125 -41.5 C 36.613281 -43.96875 36.320312 -46.457031 35.90625 -48.96875 C 35.320312 -52.976562 33.753906 -56.195312 31.203125 -58.625 C 28.648438 -61.050781 25.613281 -62.265625 22.09375 -62.265625 C 18.582031 -62.265625 15.550781 -61.050781 13 -58.625 C 10.445312 -56.195312 8.832031 -52.976562 8.15625 -48.96875 Z M 8.15625 -48.96875 "/></g></g></g><g fill="#ffffff" fill-opacity="1"><g transform="translate(581.610076, 226.119533)"><g><path d="M 21.84375 -69.921875 C 18.832031 -71.429688 16.40625 -71.9375 14.5625 -71.4375 C 12.71875 -70.9375 11.585938 -69.765625 11.171875 -67.921875 L 10.546875 -68.046875 C 10.710938 -71.734375 12.007812 -74.160156 14.4375 -75.328125 C 16.863281 -76.492188 19.878906 -76.117188 23.484375 -74.203125 C 26.410156 -72.691406 28.875 -72.125 30.875 -72.5 C 32.882812 -72.875 34.144531 -74.023438 34.65625 -75.953125 L 35.40625 -75.828125 C 35.070312 -72.734375 33.773438 -70.453125 31.515625 -68.984375 C 29.253906 -67.523438 26.03125 -67.835938 21.84375 -69.921875 Z M 42.5625 -0.5 L 46.203125 -0.5 L 46.203125 0 L 34.78125 0 L 34.78125 -0.5 L 38.421875 -0.5 L 38.421875 -48.96875 C 38.421875 -52.976562 37.519531 -56.195312 35.71875 -58.625 C 33.914062 -61.050781 30.378906 -62.265625 25.109375 -62.265625 C 21.085938 -62.265625 17.632812 -61.050781 14.75 -58.625 C 11.863281 -56.195312 10.421875 -52.976562 10.421875 -48.96875 L 10.421875 -0.5 L 14.0625 -0.5 L 14.0625 0 L 2.515625 0 L 2.515625 -0.5 L 6.15625 -0.5 L 6.15625 -62.265625 L 2.515625 -62.265625 L 2.515625 -62.78125 L 10.421875 -62.78125 L 10.421875 -56 C 12.265625 -58.082031 14.460938 -59.734375 17.015625 -60.953125 C 19.566406 -62.171875 22.265625 -62.78125 25.109375 -62.78125 C 31.222656 -62.78125 35.660156 -61.3125 38.421875 -58.375 C 41.179688 -55.445312 42.5625 -51.054688 42.5625 -45.203125 Z M 42.5625 -0.5 "/></g></g></g><g fill="#ffffff" fill-opacity="1"><g transform="translate(634.338486, 226.119533)"><g><path d="M 40.796875 -45.078125 C 41.304688 -42.734375 41.664062 -40.367188 41.875 -37.984375 C 42.082031 -35.597656 42.1875 -33.191406 42.1875 -30.765625 C 42.1875 -28.503906 42.082031 -26.242188 41.875 -23.984375 C 41.664062 -21.722656 41.304688 -19.460938 40.796875 -17.203125 C 39.878906 -12.347656 37.867188 -8.179688 34.765625 -4.703125 C 31.671875 -1.234375 27.570312 0.5 22.46875 0.5 C 17.363281 0.5 13.21875 -1.234375 10.03125 -4.703125 C 6.851562 -8.179688 4.765625 -12.347656 3.765625 -17.203125 C 3.347656 -19.460938 3.035156 -21.722656 2.828125 -23.984375 C 2.617188 -26.242188 2.515625 -28.503906 2.515625 -30.765625 C 2.515625 -33.191406 2.617188 -35.597656 2.828125 -37.984375 C 3.035156 -40.367188 3.347656 -42.734375 3.765625 -45.078125 C 4.429688 -48.335938 5.582031 -51.347656 7.21875 -54.109375 C 8.851562 -56.867188 10.945312 -59.085938 13.5 -60.765625 C 16.050781 -62.441406 19.039062 -63.28125 22.46875 -63.28125 C 25.90625 -63.28125 28.878906 -62.441406 31.390625 -60.765625 C 33.898438 -59.085938 35.945312 -56.867188 37.53125 -54.109375 C 39.125 -51.347656 40.210938 -48.335938 40.796875 -45.078125 Z M 36.53125 -13.4375 C 36.945312 -16.363281 37.257812 -19.269531 37.46875 -22.15625 C 37.6875 -25.039062 37.796875 -27.910156 37.796875 -30.765625 C 37.796875 -33.859375 37.6875 -36.890625 37.46875 -39.859375 C 37.257812 -42.828125 36.945312 -45.820312 36.53125 -48.84375 C 35.945312 -52.9375 34.359375 -56.28125 31.765625 -58.875 C 29.171875 -61.476562 26.070312 -62.78125 22.46875 -62.78125 C 18.875 -62.78125 15.78125 -61.476562 13.1875 -58.875 C 10.59375 -56.28125 8.957031 -52.9375 8.28125 -48.84375 C 7.863281 -45.820312 7.550781 -42.828125 7.34375 -39.859375 C 7.132812 -36.890625 7.03125 -33.859375 7.03125 -30.765625 C 7.03125 -27.910156 7.132812 -25.039062 7.34375 -22.15625 C 7.550781 -19.269531 7.863281 -16.363281 8.28125 -13.4375 C 8.957031 -9.332031 10.59375 -6.066406 13.1875 -3.640625 C 15.78125 -1.210938 18.875 0 22.46875 0 C 26.070312 0 29.148438 -1.210938 31.703125 -3.640625 C 34.253906 -6.066406 35.863281 -9.332031 36.53125 -13.4375 Z M 36.53125 -13.4375 "/></g></g></g><g fill="#ffffff" fill-opacity="1"><g transform="translate(434.860528, 251.799905)"><g><path d="M 0.578125 -1.328125 L 1.34375 -1.328125 L 1.34375 -10.390625 L 0.578125 -10.390625 L 0.578125 -11.71875 L 4.40625 -11.71875 C 4.945312 -11.71875 5.441406 -11.660156 5.890625 -11.546875 C 6.347656 -11.429688 6.734375 -11.253906 7.046875 -11.015625 C 7.367188 -10.785156 7.617188 -10.484375 7.796875 -10.109375 C 7.972656 -9.742188 8.0625 -9.300781 8.0625 -8.78125 C 8.0625 -8.09375 7.894531 -7.484375 7.5625 -6.953125 C 7.238281 -6.429688 6.742188 -6.078125 6.078125 -5.890625 C 6.390625 -5.828125 6.691406 -5.71875 6.984375 -5.5625 C 7.285156 -5.40625 7.539062 -5.203125 7.75 -4.953125 C 7.96875 -4.703125 8.144531 -4.414062 8.28125 -4.09375 C 8.414062 -3.769531 8.484375 -3.410156 8.484375 -3.015625 C 8.484375 -2.515625 8.375 -2.078125 8.15625 -1.703125 C 7.945312 -1.328125 7.664062 -1.015625 7.3125 -0.765625 C 6.96875 -0.515625 6.566406 -0.320312 6.109375 -0.1875 C 5.648438 -0.0625 5.179688 0 4.703125 0 L 0.578125 0 Z M 2.734375 -5.234375 L 2.734375 -1.328125 L 4.578125 -1.328125 C 4.929688 -1.328125 5.253906 -1.363281 5.546875 -1.4375 C 5.847656 -1.519531 6.113281 -1.640625 6.34375 -1.796875 C 6.570312 -1.960938 6.753906 -2.160156 6.890625 -2.390625 C 7.023438 -2.628906 7.09375 -2.910156 7.09375 -3.234375 C 7.09375 -3.578125 7.015625 -3.875 6.859375 -4.125 C 6.703125 -4.382812 6.5 -4.59375 6.25 -4.75 C 6 -4.914062 5.707031 -5.035156 5.375 -5.109375 C 5.039062 -5.191406 4.695312 -5.234375 4.34375 -5.234375 Z M 2.734375 -10.390625 L 2.734375 -6.5625 L 4.53125 -6.5625 C 5.1875 -6.5625 5.707031 -6.742188 6.09375 -7.109375 C 6.476562 -7.484375 6.671875 -7.96875 6.671875 -8.5625 C 6.671875 -9.226562 6.46875 -9.695312 6.0625 -9.96875 C 5.664062 -10.25 5.144531 -10.390625 4.5 -10.390625 Z M 2.734375 -10.390625 "/></g></g></g><g fill="#ffffff" fill-opacity="1"><g transform="translate(446.490072, 251.799905)"><g><path d="M 0.578125 -1.328125 L 1.953125 -1.328125 C 2.722656 -3.160156 3.492188 -4.976562 4.265625 -6.78125 C 5.046875 -8.582031 5.820312 -10.40625 6.59375 -12.25 C 7.363281 -10.40625 8.132812 -8.582031 8.90625 -6.78125 C 9.6875 -4.976562 10.460938 -3.160156 11.234375 -1.328125 L 12.59375 -1.328125 L 12.59375 0 L 8.890625 0 L 8.890625 -1.328125 L 9.828125 -1.328125 C 9.585938 -1.878906 9.351562 -2.425781 9.125 -2.96875 C 8.894531 -3.519531 8.664062 -4.078125 8.4375 -4.640625 L 4.75 -4.640625 L 3.34375 -1.328125 L 4.296875 -1.328125 L 4.296875 0 L 0.578125 0 Z M 6.75 -8.625 L 6.578125 -9.171875 C 6.566406 -9.148438 6.554688 -9.109375 6.546875 -9.046875 C 6.535156 -8.992188 6.519531 -8.9375 6.5 -8.875 C 6.46875 -8.789062 6.4375 -8.707031 6.40625 -8.625 C 6.257812 -8.300781 6.125 -7.984375 6 -7.671875 C 5.894531 -7.398438 5.78125 -7.109375 5.65625 -6.796875 C 5.53125 -6.484375 5.421875 -6.203125 5.328125 -5.953125 L 7.859375 -5.953125 Z M 6.75 -8.625 "/></g></g></g><g fill="#ffffff" fill-opacity="1"><g transform="translate(462.235323, 251.799905)"><g><path d="M 0.578125 -1.328125 L 1.34375 -1.328125 L 1.34375 -10.390625 L 0.578125 -10.390625 L 0.578125 -11.71875 L 4.09375 -11.71875 C 4.476562 -11.71875 4.898438 -11.65625 5.359375 -11.53125 C 5.828125 -11.414062 6.257812 -11.226562 6.65625 -10.96875 C 7.0625 -10.71875 7.394531 -10.390625 7.65625 -9.984375 C 7.925781 -9.585938 8.0625 -9.101562 8.0625 -8.53125 C 8.0625 -7.695312 7.851562 -7 7.4375 -6.4375 C 7.019531 -5.875 6.410156 -5.503906 5.609375 -5.328125 L 7.484375 -1.328125 L 9.046875 -1.328125 L 9.046875 0 L 6.609375 0 L 4.15625 -5.21875 L 2.734375 -5.21875 L 2.734375 -1.328125 L 4.640625 -1.328125 L 4.640625 0 L 0.578125 0 Z M 2.734375 -6.5625 L 4.1875 -6.5625 C 4.675781 -6.5625 5.078125 -6.625 5.390625 -6.75 C 5.710938 -6.875 5.96875 -7.03125 6.15625 -7.21875 C 6.34375 -7.414062 6.472656 -7.628906 6.546875 -7.859375 C 6.628906 -8.097656 6.671875 -8.320312 6.671875 -8.53125 C 6.671875 -8.78125 6.609375 -9.015625 6.484375 -9.234375 C 6.359375 -9.460938 6.1875 -9.660156 5.96875 -9.828125 C 5.75 -10.003906 5.484375 -10.140625 5.171875 -10.234375 C 4.867188 -10.335938 4.546875 -10.390625 4.203125 -10.390625 L 2.734375 -10.390625 Z M 2.734375 -6.5625 "/></g></g></g><g fill="#ffffff" fill-opacity="1"><g transform="translate(474.433708, 251.799905)"><g><path d="M 0.890625 -2.453125 L 0.890625 -3.8125 L 3.96875 -3.8125 L 3.96875 -2.453125 Z M 0.890625 -2.453125 "/></g></g></g><g fill="#ffffff" fill-opacity="1"><g transform="translate(482.014483, 251.799905)"><g><path d="M 0.578125 -1.328125 L 1.34375 -1.328125 L 1.34375 -10.390625 L 0.578125 -10.390625 L 0.578125 -11.71875 L 4.09375 -11.71875 C 4.476562 -11.71875 4.898438 -11.65625 5.359375 -11.53125 C 5.828125 -11.414062 6.257812 -11.226562 6.65625 -10.96875 C 7.0625 -10.71875 7.394531 -10.390625 7.65625 -9.984375 C 7.925781 -9.585938 8.0625 -9.101562 8.0625 -8.53125 C 8.0625 -7.695312 7.851562 -7 7.4375 -6.4375 C 7.019531 -5.875 6.410156 -5.503906 5.609375 -5.328125 L 7.484375 -1.328125 L 9.046875 -1.328125 L 9.046875 0 L 6.609375 0 L 4.15625 -5.21875 L 2.734375 -5.21875 L 2.734375 -1.328125 L 4.640625 -1.328125 L 4.640625 0 L 0.578125 0 Z M 2.734375 -6.5625 L 4.1875 -6.5625 C 4.675781 -6.5625 5.078125 -6.625 5.390625 -6.75 C 5.710938 -6.875 5.96875 -7.03125 6.15625 -7.21875 C 6.34375 -7.414062 6.472656 -7.628906 6.546875 -7.859375 C 6.628906 -8.097656 6.671875 -8.320312 6.671875 -8.53125 C 6.671875 -8.78125 6.609375 -9.015625 6.484375 -9.234375 C 6.359375 -9.460938 6.1875 -9.660156 5.96875 -9.828125 C 5.75 -10.003906 5.484375 -10.140625 5.171875 -10.234375 C 4.867188 -10.335938 4.546875 -10.390625 4.203125 -10.390625 L 2.734375 -10.390625 Z M 2.734375 -6.5625 "/></g></g></g><g fill="#ffffff" fill-opacity="1"><g transform="translate(494.212872, 251.799905)"><g><path d="M 0.578125 -1.328125 L 1.90625 -1.328125 L 1.90625 -10.390625 L 0.578125 -10.390625 L 0.578125 -11.71875 L 4.640625 -11.71875 L 4.640625 -10.390625 L 3.296875 -10.390625 L 3.296875 -1.328125 L 4.640625 -1.328125 L 4.640625 0 L 0.578125 0 Z M 0.578125 -1.328125 "/></g></g></g><g fill="#ffffff" fill-opacity="1"><g transform="translate(501.994422, 251.799905)"><g><path d="M 0.34375 -1.5625 L 0.34375 -3.5 L 1.671875 -3.5 L 1.671875 -2.015625 C 1.960938 -1.785156 2.304688 -1.585938 2.703125 -1.421875 C 3.109375 -1.265625 3.5625 -1.1875 4.0625 -1.1875 C 4.351562 -1.1875 4.632812 -1.226562 4.90625 -1.3125 C 5.175781 -1.394531 5.410156 -1.515625 5.609375 -1.671875 C 5.816406 -1.835938 5.984375 -2.039062 6.109375 -2.28125 C 6.234375 -2.53125 6.296875 -2.816406 6.296875 -3.140625 C 6.296875 -3.722656 6.160156 -4.171875 5.890625 -4.484375 C 5.617188 -4.796875 5.28125 -5.035156 4.875 -5.203125 C 4.476562 -5.378906 4.046875 -5.53125 3.578125 -5.65625 C 3.109375 -5.78125 2.671875 -5.945312 2.265625 -6.15625 C 1.859375 -6.363281 1.519531 -6.65625 1.25 -7.03125 C 0.976562 -7.414062 0.832031 -7.957031 0.8125 -8.65625 C 0.800781 -9.019531 0.851562 -9.382812 0.96875 -9.75 C 1.082031 -10.125 1.265625 -10.460938 1.515625 -10.765625 C 1.773438 -11.066406 2.113281 -11.3125 2.53125 -11.5 C 2.957031 -11.6875 3.476562 -11.78125 4.09375 -11.78125 C 4.300781 -11.78125 4.519531 -11.769531 4.75 -11.75 C 4.988281 -11.726562 5.234375 -11.679688 5.484375 -11.609375 C 5.742188 -11.546875 6.007812 -11.445312 6.28125 -11.3125 C 6.550781 -11.175781 6.820312 -11 7.09375 -10.78125 L 7.09375 -9.140625 L 5.765625 -9.140625 L 5.765625 -10.125 C 5.554688 -10.21875 5.3125 -10.296875 5.03125 -10.359375 C 4.757812 -10.421875 4.453125 -10.453125 4.109375 -10.453125 C 3.460938 -10.453125 2.984375 -10.269531 2.671875 -9.90625 C 2.359375 -9.539062 2.203125 -9.101562 2.203125 -8.59375 C 2.203125 -8.257812 2.28125 -7.988281 2.4375 -7.78125 C 2.59375 -7.582031 2.800781 -7.410156 3.0625 -7.265625 C 3.320312 -7.128906 3.613281 -7.007812 3.9375 -6.90625 C 4.269531 -6.8125 4.601562 -6.703125 4.9375 -6.578125 C 5.28125 -6.460938 5.613281 -6.320312 5.9375 -6.15625 C 6.269531 -6 6.566406 -5.789062 6.828125 -5.53125 C 7.085938 -5.269531 7.296875 -4.945312 7.453125 -4.5625 C 7.609375 -4.175781 7.6875 -3.695312 7.6875 -3.125 C 7.6875 -2.625 7.59375 -2.171875 7.40625 -1.765625 C 7.21875 -1.367188 6.960938 -1.023438 6.640625 -0.734375 C 6.328125 -0.453125 5.957031 -0.234375 5.53125 -0.078125 C 5.113281 0.0664062 4.671875 0.140625 4.203125 0.140625 C 3.773438 0.140625 3.359375 0.09375 2.953125 0 C 2.554688 -0.101562 2.191406 -0.234375 1.859375 -0.390625 C 1.523438 -0.546875 1.222656 -0.722656 0.953125 -0.921875 C 0.691406 -1.117188 0.488281 -1.332031 0.34375 -1.5625 Z M 0.34375 -1.5625 "/></g></g></g><g fill="#ffffff" fill-opacity="1"><g transform="translate(512.553219, 251.799905)"><g><path d="M 3.09375 -1.328125 L 4.53125 -1.328125 L 4.53125 -10.390625 L 1.90625 -10.390625 L 1.90625 -9.140625 L 0.578125 -9.140625 L 0.578125 -11.71875 L 9.84375 -11.71875 L 9.84375 -9.140625 L 8.515625 -9.140625 L 8.515625 -10.390625 L 5.921875 -10.390625 L 5.921875 -1.328125 L 7.140625 -1.328125 L 7.140625 0 L 3.09375 0 Z M 3.09375 -1.328125 "/></g></g></g><g fill="#ffffff" fill-opacity="1"><g transform="translate(525.537936, 251.799905)"><g><path d="M 0.578125 -5.84375 C 0.578125 -6.65625 0.734375 -7.425781 1.046875 -8.15625 C 1.359375 -8.882812 1.785156 -9.519531 2.328125 -10.0625 C 2.867188 -10.613281 3.503906 -11.046875 4.234375 -11.359375 C 4.960938 -11.679688 5.738281 -11.84375 6.5625 -11.84375 C 7.375 -11.84375 8.144531 -11.679688 8.875 -11.359375 C 9.601562 -11.046875 10.238281 -10.613281 10.78125 -10.0625 C 11.332031 -9.519531 11.765625 -8.882812 12.078125 -8.15625 C 12.398438 -7.425781 12.5625 -6.65625 12.5625 -5.84375 C 12.5625 -5.019531 12.398438 -4.242188 12.078125 -3.515625 C 11.765625 -2.785156 11.332031 -2.148438 10.78125 -1.609375 C 10.238281 -1.066406 9.601562 -0.640625 8.875 -0.328125 C 8.144531 -0.015625 7.375 0.140625 6.5625 0.140625 C 5.738281 0.140625 4.960938 -0.015625 4.234375 -0.328125 C 3.503906 -0.640625 2.867188 -1.066406 2.328125 -1.609375 C 1.785156 -2.148438 1.359375 -2.785156 1.046875 -3.515625 C 0.734375 -4.242188 0.578125 -5.019531 0.578125 -5.84375 Z M 1.96875 -5.84375 C 1.96875 -5.195312 2.085938 -4.585938 2.328125 -4.015625 C 2.566406 -3.453125 2.894531 -2.960938 3.3125 -2.546875 C 3.738281 -2.128906 4.226562 -1.796875 4.78125 -1.546875 C 5.34375 -1.304688 5.941406 -1.1875 6.578125 -1.1875 C 7.210938 -1.1875 7.804688 -1.304688 8.359375 -1.546875 C 8.921875 -1.796875 9.410156 -2.128906 9.828125 -2.546875 C 10.242188 -2.960938 10.570312 -3.453125 10.8125 -4.015625 C 11.050781 -4.585938 11.171875 -5.195312 11.171875 -5.84375 C 11.171875 -6.488281 11.050781 -7.09375 10.8125 -7.65625 C 10.570312 -8.21875 10.242188 -8.707031 9.828125 -9.125 C 9.410156 -9.550781 8.921875 -9.890625 8.359375 -10.140625 C 7.804688 -10.390625 7.210938 -10.515625 6.578125 -10.515625 C 5.941406 -10.515625 5.34375 -10.390625 4.78125 -10.140625 C 4.226562 -9.890625 3.738281 -9.550781 3.3125 -9.125 C 2.894531 -8.707031 2.566406 -8.21875 2.328125 -7.65625 C 2.085938 -7.09375 1.96875 -6.488281 1.96875 -5.84375 Z M 1.96875 -5.84375 "/></g></g></g><g fill="#ffffff" fill-opacity="1"><g transform="translate(541.249721, 251.799905)"><g><path d="M 0.578125 -1.328125 L 1.34375 -1.328125 L 1.34375 -10.390625 L 0.578125 -10.390625 L 0.578125 -11.71875 L 4.09375 -11.71875 C 4.476562 -11.71875 4.898438 -11.65625 5.359375 -11.53125 C 5.828125 -11.414062 6.257812 -11.226562 6.65625 -10.96875 C 7.0625 -10.71875 7.394531 -10.390625 7.65625 -9.984375 C 7.925781 -9.585938 8.0625 -9.101562 8.0625 -8.53125 C 8.0625 -7.695312 7.851562 -7 7.4375 -6.4375 C 7.019531 -5.875 6.410156 -5.503906 5.609375 -5.328125 L 7.484375 -1.328125 L 9.046875 -1.328125 L 9.046875 0 L 6.609375 0 L 4.15625 -5.21875 L 2.734375 -5.21875 L 2.734375 -1.328125 L 4.640625 -1.328125 L 4.640625 0 L 0.578125 0 Z M 2.734375 -6.5625 L 4.1875 -6.5625 C 4.675781 -6.5625 5.078125 -6.625 5.390625 -6.75 C 5.710938 -6.875 5.96875 -7.03125 6.15625 -7.21875 C 6.34375 -7.414062 6.472656 -7.628906 6.546875 -7.859375 C 6.628906 -8.097656 6.671875 -8.320312 6.671875 -8.53125 C 6.671875 -8.78125 6.609375 -9.015625 6.484375 -9.234375 C 6.359375 -9.460938 6.1875 -9.660156 5.96875 -9.828125 C 5.75 -10.003906 5.484375 -10.140625 5.171875 -10.234375 C 4.867188 -10.335938 4.546875 -10.390625 4.203125 -10.390625 L 2.734375 -10.390625 Z M 2.734375 -6.5625 "/></g></g></g><g fill="#ffffff" fill-opacity="1"><g transform="translate(553.44811, 251.799905)"><g><path d="M 0.578125 -1.328125 L 1.953125 -1.328125 C 2.722656 -3.160156 3.492188 -4.976562 4.265625 -6.78125 C 5.046875 -8.582031 5.820312 -10.40625 6.59375 -12.25 C 7.363281 -10.40625 8.132812 -8.582031 8.90625 -6.78125 C 9.6875 -4.976562 10.460938 -3.160156 11.234375 -1.328125 L 12.59375 -1.328125 L 12.59375 0 L 8.890625 0 L 8.890625 -1.328125 L 9.828125 -1.328125 C 9.585938 -1.878906 9.351562 -2.425781 9.125 -2.96875 C 8.894531 -3.519531 8.664062 -4.078125 8.4375 -4.640625 L 4.75 -4.640625 L 3.34375 -1.328125 L 4.296875 -1.328125 L 4.296875 0 L 0.578125 0 Z M 6.75 -8.625 L 6.578125 -9.171875 C 6.566406 -9.148438 6.554688 -9.109375 6.546875 -9.046875 C 6.535156 -8.992188 6.519531 -8.9375 6.5 -8.875 C 6.46875 -8.789062 6.4375 -8.707031 6.40625 -8.625 C 6.257812 -8.300781 6.125 -7.984375 6 -7.671875 C 5.894531 -7.398438 5.78125 -7.109375 5.65625 -6.796875 C 5.53125 -6.484375 5.421875 -6.203125 5.328125 -5.953125 L 7.859375 -5.953125 Z M 6.75 -8.625 "/></g></g></g><g fill="#ffffff" fill-opacity="1"><g transform="translate(569.193364, 251.799905)"><g><path d="M 0.578125 -1.328125 L 2.046875 -1.328125 L 2.046875 -10.390625 L 0.578125 -10.390625 L 0.578125 -11.71875 L 2.53125 -11.71875 L 10.609375 -2.96875 L 10.921875 -2.53125 L 10.875 -3.0625 L 10.875 -10.390625 L 9.671875 -10.390625 L 9.671875 -11.71875 L 13.71875 -11.71875 L 13.71875 -10.390625 L 12.265625 -10.390625 L 12.265625 0.53125 L 3.703125 -8.5625 L 3.375 -9 L 3.4375 -8.46875 L 3.4375 -1.328125 L 4.640625 -1.328125 L 4.640625 0 L 0.578125 0 Z M 0.578125 -1.328125 "/></g></g></g><g fill="#ffffff" fill-opacity="1"><g transform="translate(586.059537, 251.799905)"><g><path d="M 3.09375 -1.328125 L 4.53125 -1.328125 L 4.53125 -10.390625 L 1.90625 -10.390625 L 1.90625 -9.140625 L 0.578125 -9.140625 L 0.578125 -11.71875 L 9.84375 -11.71875 L 9.84375 -9.140625 L 8.515625 -9.140625 L 8.515625 -10.390625 L 5.921875 -10.390625 L 5.921875 -1.328125 L 7.140625 -1.328125 L 7.140625 0 L 3.09375 0 Z M 3.09375 -1.328125 "/></g></g></g><g fill="#ffffff" fill-opacity="1"><g transform="translate(599.044246, 251.799905)"><g><path d="M 0.578125 -1.328125 L 1.515625 -1.328125 L 1.515625 -10.390625 L 0.578125 -10.390625 L 0.578125 -11.71875 L 8.734375 -11.71875 L 8.734375 -9.140625 L 7.40625 -9.140625 L 7.40625 -10.390625 L 2.90625 -10.390625 L 2.90625 -6.5625 L 8.078125 -6.5625 L 8.078125 -5.234375 L 2.90625 -5.234375 L 2.90625 -1.328125 L 7.640625 -1.328125 L 7.640625 -2.578125 L 8.96875 -2.578125 L 8.96875 0 L 0.578125 0 Z M 0.578125 -1.328125 "/></g></g></g></svg>