<svg xmlns="http://www.w3.org/2000/svg" xmlns:xlink="http://www.w3.org/1999/xlink" width="500" zoomAndPan="magnify" viewBox="0 0 375 374.999991" height="500" preserveAspectRatio="xMidYMid meet" version="1.0"><defs><g/><clipPath id="32abf88dbf"><path d="M 299.886719 156.78125 L 299.996094 156.78125 L 299.996094 156.882812 L 299.886719 156.882812 Z M 299.886719 156.78125 " clip-rule="nonzero"/></clipPath><clipPath id="f26558c806"><path d="M 299.992188 156.847656 C 299.773438 156.9375 299.96875 156.789062 299.96875 156.789062 " clip-rule="nonzero"/></clipPath><clipPath id="795e156577"><path d="M 294.40625 147.621094 L 302.945312 147.621094 L 302.945312 161.644531 L 294.40625 161.644531 Z M 294.40625 147.621094 " clip-rule="nonzero"/></clipPath><clipPath id="59864a030e"><path d="M 294.4375 153.691406 C 294.582031 151.769531 295.621094 149.097656 295.523438 149.035156 C 295.476562 149.007812 294.753906 150.507812 294.726562 150.507812 C 294.703125 150.476562 295.042969 149.367188 295.40625 148.917969 C 295.839844 148.375 296.683594 147.804688 297.3125 147.683594 C 297.796875 147.5625 298.277344 147.65625 298.738281 147.894531 C 299.292969 148.226562 299.917969 148.765625 300.332031 149.667969 C 300.980469 151.078125 300.597656 155.015625 301.320312 156.125 C 301.707031 156.789062 302.867188 156.546875 302.914062 157.027344 C 302.984375 157.898438 298.15625 161.65625 298.132812 161.625 C 298.132812 161.625 298.472656 161.414062 298.472656 161.234375 C 298.445312 160.78125 296.46875 159.972656 295.839844 158.949219 C 295.164062 157.867188 294.875 156.214844 294.679688 154.804688 C 294.511719 153.421875 294.4375 151.648438 294.726562 150.507812 C 294.96875 149.605469 295.453125 148.796875 295.960938 148.316406 C 296.347656 147.925781 296.828125 147.746094 297.289062 147.683594 C 297.769531 147.625 298.300781 147.683594 298.738281 147.894531 C 299.171875 148.105469 299.605469 148.496094 299.917969 148.917969 C 300.234375 149.367188 300.476562 149.878906 300.597656 150.507812 C 300.765625 151.410156 301.078125 153.242188 300.523438 153.902344 C 299.703125 154.894531 294.4375 153.691406 294.4375 153.691406 " clip-rule="nonzero"/></clipPath><clipPath id="d432097801"><path d="M 293.4375 133.535156 L 310.3125 133.535156 L 310.3125 168.613281 L 293.4375 168.613281 Z M 293.4375 133.535156 " clip-rule="nonzero"/></clipPath><clipPath id="dfc8dfe74b"><path d="M 293.449219 145.761719 C 293.519531 144.53125 293.714844 144.257812 293.738281 143.988281 C 293.761719 143.808594 293.714844 143.6875 293.714844 143.507812 C 293.714844 143.207031 293.714844 142.789062 293.714844 142.425781 C 293.714844 142.097656 293.714844 141.734375 293.714844 141.40625 C 293.714844 141.074219 293.714844 140.773438 293.714844 140.472656 C 293.714844 140.171875 293.714844 139.875 293.714844 139.542969 C 293.714844 139.210938 293.714844 138.882812 293.738281 138.550781 C 293.738281 138.25 293.785156 137.949219 293.835938 137.648438 C 293.859375 137.351562 293.90625 137.019531 293.933594 136.75 C 293.980469 136.480469 294.027344 136.058594 294.027344 136.027344 C 294.027344 135.996094 294.027344 135.996094 294.027344 135.996094 C 294.027344 135.96875 294.003906 135.789062 293.957031 135.667969 C 293.933594 135.515625 293.835938 135.277344 293.8125 135.097656 C 293.785156 134.976562 293.785156 134.707031 293.785156 134.707031 C 293.785156 134.707031 293.785156 134.617188 293.785156 134.554688 C 293.785156 134.527344 293.785156 134.4375 293.785156 134.4375 C 293.785156 134.4375 293.8125 134.34375 293.835938 134.316406 C 293.835938 134.285156 293.859375 134.195312 293.859375 134.195312 C 293.859375 134.195312 293.882812 134.105469 293.90625 134.074219 C 293.933594 134.046875 293.957031 133.984375 293.957031 133.984375 C 293.957031 133.984375 294.003906 133.925781 294.027344 133.894531 C 294.050781 133.863281 294.101562 133.804688 294.101562 133.804688 C 294.101562 133.773438 294.171875 133.746094 294.199219 133.714844 C 294.222656 133.714844 294.292969 133.65625 294.292969 133.65625 C 294.292969 133.65625 294.34375 133.625 294.390625 133.625 C 294.414062 133.59375 294.488281 133.59375 294.488281 133.59375 C 294.488281 133.59375 294.558594 133.5625 294.582031 133.5625 C 294.632812 133.5625 294.679688 133.5625 294.679688 133.5625 C 294.703125 133.5625 294.753906 133.59375 294.800781 133.59375 C 294.824219 133.59375 294.898438 133.625 294.898438 133.625 C 294.898438 133.625 294.945312 133.65625 294.992188 133.65625 C 295.019531 133.683594 295.089844 133.714844 295.089844 133.714844 C 295.089844 133.714844 295.140625 133.773438 295.164062 133.804688 C 295.1875 133.835938 295.234375 133.863281 295.234375 133.863281 C 295.234375 133.863281 295.285156 133.953125 295.308594 133.984375 C 295.332031 134.015625 295.378906 134.074219 295.378906 134.074219 C 295.378906 134.074219 295.40625 134.164062 295.40625 134.195312 C 295.429688 134.226562 295.453125 134.316406 295.453125 134.316406 C 295.453125 134.316406 295.476562 134.40625 295.476562 134.4375 C 295.476562 134.464844 295.5 134.496094 295.5 134.496094 C 295.523438 134.527344 295.574219 134.617188 295.574219 134.617188 C 295.574219 134.617188 295.71875 135.15625 295.789062 135.398438 C 295.839844 135.605469 295.886719 135.847656 295.9375 135.96875 C 295.960938 136.027344 295.960938 136.058594 295.984375 136.117188 C 296.054688 136.296875 296.226562 136.75 296.320312 136.929688 C 296.371094 137.019531 296.394531 137.050781 296.441406 137.140625 C 296.539062 137.320312 296.707031 137.648438 296.851562 137.921875 C 297 138.222656 297.238281 138.671875 297.335938 138.820312 C 297.382812 138.851562 297.410156 138.851562 297.457031 138.910156 C 297.554688 139.03125 297.820312 139.332031 297.988281 139.574219 C 298.132812 139.8125 298.253906 140.054688 298.375 140.324219 C 298.519531 140.625 298.640625 140.953125 298.738281 141.253906 C 298.832031 141.554688 298.90625 141.855469 299.027344 142.15625 C 299.121094 142.457031 299.316406 142.757812 299.4375 143.058594 C 299.582031 143.359375 299.703125 143.6875 299.847656 143.988281 C 299.992188 144.320312 300.160156 144.589844 300.332031 144.949219 C 300.5 145.339844 300.714844 145.820312 300.863281 146.210938 C 300.980469 146.601562 301.078125 147.023438 301.152344 147.292969 C 301.199219 147.445312 301.199219 147.503906 301.246094 147.65625 C 301.320312 147.953125 301.488281 148.4375 301.609375 148.824219 C 301.707031 149.1875 301.777344 149.546875 301.898438 149.878906 C 301.996094 150.238281 302.140625 150.597656 302.261719 150.898438 C 302.40625 151.199219 302.550781 151.46875 302.695312 151.710938 C 302.816406 151.980469 302.960938 152.191406 303.105469 152.429688 C 303.277344 152.730469 303.46875 153.03125 303.613281 153.332031 C 303.78125 153.574219 303.902344 153.8125 304.046875 154.082031 C 304.195312 154.324219 304.3125 154.5625 304.460938 154.835938 C 304.628906 155.164062 304.871094 155.585938 305.039062 155.917969 C 305.207031 156.1875 305.328125 156.425781 305.449219 156.699219 C 305.59375 156.96875 305.691406 157.238281 305.835938 157.507812 C 305.957031 157.777344 306.078125 157.988281 306.222656 158.289062 C 306.390625 158.621094 306.632812 159.011719 306.777344 159.371094 C 306.898438 159.671875 307.019531 160.0625 307.089844 160.273438 C 307.113281 160.394531 307.113281 160.453125 307.164062 160.601562 C 307.234375 160.8125 307.476562 161.171875 307.621094 161.472656 C 307.742188 161.746094 307.816406 162.074219 307.960938 162.316406 C 308.128906 162.527344 308.417969 162.644531 308.589844 162.886719 C 308.757812 163.125 308.855469 163.515625 308.972656 163.816406 C 309.121094 164.117188 309.289062 164.359375 309.386719 164.6875 C 309.503906 164.988281 309.578125 165.378906 309.699219 165.710938 C 309.769531 166.011719 309.988281 166.550781 309.964844 166.582031 C 309.964844 166.582031 310.011719 166.640625 310.011719 166.640625 C 310.011719 166.640625 310.0625 166.703125 310.085938 166.730469 C 310.109375 166.761719 310.15625 166.820312 310.15625 166.820312 C 310.15625 166.820312 310.179688 166.910156 310.207031 166.941406 C 310.230469 166.972656 310.253906 167.0625 310.253906 167.0625 C 310.253906 167.0625 310.277344 167.152344 310.277344 167.183594 C 310.277344 167.242188 310.300781 167.300781 310.300781 167.300781 C 310.300781 167.300781 310.300781 167.394531 310.300781 167.453125 C 310.300781 167.484375 310.300781 167.574219 310.300781 167.574219 C 310.300781 167.574219 310.277344 167.664062 310.277344 167.691406 C 310.277344 167.753906 310.253906 167.8125 310.253906 167.8125 C 310.253906 167.8125 310.207031 167.902344 310.207031 167.933594 C 310.179688 167.964844 310.15625 168.054688 310.15625 168.054688 C 310.15625 168.054688 310.109375 168.113281 310.085938 168.144531 C 310.0625 168.171875 310.011719 168.234375 310.011719 168.234375 C 310.011719 168.265625 309.964844 168.292969 309.914062 168.324219 C 309.890625 168.355469 309.84375 168.382812 309.84375 168.382812 C 309.84375 168.382812 309.769531 168.414062 309.746094 168.445312 C 309.699219 168.445312 309.648438 168.472656 309.648438 168.472656 C 309.648438 168.472656 309.410156 168.5625 309.265625 168.5625 C 309.046875 168.535156 308.78125 168.414062 308.539062 168.265625 C 308.273438 168.113281 308.007812 167.722656 307.71875 167.601562 C 307.476562 167.484375 307.210938 167.511719 306.96875 167.421875 C 306.730469 167.363281 306.511719 167.242188 306.246094 167.121094 C 305.980469 167.003906 305.667969 166.851562 305.375 166.730469 C 305.109375 166.613281 304.820312 166.492188 304.578125 166.402344 C 304.3125 166.28125 304.097656 166.191406 303.832031 166.101562 C 303.542969 165.949219 303.15625 165.800781 302.867188 165.589844 C 302.601562 165.441406 302.359375 165.199219 302.117188 164.988281 C 301.898438 164.808594 301.730469 164.660156 301.511719 164.476562 C 301.296875 164.269531 301.078125 164.058594 300.863281 163.878906 C 300.644531 163.726562 300.304688 163.578125 300.183594 163.488281 C 300.136719 163.457031 300.113281 163.425781 300.066406 163.425781 C 300.066406 163.398438 300.066406 163.425781 300.039062 163.398438 C 299.945312 163.367188 299.171875 163.125 298.785156 162.976562 C 298.472656 162.855469 298.179688 162.734375 297.890625 162.617188 C 297.578125 162.496094 297.289062 162.34375 297 162.285156 C 296.734375 162.195312 296.46875 162.195312 296.203125 162.136719 C 295.9375 162.046875 295.644531 161.925781 295.332031 161.804688 C 294.992188 161.65625 294.558594 161.535156 294.269531 161.292969 C 293.957031 161.023438 293.667969 160.601562 293.546875 160.210938 C 293.402344 159.820312 293.472656 159.3125 293.472656 158.921875 C 293.449219 158.589844 293.472656 158.289062 293.472656 157.988281 C 293.472656 157.660156 293.472656 157.328125 293.472656 157.027344 C 293.472656 156.699219 293.472656 156.367188 293.472656 156.035156 C 293.496094 155.734375 293.546875 155.4375 293.570312 155.105469 C 293.570312 154.773438 293.59375 154.445312 293.59375 154.113281 C 293.617188 153.78125 293.59375 153.453125 293.617188 153.121094 C 293.617188 152.792969 293.691406 152.429688 293.691406 152.101562 C 293.714844 151.800781 293.691406 151.5 293.691406 151.199219 C 293.691406 150.867188 293.714844 150.507812 293.714844 150.179688 C 293.714844 149.878906 293.714844 149.515625 293.714844 149.246094 C 293.714844 149.007812 293.738281 148.765625 293.714844 148.644531 C 293.714844 148.554688 293.691406 148.554688 293.667969 148.496094 C 293.617188 148.316406 293.496094 147.925781 293.472656 147.625 C 293.425781 147.292969 293.449219 146.964844 293.449219 146.664062 C 293.449219 146.363281 293.449219 145.761719 293.449219 145.761719 M 295.210938 156.9375 C 295.210938 157.058594 295.234375 157.058594 295.234375 157.058594 C 295.234375 157.058594 295.308594 157.058594 295.332031 157.058594 C 295.355469 157.058594 295.429688 157.089844 295.429688 157.089844 C 295.429688 157.089844 295.5 157.117188 295.523438 157.117188 C 295.574219 157.117188 295.597656 157.148438 295.621094 157.148438 C 295.644531 157.179688 295.644531 157.148438 295.671875 157.179688 C 295.765625 157.238281 296.054688 157.6875 296.296875 157.898438 C 296.539062 158.109375 296.78125 158.351562 297.046875 158.441406 C 297.289062 158.558594 297.578125 158.53125 297.84375 158.53125 C 298.085938 158.558594 298.324219 158.558594 298.566406 158.53125 C 298.808594 158.5 299.148438 158.589844 299.242188 158.410156 C 299.339844 158.257812 299.148438 157.839844 299.121094 157.539062 C 299.121094 157.179688 299.121094 156.667969 299.171875 156.457031 C 299.195312 156.335938 299.269531 156.308594 299.269531 156.214844 C 299.292969 156.097656 299.21875 155.886719 299.195312 155.675781 C 299.171875 155.40625 299.195312 154.894531 299.171875 154.746094 C 299.148438 154.683594 299.148438 154.683594 299.148438 154.59375 C 299.074219 154.355469 298.738281 153.273438 298.566406 152.761719 C 298.472656 152.371094 298.445312 151.800781 298.324219 151.769531 C 298.15625 151.769531 297.988281 153.121094 297.675781 153.300781 C 297.410156 153.484375 296.78125 153.363281 296.585938 153.09375 C 296.371094 152.761719 296.515625 151.742188 296.585938 151.351562 C 296.613281 151.140625 296.757812 150.898438 296.734375 150.898438 C 296.734375 150.867188 296.707031 150.929688 296.683594 150.929688 C 296.660156 150.960938 296.585938 150.988281 296.585938 150.988281 C 296.585938 150.988281 296.539062 151.019531 296.515625 151.050781 C 296.46875 151.050781 296.417969 151.078125 296.417969 151.078125 C 296.417969 151.078125 296.347656 151.078125 296.320312 151.078125 C 296.296875 151.078125 296.226562 151.109375 296.226562 151.109375 C 296.226562 151.109375 296.152344 151.078125 296.128906 151.078125 C 296.105469 151.078125 296.03125 151.050781 296.03125 151.050781 C 296.03125 151.050781 295.984375 151.019531 295.960938 151.019531 C 295.910156 150.988281 295.863281 150.960938 295.863281 150.960938 C 295.863281 150.960938 295.816406 150.929688 295.789062 150.898438 C 295.765625 150.867188 295.71875 150.839844 295.71875 150.839844 C 295.71875 150.839844 295.671875 150.777344 295.644531 150.75 C 295.621094 150.71875 295.597656 150.660156 295.597656 150.660156 C 295.597656 150.628906 295.550781 150.570312 295.550781 150.539062 C 295.523438 150.507812 295.5 150.417969 295.5 150.417969 C 295.5 150.417969 295.5 150.359375 295.476562 150.328125 C 295.476562 150.269531 295.476562 150.207031 295.476562 150.207031 C 295.476562 150.207031 295.476562 150.117188 295.476562 150.089844 C 295.476562 150.027344 295.476562 149.96875 295.476562 149.96875 C 295.476562 149.96875 295.476562 149.9375 295.476562 149.9375 C 295.453125 149.9375 295.40625 149.996094 295.40625 150.027344 C 295.378906 150.058594 295.40625 150.058594 295.40625 150.089844 C 295.40625 150.207031 295.40625 150.71875 295.40625 151.050781 C 295.40625 151.378906 295.40625 151.710938 295.40625 152.011719 C 295.40625 152.339844 295.355469 152.703125 295.355469 153.03125 C 295.332031 153.332031 295.332031 153.664062 295.332031 153.964844 C 295.308594 154.265625 295.308594 154.5625 295.285156 154.863281 C 295.285156 155.226562 295.234375 155.585938 295.234375 155.945312 C 295.210938 156.277344 295.210938 156.9375 295.210938 156.9375 M 295.210938 159.460938 C 295.257812 159.820312 295.476562 159.851562 295.5 159.820312 C 295.5 159.761719 295.210938 159.460938 295.210938 159.460938 M 295.453125 139.785156 C 295.476562 140.113281 295.550781 140.054688 295.550781 140.023438 C 295.574219 139.964844 295.453125 139.785156 295.453125 139.785156 M 295.839844 142.96875 C 295.863281 142.96875 295.863281 142.96875 295.863281 142.96875 C 295.863281 142.96875 295.839844 142.9375 295.839844 142.9375 C 295.839844 142.9375 295.839844 142.96875 295.839844 142.96875 M 306.222656 164.777344 C 306.246094 164.898438 306.269531 164.898438 306.269531 164.898438 C 306.292969 164.898438 306.222656 164.777344 306.222656 164.777344 " clip-rule="nonzero"/></clipPath><clipPath id="cd5b075298"><path d="M 294.480469 158.941406 L 299.324219 158.941406 L 299.324219 161.21875 L 294.480469 161.21875 Z M 294.480469 158.941406 " clip-rule="nonzero"/></clipPath><clipPath id="06e201cc19"><path d="M 295.285156 158.949219 C 299.171875 159.820312 299.316406 160.183594 299.292969 160.453125 C 299.269531 160.722656 298.929688 161.082031 298.710938 161.144531 C 298.542969 161.171875 298.253906 161.054688 298.15625 160.875 C 298.011719 160.664062 297.988281 160.09375 298.085938 159.882812 C 298.179688 159.671875 298.445312 159.492188 298.640625 159.519531 C 298.855469 159.519531 299.195312 159.882812 299.269531 160.09375 C 299.339844 160.273438 299.316406 160.453125 299.269531 160.632812 C 299.195312 160.8125 299.050781 161.023438 298.785156 161.113281 C 298.15625 161.382812 295.765625 161.082031 295.089844 160.664062 C 294.753906 160.421875 294.535156 160.03125 294.488281 159.761719 C 294.464844 159.582031 294.558594 159.339844 294.679688 159.191406 C 294.824219 159.039062 295.285156 158.949219 295.285156 158.949219 " clip-rule="nonzero"/></clipPath><clipPath id="2e8b0fbb98"><path d="M 309.007812 166.710938 L 310.382812 166.710938 L 310.382812 168.160156 L 309.007812 168.160156 Z M 309.007812 166.710938 " clip-rule="nonzero"/></clipPath><clipPath id="40a70928a9"><path d="M 310.375 167.210938 C 309.769531 168.445312 309.191406 168.203125 309.070312 167.964844 C 308.949219 167.691406 309.046875 166.972656 309.238281 166.792969 C 309.433594 166.582031 310.207031 166.851562 310.207031 166.851562 " clip-rule="nonzero"/></clipPath><clipPath id="0b03060d8b"><path d="M 309.515625 167.144531 L 310.890625 167.144531 L 310.890625 168.582031 L 309.515625 168.582031 Z M 309.515625 167.144531 " clip-rule="nonzero"/></clipPath><clipPath id="8d8f393941"><path d="M 310.882812 167.632812 C 310.277344 168.863281 309.699219 168.625 309.578125 168.382812 C 309.457031 168.113281 309.554688 167.394531 309.746094 167.210938 C 309.941406 167.03125 310.710938 167.273438 310.710938 167.273438 " clip-rule="nonzero"/></clipPath><clipPath id="33a31705b3"><path d="M 309.769531 167.566406 L 311.15625 167.566406 L 311.15625 169 L 309.769531 169 Z M 309.769531 167.566406 " clip-rule="nonzero"/></clipPath><clipPath id="41c0ea88df"><path d="M 311.148438 168.082031 C 310.519531 169.285156 309.964844 169.046875 309.84375 168.804688 C 309.699219 168.535156 309.820312 167.8125 310.011719 167.632812 C 310.207031 167.453125 310.953125 167.691406 310.953125 167.691406 " clip-rule="nonzero"/></clipPath><clipPath id="2e05fdded6"><path d="M 297.109375 140.433594 L 308.554688 140.433594 L 308.554688 163.890625 L 297.109375 163.890625 Z M 297.109375 140.433594 " clip-rule="nonzero"/></clipPath><clipPath id="d4c413108c"><path d="M 307.164062 163.457031 C 304.074219 157.027344 304.023438 156.035156 303.371094 154.472656 C 302.1875 151.679688 298.421875 145.640625 297.601562 143.476562 C 297.289062 142.667969 297.167969 142.125 297.144531 141.675781 C 297.144531 141.375 297.144531 141.195312 297.238281 140.984375 C 297.359375 140.746094 297.675781 140.472656 297.914062 140.445312 C 298.15625 140.414062 298.519531 140.625 298.664062 140.804688 C 298.785156 140.984375 298.882812 141.226562 298.855469 141.4375 C 298.855469 141.734375 298.710938 142.1875 298.519531 142.367188 C 298.324219 142.546875 297.941406 142.578125 297.722656 142.515625 C 297.554688 142.457031 297.359375 142.308594 297.289062 142.097656 C 297.191406 141.796875 297.214844 141.074219 297.359375 140.804688 C 297.457031 140.59375 297.648438 140.472656 297.820312 140.445312 C 298.035156 140.414062 298.375 140.472656 298.589844 140.714844 C 298.929688 141.105469 298.90625 141.917969 299.292969 142.878906 C 300.183594 145.070312 303.347656 150.089844 304.652344 153.09375 C 305.59375 155.285156 305.980469 157.296875 306.679688 159.011719 C 307.261719 160.394531 308.296875 161.863281 308.46875 162.617188 C 308.515625 162.886719 308.515625 163.066406 308.46875 163.246094 C 308.394531 163.457031 308.25 163.667969 308.105469 163.757812 C 307.960938 163.847656 307.742188 163.878906 307.574219 163.816406 C 307.429688 163.757812 307.164062 163.457031 307.164062 163.457031 " clip-rule="nonzero"/></clipPath><clipPath id="50ee123fcd"><path d="M 293.804688 132.285156 L 300.871094 132.285156 L 300.871094 147.820312 L 293.804688 147.820312 Z M 293.804688 132.285156 " clip-rule="nonzero"/></clipPath><clipPath id="e3c927396f"><path d="M 295.332031 133.59375 C 295.671875 135.757812 296.320312 136.269531 296.5625 136.898438 C 296.78125 137.5 296.902344 138.25 296.902344 138.882812 C 296.902344 139.511719 296.660156 140.65625 296.585938 140.65625 C 296.539062 140.65625 296.585938 140.171875 296.46875 139.753906 C 296.175781 138.582031 293.957031 134.675781 294.003906 133.445312 C 294.003906 132.933594 294.246094 132.542969 294.488281 132.394531 C 294.726562 132.242188 295.210938 132.300781 295.453125 132.601562 C 295.863281 133.082031 295.71875 134.644531 295.960938 135.878906 C 296.296875 137.5 296.878906 140.984375 297.480469 141.4375 C 297.722656 141.617188 298.035156 141.195312 298.277344 141.253906 C 298.542969 141.34375 298.761719 141.644531 299.027344 141.976562 C 299.460938 142.515625 300.113281 143.539062 300.402344 144.410156 C 300.691406 145.28125 301.007812 146.632812 300.789062 147.203125 C 300.644531 147.5625 300.136719 147.835938 299.871094 147.804688 C 299.628906 147.773438 299.339844 147.472656 299.21875 147.203125 C 299.121094 146.933594 299.148438 146.453125 299.269531 146.210938 C 299.386719 145.941406 299.726562 145.703125 299.96875 145.671875 C 300.183594 145.671875 300.546875 145.882812 300.691406 146.09375 C 300.8125 146.273438 300.886719 146.511719 300.863281 146.753906 C 300.863281 147.023438 300.714844 147.472656 300.5 147.625 C 300.257812 147.804688 299.726562 147.835938 299.460938 147.5625 C 299.097656 147.234375 299.097656 145.941406 298.832031 145.25 C 298.589844 144.621094 298.351562 143.929688 297.941406 143.539062 C 297.554688 143.179688 296.851562 143.269531 296.492188 142.96875 C 296.226562 142.757812 296.152344 142.578125 295.9375 142.125 C 295.429688 140.925781 294.199219 136.777344 294.027344 135.035156 C 293.933594 134.074219 293.957031 133.144531 294.171875 132.722656 C 294.292969 132.484375 294.488281 132.363281 294.679688 132.332031 C 294.921875 132.273438 295.210938 132.332031 295.453125 132.601562 C 296.007812 133.203125 296.515625 135.847656 297 136.929688 C 297.335938 137.679688 297.796875 138.160156 297.964844 138.703125 C 298.085938 139.0625 298.132812 139.363281 298.109375 139.691406 C 298.109375 140.023438 298.085938 140.324219 297.964844 140.625 C 297.796875 141.015625 297.480469 141.527344 297.214844 141.796875 C 296.972656 142.035156 296.734375 142.214844 296.492188 142.246094 C 296.25 142.308594 295.910156 142.277344 295.695312 142.125 C 295.476562 141.976562 295.332031 141.707031 295.210938 141.316406 C 295.019531 140.625 295.332031 139.0625 295.113281 138.070312 C 294.898438 137.109375 294.148438 136.238281 293.957031 135.425781 C 293.8125 134.796875 293.8125 134.136719 293.859375 133.683594 C 293.882812 133.445312 293.90625 133.234375 294.003906 133.082031 C 294.125 132.902344 294.292969 132.785156 294.464844 132.722656 C 294.632812 132.691406 294.847656 132.722656 294.992188 132.875 C 295.140625 132.992188 295.332031 133.59375 295.332031 133.59375 " clip-rule="nonzero"/></clipPath><clipPath id="11ee0ba09b"><path d="M 293.085938 126.710938 L 294.230469 126.710938 L 294.230469 131.195312 L 293.085938 131.195312 Z M 293.085938 126.710938 " clip-rule="nonzero"/></clipPath><clipPath id="d637cbbf1b"><path d="M 293.28125 129.988281 C 293.859375 127.585938 294.078125 127.585938 294.171875 127.707031 C 294.367188 128.035156 293.957031 130.378906 293.738281 130.890625 C 293.640625 131.070312 293.546875 131.191406 293.472656 131.191406 C 293.375 131.191406 293.28125 131.070312 293.230469 130.921875 C 293.0625 130.46875 293.039062 128.636719 293.230469 127.886719 C 293.328125 127.40625 293.59375 126.863281 293.785156 126.773438 C 293.933594 126.746094 294.171875 126.925781 294.199219 127.015625 C 294.199219 127.105469 294.003906 127.316406 293.933594 127.316406 C 293.859375 127.316406 293.714844 127.074219 293.714844 126.984375 C 293.714844 126.894531 293.835938 126.714844 293.90625 126.714844 C 294.003906 126.714844 294.171875 126.835938 294.199219 126.984375 C 294.222656 127.226562 293.761719 127.707031 293.640625 128.1875 C 293.496094 128.9375 293.859375 130.621094 293.691406 131.011719 C 293.640625 131.132812 293.546875 131.191406 293.472656 131.191406 C 293.375 131.191406 293.28125 131.070312 293.230469 130.921875 C 293.136719 130.558594 293.328125 129.449219 293.449219 128.847656 C 293.519531 128.398438 293.59375 127.796875 293.761719 127.644531 C 293.882812 127.554688 294.101562 127.585938 294.171875 127.707031 C 294.316406 128.007812 293.933594 129.808594 293.738281 130.140625 C 293.667969 130.257812 293.570312 130.320312 293.496094 130.289062 C 293.425781 130.289062 293.28125 129.988281 293.28125 129.988281 " clip-rule="nonzero"/></clipPath><clipPath id="a02f75630f"><path d="M 290 128 L 295 128 L 295 134 L 290 134 Z M 290 128 " clip-rule="nonzero"/></clipPath><clipPath id="4124337e71"><path d="M 293.015625 127.441406 L 296.039062 129.382812 L 293.292969 133.660156 L 290.269531 131.71875 Z M 293.015625 127.441406 " clip-rule="nonzero"/></clipPath><clipPath id="8f3c9db303"><path d="M 294.527344 128.414062 L 293.300781 133.652344 L 290.273438 131.710938 Z M 294.527344 128.414062 " clip-rule="nonzero"/></clipPath></defs><rect x="-37.5" width="450" fill="#ffffff" y="-37.499999" height="449.999989" fill-opacity="1"/><rect x="-37.5" width="450" fill="#ffffff" y="-37.499999" height="449.999989" fill-opacity="1"/><g fill="#000000" fill-opacity="1"><g transform="translate(79.612727, 158.624805)"><g><path d="M 1.625 -1.859375 L 5.234375 -1.859375 L 5.234375 -30.59375 L 1.625 -30.59375 L 1.625 -32.4375 L 10.9375 -32.4375 L 10.9375 -30.59375 L 7.140625 -30.59375 L 7.140625 -1.859375 L 10.9375 -1.859375 L 10.9375 0 L 1.625 0 Z M 1.625 -1.859375 "/></g></g></g><g fill="#000000" fill-opacity="1"><g transform="translate(92.170784, 158.624805)"><g><path d="M 1.625 -1.859375 L 5.046875 -1.859375 L 5.046875 -32.90625 L 1.765625 -32.90625 L 1.765625 -34.765625 L 6.953125 -34.765625 L 6.953125 -1.859375 L 10.5625 -1.859375 L 10.5625 0 L 1.625 0 Z M 1.625 -1.859375 "/></g></g></g><g fill="#000000" fill-opacity="1"><g transform="translate(104.358112, 158.624805)"><g/></g></g><g fill="#000000" fill-opacity="1"><g transform="translate(118.260012, 158.624805)"><g><path d="M 1.625 -1.859375 L 5.375 -1.859375 L 5.375 -30.59375 L 1.625 -30.59375 L 1.625 -32.4375 L 6.625 -32.4375 L 31 -4.078125 L 31.890625 -2.875 L 31.75 -4.359375 L 31.75 -30.59375 L 28.265625 -30.59375 L 28.265625 -32.4375 L 37.578125 -32.4375 L 37.578125 -30.59375 L 33.6875 -30.59375 L 33.6875 1.484375 L 8.0625 -28.125 L 7.1875 -29.15625 L 7.328125 -27.859375 L 7.328125 -1.859375 L 10.9375 -1.859375 L 10.9375 0 L 1.625 0 Z M 1.625 -1.859375 "/></g></g></g><g fill="#000000" fill-opacity="1"><g transform="translate(157.463377, 158.624805)"><g><path d="M 1.671875 -8.71875 C 1.671875 -9.945312 1.910156 -11.117188 2.390625 -12.234375 C 2.867188 -13.347656 3.515625 -14.3125 4.328125 -15.125 C 5.148438 -15.945312 6.109375 -16.597656 7.203125 -17.078125 C 8.304688 -17.554688 9.488281 -17.796875 10.75 -17.796875 C 12.019531 -17.796875 13.207031 -17.554688 14.3125 -17.078125 C 15.425781 -16.597656 16.398438 -15.945312 17.234375 -15.125 C 18.066406 -14.3125 18.722656 -13.347656 19.203125 -12.234375 C 19.679688 -11.117188 19.921875 -9.945312 19.921875 -8.71875 C 19.921875 -7.445312 19.679688 -6.257812 19.203125 -5.15625 C 18.722656 -4.0625 18.066406 -3.113281 17.234375 -2.3125 C 16.398438 -1.507812 15.425781 -0.867188 14.3125 -0.390625 C 13.207031 0.0859375 12.019531 0.328125 10.75 0.328125 C 9.488281 0.328125 8.304688 0.0859375 7.203125 -0.390625 C 6.109375 -0.867188 5.148438 -1.507812 4.328125 -2.3125 C 3.515625 -3.113281 2.867188 -4.0625 2.390625 -5.15625 C 1.910156 -6.257812 1.671875 -7.445312 1.671875 -8.71875 Z M 3.5625 -8.71875 C 3.5625 -7.726562 3.75 -6.800781 4.125 -5.9375 C 4.5 -5.070312 5.007812 -4.3125 5.65625 -3.65625 C 6.300781 -3.007812 7.054688 -2.5 7.921875 -2.125 C 8.785156 -1.757812 9.710938 -1.578125 10.703125 -1.578125 C 11.691406 -1.578125 12.625 -1.757812 13.5 -2.125 C 14.382812 -2.5 15.148438 -3.007812 15.796875 -3.65625 C 16.453125 -4.3125 16.960938 -5.070312 17.328125 -5.9375 C 17.703125 -6.800781 17.890625 -7.726562 17.890625 -8.71875 C 17.890625 -9.707031 17.703125 -10.632812 17.328125 -11.5 C 16.960938 -12.363281 16.453125 -13.117188 15.796875 -13.765625 C 15.148438 -14.410156 14.382812 -14.925781 13.5 -15.3125 C 12.625 -15.695312 11.691406 -15.890625 10.703125 -15.890625 C 9.710938 -15.890625 8.785156 -15.695312 7.921875 -15.3125 C 7.054688 -14.925781 6.300781 -14.410156 5.65625 -13.765625 C 5.007812 -13.117188 4.5 -12.363281 4.125 -11.5 C 3.75 -10.632812 3.5625 -9.707031 3.5625 -8.71875 Z M 3.5625 -8.71875 "/></g></g></g><g fill="#000000" fill-opacity="1"><g transform="translate(179.011327, 158.624805)"><g><path d="M 1.625 -1.859375 L 5.234375 -1.859375 L 5.234375 -15.53125 L 1.90625 -15.53125 L 1.90625 -17.375 L 6.8125 -17.375 L 6.859375 -15.75 C 6.890625 -15.226562 6.921875 -14.75 6.953125 -14.3125 C 6.984375 -13.882812 7 -13.410156 7 -12.890625 C 7.707031 -14.398438 8.75 -15.578125 10.125 -16.421875 C 11.5 -17.273438 12.894531 -17.71875 14.3125 -17.75 L 14.1875 -15.84375 C 13.195312 -15.8125 12.273438 -15.632812 11.421875 -15.3125 C 10.578125 -14.988281 9.835938 -14.546875 9.203125 -13.984375 C 8.566406 -13.429688 8.0625 -12.769531 7.6875 -12 C 7.320312 -11.226562 7.140625 -10.394531 7.140625 -9.5 L 7.140625 -1.859375 L 10.5625 -1.859375 L 10.5625 0 L 1.625 0 Z M 1.625 -1.859375 "/></g></g></g><g fill="#000000" fill-opacity="1"><g transform="translate(194.95217, 158.624805)"><g><path d="M 5.65625 -28.6875 L 7.59375 -28.6875 L 7.59375 -17.375 L 12.9375 -17.375 L 12.9375 -15.484375 L 7.59375 -15.484375 L 7.59375 -1.859375 L 11.40625 -1.859375 L 11.40625 0 L 5.65625 0 L 5.65625 -15.484375 L 1.625 -15.484375 L 1.625 -17.375 L 5.65625 -17.375 Z M 5.65625 -28.6875 "/></g></g></g><g fill="#000000" fill-opacity="1"><g transform="translate(209.502826, 158.624805)"><g><path d="M 10.703125 -15.890625 C 9.554688 -15.890625 8.507812 -15.648438 7.5625 -15.171875 C 6.625 -14.691406 5.832031 -14.054688 5.1875 -13.265625 C 4.539062 -12.484375 4.082031 -11.570312 3.8125 -10.53125 C 3.550781 -9.5 3.53125 -8.445312 3.75 -7.375 C 5.820312 -8.207031 7.890625 -9.03125 9.953125 -9.84375 C 12.023438 -10.664062 14.113281 -11.492188 16.21875 -12.328125 C 15.695312 -13.378906 14.941406 -14.234375 13.953125 -14.890625 C 12.960938 -15.554688 11.878906 -15.890625 10.703125 -15.890625 Z M 18.671875 -11.265625 C 16.265625 -10.304688 13.867188 -9.351562 11.484375 -8.40625 C 9.109375 -7.46875 6.71875 -6.519531 4.3125 -5.5625 C 4.832031 -4.382812 5.664062 -3.425781 6.8125 -2.6875 C 7.957031 -1.945312 9.253906 -1.578125 10.703125 -1.578125 C 11.660156 -1.578125 12.554688 -1.742188 13.390625 -2.078125 C 14.222656 -2.421875 14.953125 -2.898438 15.578125 -3.515625 C 15.785156 -3.273438 15.984375 -3.035156 16.171875 -2.796875 C 16.359375 -2.566406 16.5625 -2.328125 16.78125 -2.078125 C 15.976562 -1.335938 15.066406 -0.75 14.046875 -0.3125 C 13.023438 0.113281 11.910156 0.328125 10.703125 0.328125 C 9.441406 0.328125 8.257812 0.0859375 7.15625 -0.390625 C 6.0625 -0.867188 5.101562 -1.507812 4.28125 -2.3125 C 3.46875 -3.113281 2.820312 -4.0625 2.34375 -5.15625 C 1.863281 -6.257812 1.625 -7.445312 1.625 -8.71875 C 1.625 -9.945312 1.863281 -11.117188 2.34375 -12.234375 C 2.820312 -13.347656 3.46875 -14.304688 4.28125 -15.109375 C 5.101562 -15.910156 6.0625 -16.550781 7.15625 -17.03125 C 8.257812 -17.507812 9.441406 -17.75 10.703125 -17.75 C 11.628906 -17.75 12.507812 -17.585938 13.34375 -17.265625 C 14.175781 -16.941406 14.941406 -16.492188 15.640625 -15.921875 C 16.335938 -15.347656 16.945312 -14.664062 17.46875 -13.875 C 18 -13.09375 18.398438 -12.222656 18.671875 -11.265625 Z M 18.671875 -11.265625 "/></g></g></g><g fill="#000000" fill-opacity="1"><g transform="translate(229.938629, 158.624805)"><g><path d="M 14.6875 -1.859375 L 18.3125 -1.859375 L 18.3125 -12.046875 C 18.25 -13.035156 17.882812 -13.898438 17.21875 -14.640625 C 16.550781 -15.378906 15.570312 -15.78125 14.28125 -15.84375 C 13.351562 -15.84375 12.453125 -15.679688 11.578125 -15.359375 C 10.710938 -15.035156 9.945312 -14.59375 9.28125 -14.03125 C 8.625 -13.476562 8.101562 -12.816406 7.71875 -12.046875 C 7.332031 -11.273438 7.140625 -10.425781 7.140625 -9.5 L 7.140625 -1.859375 L 10.5625 -1.859375 L 10.5625 0 L 1.625 0 L 1.625 -1.859375 L 5.234375 -1.859375 L 5.234375 -15.53125 L 1.90625 -15.53125 L 1.90625 -17.375 L 6.8125 -17.375 L 6.859375 -15.75 C 6.890625 -15.226562 6.921875 -14.75 6.953125 -14.3125 C 6.984375 -13.882812 7 -13.410156 7 -12.890625 C 7.613281 -14.335938 8.609375 -15.507812 9.984375 -16.40625 C 11.359375 -17.300781 12.910156 -17.75 14.640625 -17.75 C 16.335938 -17.75 17.679688 -17.269531 18.671875 -16.3125 C 19.660156 -15.351562 20.1875 -14.101562 20.25 -12.5625 L 20.25 -1.859375 L 23.640625 -1.859375 L 23.640625 0 L 14.6875 0 Z M 12.421875 -22.375 C 11.953125 -22.90625 11.53125 -23.253906 11.15625 -23.421875 C 10.789062 -23.585938 10.394531 -23.671875 9.96875 -23.671875 C 9.71875 -23.671875 9.445312 -23.640625 9.15625 -23.578125 C 8.863281 -23.515625 8.578125 -23.398438 8.296875 -23.234375 C 8.015625 -23.066406 7.765625 -22.828125 7.546875 -22.515625 C 7.335938 -22.210938 7.203125 -21.8125 7.140625 -21.3125 C 6.953125 -21.34375 6.753906 -21.359375 6.546875 -21.359375 C 6.347656 -21.359375 6.160156 -21.375 5.984375 -21.40625 C 6.015625 -21.988281 6.148438 -22.492188 6.390625 -22.921875 C 6.640625 -23.359375 6.945312 -23.722656 7.3125 -24.015625 C 7.6875 -24.316406 8.101562 -24.535156 8.5625 -24.671875 C 9.03125 -24.804688 9.484375 -24.875 9.921875 -24.875 C 10.566406 -24.875 11.160156 -24.726562 11.703125 -24.4375 C 12.242188 -24.144531 12.757812 -23.738281 13.25 -23.21875 C 13.75 -22.6875 14.179688 -22.335938 14.546875 -22.171875 C 14.921875 -22.003906 15.320312 -21.921875 15.75 -21.921875 C 15.96875 -21.921875 16.234375 -21.953125 16.546875 -22.015625 C 16.859375 -22.078125 17.148438 -22.191406 17.421875 -22.359375 C 17.703125 -22.523438 17.941406 -22.757812 18.140625 -23.0625 C 18.347656 -23.375 18.476562 -23.78125 18.53125 -24.28125 C 18.75 -24.25 18.957031 -24.234375 19.15625 -24.234375 C 19.363281 -24.234375 19.5625 -24.21875 19.75 -24.1875 C 19.71875 -23.601562 19.578125 -23.09375 19.328125 -22.65625 C 19.078125 -22.226562 18.765625 -21.863281 18.390625 -21.5625 C 18.023438 -21.269531 17.609375 -21.054688 17.140625 -20.921875 C 16.679688 -20.785156 16.234375 -20.71875 15.796875 -20.71875 C 15.148438 -20.71875 14.554688 -20.863281 14.015625 -21.15625 C 13.472656 -21.445312 12.941406 -21.851562 12.421875 -22.375 Z M 12.421875 -22.375 "/></g></g></g><g fill="#000000" fill-opacity="1"><g transform="translate(255.19375, 158.624805)"><g><path d="M 1.671875 -8.71875 C 1.671875 -9.945312 1.910156 -11.117188 2.390625 -12.234375 C 2.867188 -13.347656 3.515625 -14.3125 4.328125 -15.125 C 5.148438 -15.945312 6.109375 -16.597656 7.203125 -17.078125 C 8.304688 -17.554688 9.488281 -17.796875 10.75 -17.796875 C 12.019531 -17.796875 13.207031 -17.554688 14.3125 -17.078125 C 15.425781 -16.597656 16.398438 -15.945312 17.234375 -15.125 C 18.066406 -14.3125 18.722656 -13.347656 19.203125 -12.234375 C 19.679688 -11.117188 19.921875 -9.945312 19.921875 -8.71875 C 19.921875 -7.445312 19.679688 -6.257812 19.203125 -5.15625 C 18.722656 -4.0625 18.066406 -3.113281 17.234375 -2.3125 C 16.398438 -1.507812 15.425781 -0.867188 14.3125 -0.390625 C 13.207031 0.0859375 12.019531 0.328125 10.75 0.328125 C 9.488281 0.328125 8.304688 0.0859375 7.203125 -0.390625 C 6.109375 -0.867188 5.148438 -1.507812 4.328125 -2.3125 C 3.515625 -3.113281 2.867188 -4.0625 2.390625 -5.15625 C 1.910156 -6.257812 1.671875 -7.445312 1.671875 -8.71875 Z M 3.5625 -8.71875 C 3.5625 -7.726562 3.75 -6.800781 4.125 -5.9375 C 4.5 -5.070312 5.007812 -4.3125 5.65625 -3.65625 C 6.300781 -3.007812 7.054688 -2.5 7.921875 -2.125 C 8.785156 -1.757812 9.710938 -1.578125 10.703125 -1.578125 C 11.691406 -1.578125 12.625 -1.757812 13.5 -2.125 C 14.382812 -2.5 15.148438 -3.007812 15.796875 -3.65625 C 16.453125 -4.3125 16.960938 -5.070312 17.328125 -5.9375 C 17.703125 -6.800781 17.890625 -7.726562 17.890625 -8.71875 C 17.890625 -9.707031 17.703125 -10.632812 17.328125 -11.5 C 16.960938 -12.363281 16.453125 -13.117188 15.796875 -13.765625 C 15.148438 -14.410156 14.382812 -14.925781 13.5 -15.3125 C 12.625 -15.695312 11.691406 -15.890625 10.703125 -15.890625 C 9.710938 -15.890625 8.785156 -15.695312 7.921875 -15.3125 C 7.054688 -14.925781 6.300781 -14.410156 5.65625 -13.765625 C 5.007812 -13.117188 4.5 -12.363281 4.125 -11.5 C 3.75 -10.632812 3.5625 -9.707031 3.5625 -8.71875 Z M 3.5625 -8.71875 "/></g></g></g><g fill="#000000" fill-opacity="1"><g transform="translate(276.749389, 158.624805)"><g/></g></g><g fill="#000000" fill-opacity="1"><g transform="translate(111.906435, 182.599963)"><g><path d="M 0.453125 -1.015625 L 1.015625 -1.015625 L 1.015625 -7.9375 L 0.453125 -7.9375 L 0.453125 -8.953125 L 3.359375 -8.953125 C 3.773438 -8.953125 4.15625 -8.90625 4.5 -8.8125 C 4.84375 -8.726562 5.132812 -8.597656 5.375 -8.421875 C 5.625 -8.242188 5.816406 -8.007812 5.953125 -7.71875 C 6.085938 -7.4375 6.15625 -7.097656 6.15625 -6.703125 C 6.15625 -6.179688 6.03125 -5.71875 5.78125 -5.3125 C 5.53125 -4.914062 5.148438 -4.644531 4.640625 -4.5 C 4.878906 -4.445312 5.109375 -4.359375 5.328125 -4.234375 C 5.554688 -4.117188 5.753906 -3.96875 5.921875 -3.78125 C 6.085938 -3.59375 6.222656 -3.375 6.328125 -3.125 C 6.429688 -2.882812 6.484375 -2.609375 6.484375 -2.296875 C 6.484375 -1.910156 6.398438 -1.578125 6.234375 -1.296875 C 6.078125 -1.015625 5.863281 -0.773438 5.59375 -0.578125 C 5.320312 -0.390625 5.007812 -0.242188 4.65625 -0.140625 C 4.3125 -0.046875 3.957031 0 3.59375 0 L 0.453125 0 Z M 2.078125 -4 L 2.078125 -1.015625 L 3.5 -1.015625 C 3.757812 -1.015625 4.003906 -1.039062 4.234375 -1.09375 C 4.472656 -1.15625 4.675781 -1.25 4.84375 -1.375 C 5.019531 -1.5 5.160156 -1.648438 5.265625 -1.828125 C 5.367188 -2.003906 5.421875 -2.21875 5.421875 -2.46875 C 5.421875 -2.726562 5.359375 -2.957031 5.234375 -3.15625 C 5.117188 -3.351562 4.960938 -3.515625 4.765625 -3.640625 C 4.578125 -3.765625 4.351562 -3.851562 4.09375 -3.90625 C 3.84375 -3.96875 3.585938 -4 3.328125 -4 Z M 2.078125 -7.9375 L 2.078125 -5.015625 L 3.46875 -5.015625 C 3.96875 -5.015625 4.363281 -5.15625 4.65625 -5.4375 C 4.945312 -5.71875 5.09375 -6.085938 5.09375 -6.546875 C 5.09375 -7.046875 4.9375 -7.398438 4.625 -7.609375 C 4.320312 -7.828125 3.925781 -7.9375 3.4375 -7.9375 Z M 2.078125 -7.9375 "/></g></g></g><g fill="#000000" fill-opacity="1"><g transform="translate(120.784544, 182.599963)"><g><path d="M 0.453125 -1.015625 L 1.5 -1.015625 C 2.082031 -2.421875 2.671875 -3.8125 3.265625 -5.1875 C 3.859375 -6.5625 4.445312 -7.953125 5.03125 -9.359375 C 5.625 -7.953125 6.210938 -6.5625 6.796875 -5.1875 C 7.390625 -3.8125 7.984375 -2.421875 8.578125 -1.015625 L 9.625 -1.015625 L 9.625 0 L 6.78125 0 L 6.78125 -1.015625 L 7.5 -1.015625 C 7.320312 -1.441406 7.144531 -1.863281 6.96875 -2.28125 C 6.789062 -2.695312 6.613281 -3.117188 6.4375 -3.546875 L 3.625 -3.546875 L 2.5625 -1.015625 L 3.28125 -1.015625 L 3.28125 0 L 0.453125 0 Z M 5.15625 -6.578125 L 5.015625 -7 C 5.015625 -6.988281 5.007812 -6.957031 5 -6.90625 C 4.988281 -6.863281 4.972656 -6.820312 4.953125 -6.78125 C 4.941406 -6.71875 4.921875 -6.648438 4.890625 -6.578125 C 4.785156 -6.335938 4.6875 -6.097656 4.59375 -5.859375 C 4.5 -5.648438 4.40625 -5.425781 4.3125 -5.1875 C 4.21875 -4.945312 4.132812 -4.734375 4.0625 -4.546875 L 6 -4.546875 Z M 5.15625 -6.578125 "/></g></g></g><g fill="#000000" fill-opacity="1"><g transform="translate(132.804289, 182.599963)"><g><path d="M 0.453125 -1.015625 L 1.015625 -1.015625 L 1.015625 -7.9375 L 0.453125 -7.9375 L 0.453125 -8.953125 L 3.125 -8.953125 C 3.414062 -8.953125 3.738281 -8.90625 4.09375 -8.8125 C 4.445312 -8.71875 4.773438 -8.570312 5.078125 -8.375 C 5.390625 -8.1875 5.644531 -7.9375 5.84375 -7.625 C 6.050781 -7.320312 6.15625 -6.953125 6.15625 -6.515625 C 6.15625 -5.878906 5.992188 -5.34375 5.671875 -4.90625 C 5.359375 -4.476562 4.894531 -4.195312 4.28125 -4.0625 L 5.71875 -1.015625 L 6.921875 -1.015625 L 6.921875 0 L 5.046875 0 L 3.171875 -3.984375 L 2.078125 -3.984375 L 2.078125 -1.015625 L 3.546875 -1.015625 L 3.546875 0 L 0.453125 0 Z M 2.078125 -5.015625 L 3.1875 -5.015625 C 3.5625 -5.015625 3.867188 -5.0625 4.109375 -5.15625 C 4.359375 -5.25 4.554688 -5.367188 4.703125 -5.515625 C 4.847656 -5.660156 4.945312 -5.820312 5 -6 C 5.0625 -6.1875 5.09375 -6.359375 5.09375 -6.515625 C 5.09375 -6.703125 5.046875 -6.878906 4.953125 -7.046875 C 4.859375 -7.222656 4.726562 -7.375 4.5625 -7.5 C 4.394531 -7.632812 4.191406 -7.738281 3.953125 -7.8125 C 3.722656 -7.894531 3.472656 -7.9375 3.203125 -7.9375 L 2.078125 -7.9375 Z M 2.078125 -5.015625 "/></g></g></g><g fill="#000000" fill-opacity="1"><g transform="translate(142.116603, 182.599963)"><g><path d="M 0.671875 -1.875 L 0.671875 -2.921875 L 3.03125 -2.921875 L 3.03125 -1.875 Z M 0.671875 -1.875 "/></g></g></g><g fill="#000000" fill-opacity="1"><g transform="translate(147.904149, 182.599963)"><g><path d="M 0.453125 -1.015625 L 1.015625 -1.015625 L 1.015625 -7.9375 L 0.453125 -7.9375 L 0.453125 -8.953125 L 3.125 -8.953125 C 3.414062 -8.953125 3.738281 -8.90625 4.09375 -8.8125 C 4.445312 -8.71875 4.773438 -8.570312 5.078125 -8.375 C 5.390625 -8.1875 5.644531 -7.9375 5.84375 -7.625 C 6.050781 -7.320312 6.15625 -6.953125 6.15625 -6.515625 C 6.15625 -5.878906 5.992188 -5.34375 5.671875 -4.90625 C 5.359375 -4.476562 4.894531 -4.195312 4.28125 -4.0625 L 5.71875 -1.015625 L 6.921875 -1.015625 L 6.921875 0 L 5.046875 0 L 3.171875 -3.984375 L 2.078125 -3.984375 L 2.078125 -1.015625 L 3.546875 -1.015625 L 3.546875 0 L 0.453125 0 Z M 2.078125 -5.015625 L 3.1875 -5.015625 C 3.5625 -5.015625 3.867188 -5.0625 4.109375 -5.15625 C 4.359375 -5.25 4.554688 -5.367188 4.703125 -5.515625 C 4.847656 -5.660156 4.945312 -5.820312 5 -6 C 5.0625 -6.1875 5.09375 -6.359375 5.09375 -6.515625 C 5.09375 -6.703125 5.046875 -6.878906 4.953125 -7.046875 C 4.859375 -7.222656 4.726562 -7.375 4.5625 -7.5 C 4.394531 -7.632812 4.191406 -7.738281 3.953125 -7.8125 C 3.722656 -7.894531 3.472656 -7.9375 3.203125 -7.9375 L 2.078125 -7.9375 Z M 2.078125 -5.015625 "/></g></g></g><g fill="#000000" fill-opacity="1"><g transform="translate(157.216464, 182.599963)"><g><path d="M 0.453125 -1.015625 L 1.453125 -1.015625 L 1.453125 -7.9375 L 0.453125 -7.9375 L 0.453125 -8.953125 L 3.546875 -8.953125 L 3.546875 -7.9375 L 2.515625 -7.9375 L 2.515625 -1.015625 L 3.546875 -1.015625 L 3.546875 0 L 0.453125 0 Z M 0.453125 -1.015625 "/></g></g></g><g fill="#000000" fill-opacity="1"><g transform="translate(163.157252, 182.599963)"><g><path d="M 0.265625 -1.1875 L 0.265625 -2.671875 L 1.28125 -2.671875 L 1.28125 -1.53125 C 1.5 -1.363281 1.757812 -1.21875 2.0625 -1.09375 C 2.375 -0.96875 2.722656 -0.90625 3.109375 -0.90625 C 3.328125 -0.90625 3.535156 -0.9375 3.734375 -1 C 3.941406 -1.0625 4.125 -1.15625 4.28125 -1.28125 C 4.445312 -1.40625 4.578125 -1.5625 4.671875 -1.75 C 4.765625 -1.9375 4.8125 -2.15625 4.8125 -2.40625 C 4.8125 -2.84375 4.707031 -3.179688 4.5 -3.421875 C 4.289062 -3.660156 4.03125 -3.84375 3.71875 -3.96875 C 3.414062 -4.101562 3.085938 -4.21875 2.734375 -4.3125 C 2.378906 -4.40625 2.046875 -4.535156 1.734375 -4.703125 C 1.421875 -4.867188 1.160156 -5.09375 0.953125 -5.375 C 0.742188 -5.664062 0.632812 -6.078125 0.625 -6.609375 C 0.613281 -6.890625 0.648438 -7.171875 0.734375 -7.453125 C 0.828125 -7.734375 0.96875 -7.988281 1.15625 -8.21875 C 1.351562 -8.445312 1.613281 -8.632812 1.9375 -8.78125 C 2.257812 -8.925781 2.65625 -9 3.125 -9 C 3.28125 -9 3.445312 -8.988281 3.625 -8.96875 C 3.800781 -8.957031 3.988281 -8.925781 4.1875 -8.875 C 4.382812 -8.820312 4.585938 -8.742188 4.796875 -8.640625 C 5.003906 -8.535156 5.210938 -8.398438 5.421875 -8.234375 L 5.421875 -6.984375 L 4.40625 -6.984375 L 4.40625 -7.734375 C 4.25 -7.796875 4.0625 -7.851562 3.84375 -7.90625 C 3.632812 -7.957031 3.398438 -7.984375 3.140625 -7.984375 C 2.648438 -7.984375 2.285156 -7.84375 2.046875 -7.5625 C 1.804688 -7.28125 1.6875 -6.945312 1.6875 -6.5625 C 1.6875 -6.3125 1.742188 -6.109375 1.859375 -5.953125 C 1.984375 -5.796875 2.144531 -5.660156 2.34375 -5.546875 C 2.539062 -5.441406 2.765625 -5.347656 3.015625 -5.265625 C 3.265625 -5.191406 3.519531 -5.109375 3.78125 -5.015625 C 4.039062 -4.929688 4.296875 -4.828125 4.546875 -4.703125 C 4.796875 -4.585938 5.019531 -4.425781 5.21875 -4.21875 C 5.414062 -4.019531 5.570312 -3.773438 5.6875 -3.484375 C 5.800781 -3.191406 5.859375 -2.828125 5.859375 -2.390625 C 5.859375 -2.003906 5.785156 -1.65625 5.640625 -1.34375 C 5.503906 -1.039062 5.316406 -0.78125 5.078125 -0.5625 C 4.835938 -0.351562 4.554688 -0.1875 4.234375 -0.0625 C 3.910156 0.0507812 3.566406 0.109375 3.203125 0.109375 C 2.878906 0.109375 2.5625 0.0703125 2.25 0 C 1.945312 -0.0703125 1.664062 -0.164062 1.40625 -0.28125 C 1.15625 -0.40625 0.929688 -0.546875 0.734375 -0.703125 C 0.535156 -0.859375 0.378906 -1.019531 0.265625 -1.1875 Z M 0.265625 -1.1875 "/></g></g></g><g fill="#000000" fill-opacity="1"><g transform="translate(171.218026, 182.599963)"><g><path d="M 2.359375 -1.015625 L 3.46875 -1.015625 L 3.46875 -7.9375 L 1.453125 -7.9375 L 1.453125 -6.984375 L 0.453125 -6.984375 L 0.453125 -8.953125 L 7.515625 -8.953125 L 7.515625 -6.984375 L 6.5 -6.984375 L 6.5 -7.9375 L 4.53125 -7.9375 L 4.53125 -1.015625 L 5.453125 -1.015625 L 5.453125 0 L 2.359375 0 Z M 2.359375 -1.015625 "/></g></g></g><g fill="#000000" fill-opacity="1"><g transform="translate(181.130566, 182.599963)"><g><path d="M 0.453125 -4.453125 C 0.453125 -5.078125 0.566406 -5.664062 0.796875 -6.21875 C 1.035156 -6.78125 1.363281 -7.269531 1.78125 -7.6875 C 2.195312 -8.113281 2.679688 -8.445312 3.234375 -8.6875 C 3.785156 -8.925781 4.378906 -9.046875 5.015625 -9.046875 C 5.628906 -9.046875 6.21875 -8.925781 6.78125 -8.6875 C 7.34375 -8.445312 7.832031 -8.113281 8.25 -7.6875 C 8.664062 -7.269531 8.992188 -6.78125 9.234375 -6.21875 C 9.472656 -5.664062 9.59375 -5.078125 9.59375 -4.453125 C 9.59375 -3.828125 9.472656 -3.238281 9.234375 -2.6875 C 8.992188 -2.132812 8.664062 -1.648438 8.25 -1.234375 C 7.832031 -0.816406 7.34375 -0.488281 6.78125 -0.25 C 6.21875 -0.0078125 5.628906 0.109375 5.015625 0.109375 C 4.378906 0.109375 3.785156 -0.0078125 3.234375 -0.25 C 2.679688 -0.488281 2.195312 -0.816406 1.78125 -1.234375 C 1.363281 -1.648438 1.035156 -2.132812 0.796875 -2.6875 C 0.566406 -3.238281 0.453125 -3.828125 0.453125 -4.453125 Z M 1.515625 -4.453125 C 1.515625 -3.960938 1.601562 -3.5 1.78125 -3.0625 C 1.96875 -2.632812 2.21875 -2.257812 2.53125 -1.9375 C 2.851562 -1.625 3.226562 -1.375 3.65625 -1.1875 C 4.082031 -1 4.535156 -0.90625 5.015625 -0.90625 C 5.503906 -0.90625 5.960938 -1 6.390625 -1.1875 C 6.816406 -1.375 7.1875 -1.625 7.5 -1.9375 C 7.820312 -2.257812 8.070312 -2.632812 8.25 -3.0625 C 8.4375 -3.5 8.53125 -3.960938 8.53125 -4.453125 C 8.53125 -4.953125 8.4375 -5.414062 8.25 -5.84375 C 8.070312 -6.28125 7.820312 -6.660156 7.5 -6.984375 C 7.1875 -7.304688 6.816406 -7.5625 6.390625 -7.75 C 5.960938 -7.9375 5.503906 -8.03125 5.015625 -8.03125 C 4.535156 -8.03125 4.082031 -7.9375 3.65625 -7.75 C 3.226562 -7.5625 2.851562 -7.304688 2.53125 -6.984375 C 2.21875 -6.660156 1.96875 -6.28125 1.78125 -5.84375 C 1.601562 -5.414062 1.515625 -4.953125 1.515625 -4.453125 Z M 1.515625 -4.453125 "/></g></g></g><g fill="#000000" fill-opacity="1"><g transform="translate(193.124772, 182.599963)"><g><path d="M 0.453125 -1.015625 L 1.015625 -1.015625 L 1.015625 -7.9375 L 0.453125 -7.9375 L 0.453125 -8.953125 L 3.125 -8.953125 C 3.414062 -8.953125 3.738281 -8.90625 4.09375 -8.8125 C 4.445312 -8.71875 4.773438 -8.570312 5.078125 -8.375 C 5.390625 -8.1875 5.644531 -7.9375 5.84375 -7.625 C 6.050781 -7.320312 6.15625 -6.953125 6.15625 -6.515625 C 6.15625 -5.878906 5.992188 -5.34375 5.671875 -4.90625 C 5.359375 -4.476562 4.894531 -4.195312 4.28125 -4.0625 L 5.71875 -1.015625 L 6.921875 -1.015625 L 6.921875 0 L 5.046875 0 L 3.171875 -3.984375 L 2.078125 -3.984375 L 2.078125 -1.015625 L 3.546875 -1.015625 L 3.546875 0 L 0.453125 0 Z M 2.078125 -5.015625 L 3.1875 -5.015625 C 3.5625 -5.015625 3.867188 -5.0625 4.109375 -5.15625 C 4.359375 -5.25 4.554688 -5.367188 4.703125 -5.515625 C 4.847656 -5.660156 4.945312 -5.820312 5 -6 C 5.0625 -6.1875 5.09375 -6.359375 5.09375 -6.515625 C 5.09375 -6.703125 5.046875 -6.878906 4.953125 -7.046875 C 4.859375 -7.222656 4.726562 -7.375 4.5625 -7.5 C 4.394531 -7.632812 4.191406 -7.738281 3.953125 -7.8125 C 3.722656 -7.894531 3.472656 -7.9375 3.203125 -7.9375 L 2.078125 -7.9375 Z M 2.078125 -5.015625 "/></g></g></g><g fill="#000000" fill-opacity="1"><g transform="translate(202.437083, 182.599963)"><g><path d="M 0.453125 -1.015625 L 1.5 -1.015625 C 2.082031 -2.421875 2.671875 -3.8125 3.265625 -5.1875 C 3.859375 -6.5625 4.445312 -7.953125 5.03125 -9.359375 C 5.625 -7.953125 6.210938 -6.5625 6.796875 -5.1875 C 7.390625 -3.8125 7.984375 -2.421875 8.578125 -1.015625 L 9.625 -1.015625 L 9.625 0 L 6.78125 0 L 6.78125 -1.015625 L 7.5 -1.015625 C 7.320312 -1.441406 7.144531 -1.863281 6.96875 -2.28125 C 6.789062 -2.695312 6.613281 -3.117188 6.4375 -3.546875 L 3.625 -3.546875 L 2.5625 -1.015625 L 3.28125 -1.015625 L 3.28125 0 L 0.453125 0 Z M 5.15625 -6.578125 L 5.015625 -7 C 5.015625 -6.988281 5.007812 -6.957031 5 -6.90625 C 4.988281 -6.863281 4.972656 -6.820312 4.953125 -6.78125 C 4.941406 -6.71875 4.921875 -6.648438 4.890625 -6.578125 C 4.785156 -6.335938 4.6875 -6.097656 4.59375 -5.859375 C 4.5 -5.648438 4.40625 -5.425781 4.3125 -5.1875 C 4.21875 -4.945312 4.132812 -4.734375 4.0625 -4.546875 L 6 -4.546875 Z M 5.15625 -6.578125 "/></g></g></g><g fill="#000000" fill-opacity="1"><g transform="translate(214.456825, 182.599963)"><g><path d="M 0.453125 -1.015625 L 1.5625 -1.015625 L 1.5625 -7.9375 L 0.453125 -7.9375 L 0.453125 -8.953125 L 1.9375 -8.953125 L 8.109375 -2.265625 L 8.34375 -1.9375 L 8.3125 -2.34375 L 8.3125 -7.9375 L 7.390625 -7.9375 L 7.390625 -8.953125 L 10.484375 -8.953125 L 10.484375 -7.9375 L 9.375 -7.9375 L 9.375 0.40625 L 2.828125 -6.546875 L 2.578125 -6.875 L 2.625 -6.46875 L 2.625 -1.015625 L 3.546875 -1.015625 L 3.546875 0 L 0.453125 0 Z M 0.453125 -1.015625 "/></g></g></g><g fill="#000000" fill-opacity="1"><g transform="translate(227.332222, 182.599963)"><g><path d="M 2.359375 -1.015625 L 3.46875 -1.015625 L 3.46875 -7.9375 L 1.453125 -7.9375 L 1.453125 -6.984375 L 0.453125 -6.984375 L 0.453125 -8.953125 L 7.515625 -8.953125 L 7.515625 -6.984375 L 6.5 -6.984375 L 6.5 -7.9375 L 4.53125 -7.9375 L 4.53125 -1.015625 L 5.453125 -1.015625 L 5.453125 0 L 2.359375 0 Z M 2.359375 -1.015625 "/></g></g></g><g fill="#000000" fill-opacity="1"><g transform="translate(237.244763, 182.599963)"><g><path d="M 0.453125 -1.015625 L 1.15625 -1.015625 L 1.15625 -7.9375 L 0.453125 -7.9375 L 0.453125 -8.953125 L 6.671875 -8.953125 L 6.671875 -6.984375 L 5.65625 -6.984375 L 5.65625 -7.9375 L 2.21875 -7.9375 L 2.21875 -5.015625 L 6.171875 -5.015625 L 6.171875 -4 L 2.21875 -4 L 2.21875 -1.015625 L 5.84375 -1.015625 L 5.84375 -1.96875 L 6.84375 -1.96875 L 6.84375 0 L 0.453125 0 Z M 0.453125 -1.015625 "/></g></g></g><path stroke-linecap="butt" transform="matrix(-0.0969167, -0.22115, 0.22115, -0.0969167, 312.11852, 170.538241)" fill="none" stroke-linejoin="miter" d="M 0.0034105 0.507707 L 190.825448 0.497503 " stroke="#000000" stroke-width="1" stroke-opacity="1" stroke-miterlimit="4"/><path stroke-linecap="butt" transform="matrix(0.206376, -0.125336, 0.125336, 0.206376, 276.908336, 171.22909)" fill="none" stroke-linejoin="miter" d="M 0.00638016 0.502678 L 79.708101 0.508498 " stroke="#000000" stroke-width="1" stroke-opacity="1" stroke-miterlimit="4"/><path stroke-linecap="butt" transform="matrix(0.218261, 0.103258, -0.103258, 0.218261, 292.890571, 161.208066)" fill="none" stroke-linejoin="miter" d="M 0.00197768 0.495444 L 88.847401 0.503414 " stroke="#000000" stroke-width="1" stroke-opacity="1" stroke-miterlimit="4"/><path stroke-linecap="butt" transform="matrix(0.00777437, -0.241329, 0.241329, 0.00777437, 292.716811, 161.310957)" fill="none" stroke-linejoin="miter" d="M -0.00667274 0.493843 L 136.946964 0.500797 " stroke="#000000" stroke-width="1" stroke-opacity="1" stroke-miterlimit="4"/><g clip-path="url(#32abf88dbf)"><g clip-path="url(#f26558c806)"><path fill="#000000" d="M 298.808594 155.585938 L 300.980469 155.585938 L 300.980469 158.199219 L 298.808594 158.199219 Z M 298.808594 155.585938 " fill-opacity="1" fill-rule="nonzero"/></g></g><g clip-path="url(#795e156577)"><g clip-path="url(#59864a030e)"><path fill="#000000" d="M 293.472656 146.484375 L 303.878906 146.484375 L 303.878906 162.863281 L 293.472656 162.863281 Z M 293.472656 146.484375 " fill-opacity="1" fill-rule="nonzero"/></g></g><g clip-path="url(#d432097801)"><g clip-path="url(#dfc8dfe74b)"><path fill="#000000" d="M 292.484375 132.363281 L 311.269531 132.363281 L 311.269531 169.785156 L 292.484375 169.785156 Z M 292.484375 132.363281 " fill-opacity="1" fill-rule="nonzero"/></g></g><path stroke-linecap="butt" transform="matrix(0.0980643, 0.220643, -0.220643, 0.0980643, 293.913969, 128.092156)" fill="none" stroke-linejoin="miter" d="M 0.00290064 2.001411 L 191.27743 1.99863 " stroke="#000000" stroke-width="4" stroke-opacity="1" stroke-miterlimit="4"/><path stroke-linecap="butt" transform="matrix(0.00766491, -0.241332, 0.241332, 0.00766491, 292.837896, 161.276387)" fill="none" stroke-linejoin="miter" d="M -0.00521487 1.99914 L 127.39635 1.999311 " stroke="#000000" stroke-width="4" stroke-opacity="1" stroke-miterlimit="4"/><path stroke-linecap="butt" transform="matrix(0.218191, 0.103406, -0.103406, 0.218191, 293.36477, 160.291206)" fill="none" stroke-linejoin="miter" d="M -0.00821321 1.999193 L 87.410536 1.99674 " stroke="#000000" stroke-width="4" stroke-opacity="1" stroke-miterlimit="4"/><g clip-path="url(#cd5b075298)"><g clip-path="url(#06e201cc19)"><path fill="#000000" d="M 293.519531 157.75 L 300.261719 157.75 L 300.261719 162.375 L 293.519531 162.375 Z M 293.519531 157.75 " fill-opacity="1" fill-rule="nonzero"/></g></g><g clip-path="url(#2e8b0fbb98)"><g clip-path="url(#40a70928a9)"><path fill="#000000" d="M 308.105469 165.589844 L 311.363281 165.589844 L 311.363281 169.523438 L 308.105469 169.523438 Z M 308.105469 165.589844 " fill-opacity="1" fill-rule="nonzero"/></g></g><g clip-path="url(#0b03060d8b)"><g clip-path="url(#8d8f393941)"><path fill="#000000" d="M 308.613281 166.011719 L 311.871094 166.011719 L 311.871094 169.945312 L 308.613281 169.945312 Z M 308.613281 166.011719 " fill-opacity="1" fill-rule="nonzero"/></g></g><g clip-path="url(#33a31705b3)"><g clip-path="url(#41c0ea88df)"><path fill="#000000" d="M 308.878906 166.429688 L 312.136719 166.429688 L 312.136719 170.367188 L 308.878906 170.367188 Z M 308.878906 166.429688 " fill-opacity="1" fill-rule="nonzero"/></g></g><g clip-path="url(#2e05fdded6)"><g clip-path="url(#d4c413108c)"><path fill="#000000" d="M 296.175781 139.242188 L 309.433594 139.242188 L 309.433594 165.027344 L 296.175781 165.027344 Z M 296.175781 139.242188 " fill-opacity="1" fill-rule="nonzero"/></g></g><g clip-path="url(#50ee123fcd)"><g clip-path="url(#e3c927396f)"><path fill="#000000" d="M 292.894531 131.132812 L 301.851562 131.132812 L 301.851562 149.046875 L 292.894531 149.046875 Z M 292.894531 131.132812 " fill-opacity="1" fill-rule="nonzero"/></g></g><g clip-path="url(#11ee0ba09b)"><g clip-path="url(#d637cbbf1b)"><path fill="#ffffff" d="M 292.265625 125.511719 L 295.1875 125.511719 L 295.1875 132.394531 L 292.265625 132.394531 Z M 292.265625 125.511719 " fill-opacity="1" fill-rule="nonzero"/></g></g><g clip-path="url(#a02f75630f)"><g clip-path="url(#4124337e71)"><g clip-path="url(#8f3c9db303)"><path fill="#ffffff" d="M 293.015625 127.441406 L 296.039062 129.382812 L 293.300781 133.648438 L 290.277344 131.707031 Z M 293.015625 127.441406 " fill-opacity="1" fill-rule="nonzero"/></g></g></g><path stroke-linecap="butt" transform="matrix(0.0914175, -0.223479, 0.223479, 0.0914175, 276.858942, 171.286102)" fill="none" stroke-linejoin="miter" d="M -0.0038718 0.492943 L 192.044663 0.501913 " stroke="#000000" stroke-width="1" stroke-opacity="1" stroke-miterlimit="4"/></svg>