<svg xmlns="http://www.w3.org/2000/svg" xmlns:xlink="http://www.w3.org/1999/xlink" width="1280" zoomAndPan="magnify" viewBox="0 0 960 1439.999935" height="1920" preserveAspectRatio="xMidYMid meet" version="1.0"><defs><clipPath id="c5875afea0"><path d="M 918 808 L 959.636719 808 L 959.636719 851 L 918 851 Z M 918 808 " clip-rule="nonzero"/></clipPath><clipPath id="d7bee6887e"><path d="M 126 98 L 165.308594 98 L 165.308594 116 L 126 116 Z M 126 98 " clip-rule="nonzero"/></clipPath></defs><path fill="#000000" d="M 924.46875 1436.90625 C 913.660156 1413.988281 918.207031 1387.636719 917.847656 1363.183594 C 917.9375 1343.421875 908.839844 1325.191406 907.535156 1305.609375 C 906.410156 1295.097656 906.636719 1284.359375 907.894531 1273.847656 C 909.425781 1262.566406 911.902344 1251.242188 911.183594 1239.828125 C 910.554688 1230.398438 908.570312 1221.148438 907.445312 1211.761719 C 906.273438 1202.601562 906.140625 1193.308594 904.339844 1184.195312 C 902.582031 1175.621094 898.53125 1167.859375 896.367188 1159.425781 C 894.792969 1153.785156 893.9375 1147.964844 892.808594 1142.234375 C 889.386719 1126.351562 884.976562 1110.558594 877.949219 1095.941406 C 864.53125 1072.027344 847.554688 1046.039062 852.371094 1017.296875 C 857.371094 989.640625 864.304688 962.703125 868.761719 935.046875 C 871.644531 918.757812 867.816406 902.921875 864.53125 887.171875 C 860.613281 869.261719 867.726562 851.890625 866.195312 833.753906 C 865.972656 825.628906 866.105469 817.417969 864.664062 809.386719 C 862.820312 800.410156 859.9375 791.699219 858.179688 782.722656 C 855.117188 771.214844 856.199219 759.394531 856.917969 747.710938 C 857.011719 744.820312 856.875 741.933594 856.695312 739.046875 C 856.648438 738.28125 857.28125 737.648438 858 737.558594 C 858.8125 737.46875 859.621094 738.054688 859.667969 738.867188 C 860.746094 748.160156 859.035156 757.679688 859.398438 766.929688 C 860.476562 779.066406 864.933594 790.527344 868.042969 802.214844 C 871.058594 812.273438 871.105469 822.832031 871.375 833.253906 C 871.601562 840.292969 871.78125 847.378906 871.105469 854.417969 C 869.800781 865.378906 868.492188 876.480469 870.96875 887.398438 C 872.726562 897.28125 874.933594 907.160156 875.113281 917.222656 C 875.292969 931.480469 872.726562 945.558594 870.292969 959.546875 C 866.511719 979.488281 862.007812 999.476562 858.269531 1019.417969 C 854.667969 1045.8125 869.664062 1069.953125 881.957031 1091.96875 C 890.917969 1109.835938 896.816406 1129.691406 900.375 1149.136719 C 902.132812 1160.914062 908.167969 1171.472656 910.28125 1183.113281 C 911.589844 1190.148438 911.859375 1197.324219 912.535156 1204.453125 C 913.707031 1218.394531 917.667969 1232.066406 917.21875 1246.144531 C 916.316406 1263.695312 911.363281 1280.929688 913.164062 1298.617188 C 913.929688 1319.777344 923.746094 1339.539062 923.296875 1360.792969 C 922.800781 1385.921875 919.648438 1411.867188 927.304688 1436.277344 C 928.160156 1436.546875 928.386719 1437.628906 927.890625 1438.308594 C 926.945312 1440.019531 925.007812 1438.082031 924.46875 1436.90625 Z M 924.46875 1436.90625 " fill-opacity="1" fill-rule="nonzero"/><path fill="#000000" d="M 871.285156 918.984375 C 870.878906 915.058594 871.734375 910.90625 871.691406 906.980469 C 872.003906 893.714844 869.4375 880 874.210938 867.230469 C 876.285156 862.222656 879.570312 857.710938 881.058594 852.429688 C 882.8125 846.566406 882.949219 840.160156 886.324219 834.878906 C 886.820312 833.886719 888.441406 834.472656 888.171875 835.558594 C 887.722656 837.179688 887.453125 838.851562 887.40625 840.519531 C 887.453125 844.898438 887.179688 849.316406 886.234375 853.558594 C 884.480469 861.140625 879.347656 867.5 878.398438 875.351562 C 876.507812 886.316406 877.996094 896.738281 876.375 907.566406 C 876.195312 909.417969 873.808594 923.628906 871.285156 918.984375 Z M 871.285156 918.984375 " fill-opacity="1" fill-rule="nonzero"/><path fill="#000000" d="M 852.507812 1039.8125 C 850.929688 1033.902344 849.128906 1028.351562 846.15625 1023.117188 C 843.769531 1018.785156 839.71875 1015.671875 837.285156 1011.34375 C 835.125 1007.824219 833.636719 1003.941406 832.242188 1000.0625 C 830.171875 994.46875 829.179688 988.464844 826.972656 982.917969 C 821.660156 971.410156 810.625 963.019531 807.789062 950.207031 C 807.789062 949.617188 807.609375 949.121094 808.015625 948.714844 C 808.554688 948.265625 809.367188 948.804688 809.230469 949.4375 C 812.203125 953.949219 815.175781 958.460938 818.6875 962.476562 C 822.875 967.171875 827.46875 971.589844 830.441406 977.230469 C 835.167969 985.847656 835.574219 995.234375 839.222656 1004.078125 C 842.105469 1011.34375 847.507812 1016.667969 850.34375 1023.929688 C 852.507812 1028.847656 853.859375 1034.128906 855.027344 1039.269531 C 855.34375 1040.667969 853.003906 1041.300781 852.507812 1039.8125 Z M 852.507812 1039.8125 " fill-opacity="1" fill-rule="nonzero"/><path fill="#000000" d="M 911.859375 1222.320312 C 909.921875 1221.011719 908.84375 1218.078125 907.761719 1216.320312 C 906.636719 1214.242188 905.417969 1212.167969 904.203125 1210.09375 C 897.71875 1199.355469 892.042969 1187.984375 889.613281 1175.578125 C 887.316406 1165.46875 887.632812 1155.046875 887.496094 1144.714844 C 887.722656 1132.125 890.648438 1119.71875 890.785156 1107.128906 C 891.1875 1094.363281 888.757812 1081.910156 887.226562 1069.320312 C 886.820312 1058.898438 888.308594 1048.386719 891.371094 1038.457031 C 892.40625 1036.382812 891.953125 1032.820312 894.703125 1032.730469 C 895.691406 1032.820312 896.59375 1033.765625 896.457031 1034.804688 C 896.007812 1037.691406 895.691406 1040.625 895.152344 1043.511719 C 893.664062 1051.453125 892.449219 1059.394531 892.136719 1067.425781 C 892.179688 1079.609375 894.207031 1091.746094 893.664062 1103.925781 C 893.351562 1119.582031 892.226562 1135.148438 893.125 1150.804688 C 893.351562 1163.53125 894.703125 1176.34375 899.386719 1188.210938 C 902.582031 1195.566406 906.679688 1202.511719 910.101562 1209.730469 C 911.769531 1213.296875 913.523438 1217.132812 913.300781 1221.191406 C 913.75 1222.140625 912.535156 1222.953125 911.859375 1222.320312 Z M 911.859375 1222.320312 " fill-opacity="1" fill-rule="nonzero"/><path fill="#000000" d="M 910.328125 1315.085938 C 900.511719 1306.785156 901.050781 1291.308594 894.476562 1280.703125 C 892.269531 1277.003906 890.378906 1272.898438 887.136719 1269.921875 C 883.21875 1266.445312 878.535156 1264.011719 874.574219 1260.582031 C 869.035156 1255.078125 863.855469 1248.941406 859.890625 1242.21875 C 856.875 1235.765625 856.199219 1228.5 854.351562 1221.6875 C 853.722656 1219.207031 853.046875 1216.726562 852.28125 1214.289062 C 852.011719 1213.386719 853.40625 1212.933594 853.675781 1213.835938 C 854.894531 1217.449219 856.199219 1221.011719 857.503906 1224.621094 C 859.710938 1230.351562 861.152344 1236.53125 864.574219 1241.675781 C 868.71875 1247.046875 873.355469 1251.785156 878.355469 1256.113281 C 881.957031 1258.867188 886.054688 1261.03125 889.566406 1263.875 C 896.636719 1269.515625 900.464844 1278.359375 903.753906 1286.570312 C 906.363281 1294.285156 908.121094 1302.316406 910.957031 1309.941406 C 911.410156 1311.386719 911.949219 1312.558594 912.355469 1313.914062 C 912.578125 1314.859375 911.226562 1315.492188 910.328125 1315.085938 Z M 910.328125 1315.085938 " fill-opacity="1" fill-rule="nonzero"/><path fill="#000000" d="M 857.59375 739.089844 C 855.296875 738.683594 853.40625 737.015625 851.066406 736.699219 C 845.617188 736.429688 839.449219 737.332031 835.304688 732.820312 C 832.46875 729.347656 830.171875 725.285156 827.964844 721.40625 C 827.378906 720.546875 826.386719 720.140625 825.757812 719.328125 C 825.128906 718.5625 826.296875 717.570312 826.929688 718.335938 C 827.648438 719.238281 828.683594 719.960938 829.539062 720.546875 C 833.726562 723.707031 836.476562 729.480469 841.96875 730.429688 C 844.582031 730.96875 847.191406 730.023438 849.804688 730.203125 C 853.003906 730.292969 856.199219 731.691406 858.226562 734.21875 C 859.214844 735.390625 860.34375 737.421875 858.992188 738.730469 C 858.8125 739.226562 858.046875 739.453125 857.59375 739.089844 Z M 857.59375 739.089844 " fill-opacity="1" fill-rule="nonzero"/><path fill="#000000" d="M 853.585938 736.203125 C 836.207031 727.136719 839.761719 723.300781 838.683594 706.0625 C 837.375 702.140625 834.492188 698.800781 833.59375 694.695312 C 833.414062 693.746094 834.71875 693.386719 835.125 694.199219 C 836.207031 696.316406 837.464844 698.214844 838.726562 700.152344 C 841.203125 703.582031 843.140625 707.371094 843.589844 711.613281 C 844.535156 715.898438 844.128906 721 847.238281 724.425781 C 850.707031 727.992188 856.828125 729.707031 858.089844 735.03125 C 858.496094 737.691406 855.027344 737.332031 853.585938 736.203125 Z M 853.585938 736.203125 " fill-opacity="1" fill-rule="nonzero"/><path fill="#000000" d="M 857.414062 737.285156 C 848.273438 732.054688 856.964844 719.914062 860.386719 713.507812 C 861.964844 710.441406 862.097656 706.875 863.089844 703.628906 C 863.988281 700.515625 865.296875 697.625 866.015625 694.46875 C 866.152344 693.835938 867.1875 693.972656 867.097656 694.648438 C 866.871094 696.273438 866.78125 697.941406 866.738281 699.429688 C 866.511719 704.574219 867.546875 709.898438 866.0625 714.90625 C 864.53125 719.285156 861.964844 723.210938 860.476562 727.632812 C 858.902344 730.382812 862.324219 737.378906 857.414062 737.285156 Z M 857.414062 737.285156 " fill-opacity="1" fill-rule="nonzero"/><path fill="#000000" d="M 859.261719 739.226562 C 855.390625 737.738281 860.703125 733.496094 862.234375 732.144531 C 864.574219 729.796875 866.421875 727.042969 868.222656 724.246094 C 871.421875 718.019531 876.914062 712.246094 884.433594 712.785156 C 886.777344 712.695312 888.488281 711.34375 890.378906 710.171875 C 891.460938 709.449219 892.71875 711.117188 891.683594 711.929688 C 887.632812 715.222656 882.316406 716.667969 878.535156 720.320312 C 872.859375 727.136719 869.800781 738.683594 859.261719 739.226562 Z M 859.261719 739.226562 " fill-opacity="1" fill-rule="nonzero"/><path fill="#000000" d="M 868.582031 741.574219 C 865.027344 741.078125 859.621094 741.257812 858.089844 737.285156 C 857.957031 736.519531 858.449219 735.664062 859.214844 735.4375 C 864.394531 734.355469 869.617188 736.023438 874.796875 736.160156 C 877.273438 735.886719 879.210938 734.039062 881.28125 732.820312 C 882.8125 731.828125 886.144531 729.300781 887.226562 731.917969 C 887.542969 733.226562 885.875 733.542969 885.109375 733.949219 C 879.570312 736.835938 875.292969 743.105469 868.582031 741.574219 Z M 868.582031 741.574219 " fill-opacity="1" fill-rule="nonzero"/><path fill="#000000" d="M 885.019531 838.535156 C 883.082031 836.1875 884.027344 832.714844 883.578125 829.917969 C 882.8125 825.269531 880.875 821.207031 881.734375 816.472656 C 882.046875 810.875 885.832031 806.363281 886.820312 800.949219 C 887.226562 797.925781 887.363281 794.8125 887.585938 791.746094 C 887.585938 791.339844 887.992188 790.980469 888.398438 790.980469 C 888.847656 790.933594 889.296875 791.339844 889.296875 791.789062 C 889.253906 795.039062 889.433594 798.332031 888.9375 801.582031 C 888.035156 807.085938 885.921875 812.5 886.820312 818.1875 C 887.585938 823.464844 890.46875 828.429688 889.386719 833.933594 C 889.253906 836.054688 887.765625 840.429688 885.019531 838.535156 Z M 885.019531 838.535156 " fill-opacity="1" fill-rule="nonzero"/><path fill="#000000" d="M 885.964844 840.382812 C 882.992188 839.84375 884.613281 836.414062 886.101562 835.058594 C 890.242188 830.640625 896.367188 829.917969 901.816406 828.023438 C 904.472656 827.074219 906.636719 830.863281 904.339844 832.625 C 903.527344 833.210938 902.761719 833.796875 901.863281 834.203125 C 899.566406 835.242188 897.089844 835.511719 894.792969 836.460938 C 891.730469 837.496094 889.117188 839.886719 885.964844 840.382812 Z M 885.964844 840.382812 " fill-opacity="1" fill-rule="nonzero"/><path fill="#000000" d="M 894.117188 850.808594 C 889.207031 850.808594 886.011719 846.203125 885.605469 841.601562 C 885.425781 839.796875 885.15625 836.054688 887.765625 836.144531 C 888.578125 836.367188 889.074219 837.179688 889.433594 837.902344 C 892.136719 844.21875 892.539062 847.378906 900.464844 846.476562 C 904.652344 845.84375 908.480469 847.648438 912.265625 849.183594 C 912.667969 849.363281 912.894531 849.816406 912.757812 850.21875 C 912.128906 851.4375 910.417969 850.085938 909.5625 849.996094 C 907.851562 849.542969 906.183594 848.914062 904.472656 848.730469 C 900.917969 849.226562 897.628906 850.988281 894.117188 850.808594 Z M 894.117188 850.808594 " fill-opacity="1" fill-rule="nonzero"/><path fill="#000000" d="M 886.777344 835.558594 C 885.921875 834.699219 886.597656 833.390625 887.046875 832.488281 C 888.894531 828.925781 890.515625 825.132812 892.71875 821.796875 C 893.710938 820.894531 896.1875 818.003906 897.492188 819.359375 C 897.855469 819.765625 897.855469 820.398438 897.449219 820.804688 C 895.015625 822.742188 895.0625 825.316406 894.429688 828.066406 C 893.980469 830.097656 889.027344 837.046875 886.777344 835.558594 Z M 886.777344 835.558594 " fill-opacity="1" fill-rule="nonzero"/><path fill="#000000" d="M 796.488281 965.09375 C 791.625 964.960938 788.5625 960.539062 785.230469 957.558594 C 782.4375 954.941406 779.914062 951.785156 777.121094 949.257812 C 773.835938 946.910156 769.46875 946.730469 766.496094 943.84375 C 765.324219 942.894531 762.9375 942.082031 763.839844 940.144531 C 764.242188 939.375 765.144531 939.0625 765.957031 939.332031 C 769.378906 940.773438 772.933594 940.910156 776.492188 941.769531 C 784.6875 944.65625 788.742188 954.761719 796.308594 958.824219 C 800.449219 957.019531 800.898438 950.023438 805.628906 948.21875 C 806.933594 947.453125 809.410156 947.632812 809.457031 949.574219 C 809.050781 950.835938 807.65625 951.648438 807.113281 952.914062 C 804.367188 957.46875 802.972656 964.867188 796.488281 965.09375 Z M 796.488281 965.09375 " fill-opacity="1" fill-rule="nonzero"/><path fill="#000000" d="M 804.503906 951.0625 C 786.21875 942.082031 808.914062 930.128906 794.011719 916.09375 C 790.8125 912.800781 789.550781 908.335938 788.15625 904.09375 C 787.839844 903.144531 789.328125 902.648438 789.640625 903.597656 C 791.082031 910.09375 795.496094 914.515625 799.367188 919.613281 C 801.304688 923.269531 803.691406 927.015625 803.78125 931.300781 C 804.007812 934.863281 802.972656 938.382812 803.332031 941.902344 C 804.59375 944.25 807.476562 945.738281 807.96875 948.625 C 808.421875 950.746094 806.394531 952.191406 804.503906 951.0625 Z M 804.503906 951.0625 " fill-opacity="1" fill-rule="nonzero"/><path fill="#000000" d="M 807.925781 950.519531 C 804.097656 949.210938 809.816406 943.886719 810.808594 942.039062 C 812.382812 939.917969 814.949219 939.015625 816.929688 937.347656 C 819.226562 935.496094 819.09375 932.382812 820.578125 930.128906 C 820.9375 929.675781 821.523438 929.496094 822.066406 929.765625 C 824.136719 931.164062 819.40625 935.949219 818.644531 937.570312 C 815.984375 942.308594 814.320312 949.84375 807.925781 950.519531 Z M 807.925781 950.519531 " fill-opacity="1" fill-rule="nonzero"/><path fill="#000000" d="M 906.230469 1040.21875 C 913.75 1039.765625 920.234375 1035.886719 926.269531 1031.960938 C 933.429688 1026.816406 936.175781 1022.035156 934.601562 1013.191406 C 934.421875 1011.929688 935.457031 1010.980469 935.679688 1009.851562 C 936.625 1005.429688 935.320312 1000.785156 932.800781 997.175781 C 929.871094 993.292969 925.234375 990.453125 920.550781 989.503906 C 919.109375 989.414062 917.308594 989.277344 916.859375 987.652344 C 916.363281 984.359375 915.28125 981.246094 913.480469 978.449219 C 903.527344 965.679688 885.378906 978.945312 882.949219 991.535156 C 882.363281 993.292969 882.769531 995.234375 882.226562 996.992188 C 880.875 999.429688 877.996094 1000.828125 876.644531 1003.21875 C 872.589844 1009.628906 872.996094 1015.492188 876.777344 1021.855469 C 879.839844 1027.449219 886.324219 1031.105469 892.269531 1032.414062 C 891.59375 1030.113281 894.746094 1028.757812 895.691406 1031.105469 C 896.910156 1036.203125 901.230469 1039.496094 906.230469 1040.21875 Z M 907.039062 1045.089844 C 901.457031 1044.730469 896.050781 1041.257812 893.621094 1036.203125 C 890.109375 1038.050781 886.460938 1035.300781 883.261719 1033.902344 C 876.914062 1030.832031 873.222656 1024.699219 871.554688 1018.066406 C 869.800781 1013.6875 872.320312 1009.222656 873.714844 1005.117188 C 874.617188 1001.371094 877.726562 999.160156 880.472656 996.769531 C 875.472656 973.125 914.875 954.851562 919.605469 986.4375 C 930.007812 985.847656 938.519531 995.910156 938.246094 1005.972656 C 938.429688 1008.410156 937.886719 1010.800781 936.714844 1012.921875 C 936.808594 1014.996094 937.347656 1017.027344 937.257812 1019.101562 C 937.300781 1031.828125 918.792969 1044.683594 907.039062 1045.089844 Z M 907.039062 1045.089844 " fill-opacity="1" fill-rule="nonzero"/><path fill="#000000" d="M 903.527344 1017.476562 C 900.917969 1017.164062 901.90625 1014.183594 901.683594 1012.378906 C 901.050781 1007.507812 899.070312 1002.90625 896.414062 998.796875 C 895.152344 996.632812 898.125 996.046875 899.566406 997.039062 C 904.203125 998.257812 909.742188 1017.027344 903.527344 1017.476562 Z M 903.527344 1017.476562 " fill-opacity="1" fill-rule="nonzero"/><path fill="#000000" d="M 907.894531 1009.445312 C 906.140625 1009.355469 902.402344 1008.726562 903.257812 1006.242188 C 904.160156 1004.753906 906.09375 1004.4375 907.714844 1004.167969 C 910.238281 1003.851562 912.714844 1003.265625 915.144531 1002.542969 C 916.273438 1002.273438 917.398438 1001.957031 918.480469 1001.550781 C 920.054688 1001.007812 921.179688 1003.3125 919.738281 1004.214844 C 916.363281 1007.144531 912.535156 1009.671875 907.894531 1009.445312 Z M 907.894531 1009.445312 " fill-opacity="1" fill-rule="nonzero"/><path fill="#000000" d="M 874.03125 1047.210938 C 880.921875 1044.730469 879.929688 1034.21875 888.171875 1033.8125 C 890.421875 1033.902344 895.46875 1033.632812 895.558594 1036.835938 C 895.0625 1039.992188 891.054688 1040.21875 888.53125 1039.949219 C 884.300781 1039.632812 882.992188 1044.503906 879.929688 1046.488281 C 878.398438 1047.796875 876.464844 1048.566406 874.527344 1048.925781 C 873.671875 1048.882812 873.222656 1047.664062 874.03125 1047.210938 Z M 874.03125 1047.210938 " fill-opacity="1" fill-rule="nonzero"/><path fill="#000000" d="M 885.246094 1036.699219 C 881.371094 1036.519531 877.542969 1035.886719 873.671875 1035.617188 C 872.5 1035.527344 871.511719 1034.804688 870.835938 1033.855469 C 870.023438 1032.683594 867.90625 1031.421875 869.214844 1029.886719 C 870.789062 1028.398438 872.277344 1030.742188 873.582031 1031.511719 C 875.382812 1031.328125 877.363281 1031.375 878.851562 1031.464844 C 881.914062 1031.554688 885.921875 1031.015625 888.082031 1033.675781 C 889.253906 1035.570312 887.046875 1036.96875 885.246094 1036.699219 Z M 885.246094 1036.699219 " fill-opacity="1" fill-rule="nonzero"/><path fill="#000000" d="M 917.847656 987.96875 C 915.328125 984.902344 921.226562 982.511719 923.433594 981.609375 C 925.097656 980.75 926.222656 979.21875 927.214844 977.726562 C 927.484375 977.367188 927.980469 977.230469 928.339844 977.457031 C 928.746094 977.683594 928.882812 978.132812 928.746094 978.539062 C 928.207031 980.027344 927.53125 981.5625 926.765625 983.007812 C 925.367188 985.445312 922.304688 985.984375 920.191406 987.609375 C 919.558594 988.105469 918.570312 989.007812 917.847656 987.96875 Z M 917.847656 987.96875 " fill-opacity="1" fill-rule="nonzero"/><path fill="#000000" d="M 851.921875 1215.238281 C 851.199219 1214.335938 851.515625 1212.980469 851.875 1212.03125 C 853.363281 1208.152344 857.460938 1206.890625 860.925781 1205.535156 C 864.890625 1203.054688 866.738281 1198.40625 870.160156 1195.292969 C 872.410156 1193.082031 874.664062 1190.871094 877.140625 1188.933594 C 877.589844 1188.570312 878.21875 1188.570312 878.671875 1188.976562 C 879.121094 1189.382812 879.164062 1190.148438 878.714844 1190.601562 C 874.574219 1194.753906 872.230469 1200.617188 869.574219 1205.582031 C 867.683594 1208.785156 864.574219 1211.3125 860.882812 1212.03125 C 858.496094 1212.257812 856.335938 1213.160156 854.53125 1214.785156 C 853.902344 1215.417969 852.6875 1216.183594 851.921875 1215.238281 Z M 851.921875 1215.238281 " fill-opacity="1" fill-rule="nonzero"/><path fill="#000000" d="M 840.933594 1244.5625 C 840.527344 1240.953125 840.214844 1237.027344 841.835938 1233.644531 C 843.003906 1231.300781 844.714844 1229.359375 845.84375 1227.058594 C 847.28125 1224.035156 846.742188 1220.5625 847.371094 1217.3125 C 847.597656 1214.785156 849.175781 1211.625 852.101562 1211.851562 C 853.09375 1211.941406 854.21875 1212.753906 854.171875 1213.835938 C 853.992188 1214.648438 853.542969 1215.460938 853.183594 1216.230469 C 852.238281 1219.433594 852.460938 1222.996094 850.707031 1225.929688 C 845.257812 1232.789062 840.976562 1234.503906 842.375 1244.519531 C 842.328125 1245.375 840.976562 1245.464844 840.933594 1244.5625 Z M 840.933594 1244.5625 " fill-opacity="1" fill-rule="nonzero"/><path fill="#000000" d="M 830.484375 1226.96875 C 824.316406 1221.914062 827.917969 1211.851562 816.570312 1214.289062 C 815.398438 1214.335938 815.308594 1212.574219 816.480469 1212.484375 C 827.695312 1209.234375 826.613281 1214.695312 832.78125 1221.507812 C 837.375 1217.449219 841.652344 1211.355469 848.410156 1211.445312 C 851.019531 1211.265625 854.441406 1214.109375 851.652344 1216.363281 C 848.769531 1217.355469 845.570312 1217.945312 843.230469 1219.972656 C 839.355469 1222.050781 835.257812 1230.171875 830.484375 1226.96875 Z M 830.484375 1226.96875 " fill-opacity="1" fill-rule="nonzero"/><path fill="#000000" d="M 873.671875 1193.128906 C 872.410156 1191.277344 874.210938 1188.617188 874.933594 1186.855469 C 876.375 1183.425781 877.453125 1179.636719 876.824219 1175.9375 C 875.472656 1171.15625 871.871094 1167.410156 869.664062 1163.035156 C 865.972656 1153.105469 854.398438 1147.421875 844.582031 1151.664062 C 835.664062 1155.003906 830.035156 1161.859375 829.269531 1171.425781 C 829.136719 1172.328125 829.226562 1173.773438 827.964844 1173.726562 C 827.378906 1173.679688 826.972656 1173.140625 827.019531 1172.597656 C 827.378906 1164.523438 830.574219 1156.175781 838.140625 1152.386719 C 852.417969 1142.683594 869.84375 1148.777344 874.796875 1165.378906 C 876.195312 1169.035156 878.21875 1172.507812 879.121094 1176.34375 C 879.300781 1180.132812 879.03125 1184.148438 877.996094 1187.847656 C 877.542969 1189.023438 875.339844 1194.976562 873.671875 1193.128906 Z M 873.671875 1193.128906 " fill-opacity="1" fill-rule="nonzero"/><path fill="#000000" d="M 801.710938 1201.519531 C 794.191406 1194.976562 788.605469 1185.1875 790.136719 1174.945312 C 791.578125 1166.550781 797.296875 1158.207031 805.898438 1156.21875 C 811.03125 1153.738281 816.617188 1151.121094 822.515625 1152.113281 C 825.894531 1152.699219 829.449219 1153.695312 831.835938 1156.355469 C 832.691406 1157.03125 833.953125 1158.519531 832.378906 1159.152344 C 829.945312 1159.242188 828.144531 1156.402344 825.800781 1155.996094 C 820.984375 1154.324219 815.625 1155.273438 810.898438 1156.761719 C 807.878906 1158.476562 804.546875 1159.289062 801.484375 1160.777344 C 793.378906 1166.011719 790.722656 1178.285156 795.046875 1186.765625 C 797.65625 1191.503906 801.261719 1195.25 803.648438 1199.941406 C 804.414062 1201.070312 802.746094 1202.511719 801.710938 1201.519531 Z M 801.710938 1201.519531 " fill-opacity="1" fill-rule="nonzero"/><path fill="#000000" d="M 817.066406 1243.390625 C 809.679688 1241.40625 801.394531 1239.375 796.441406 1233.105469 C 791.261719 1222.320312 784.957031 1209.6875 789.507812 1197.683594 C 790.003906 1195.835938 793.425781 1189.113281 795.585938 1191.773438 C 795.902344 1192.40625 795.542969 1193.171875 794.910156 1193.355469 C 788.019531 1203.28125 791.625 1212.890625 795.722656 1222.953125 C 796.710938 1226.425781 797.433594 1230.351562 799.953125 1233.011719 C 803.601562 1236.625 808.644531 1238.113281 813.464844 1239.375 C 817.382812 1240.820312 821.929688 1241.316406 825.398438 1238.472656 C 827.109375 1237.253906 828.28125 1235.585938 829.902344 1234.277344 C 832.332031 1232.699219 834.988281 1231.164062 837.0625 1229.132812 C 839.988281 1226.605469 841.203125 1222.773438 843.90625 1220.0625 C 845.347656 1218.847656 846.789062 1217.449219 847.914062 1216.003906 C 848.902344 1214.832031 850.839844 1216.363281 849.894531 1217.628906 C 847.554688 1220.785156 844.671875 1223.402344 842.824219 1226.878906 C 840.078125 1231.390625 835.710938 1234.59375 831.070312 1236.984375 C 827.425781 1241.089844 822.785156 1244.65625 817.066406 1243.390625 Z M 817.066406 1243.390625 " fill-opacity="1" fill-rule="nonzero"/><path fill="#000000" d="M 834.402344 1187.9375 C 832.558594 1182.027344 830.082031 1168.898438 837.332031 1166.101562 C 837.871094 1166.238281 838.277344 1166.777344 838.230469 1167.320312 C 837.554688 1169.484375 836.339844 1171.5625 836.25 1173.90625 C 836.476562 1178.238281 837.691406 1182.433594 838.367188 1186.722656 C 838.546875 1187.714844 837.960938 1188.75 836.96875 1189.066406 C 835.980469 1189.339844 834.808594 1188.886719 834.402344 1187.9375 Z M 834.402344 1187.9375 " fill-opacity="1" fill-rule="nonzero"/><path fill="#000000" d="M 838.320312 1195.789062 C 837.601562 1194.570312 836.925781 1192.269531 838.773438 1191.820312 C 840.257812 1191.550781 840.527344 1193.21875 841.113281 1194.210938 C 841.96875 1195.96875 839.3125 1197.460938 838.320312 1195.789062 Z M 838.320312 1195.789062 " fill-opacity="1" fill-rule="nonzero"/><path fill="#000000" d="M 795.765625 1211.851562 C 794.101562 1210.273438 793.921875 1204.226562 796.308594 1203.234375 C 797.433594 1203.007812 797.476562 1204.5 797.65625 1205.128906 C 798.0625 1206.707031 798.46875 1208.289062 798.785156 1209.914062 C 799.144531 1211.535156 797.070312 1212.84375 795.765625 1211.851562 Z M 795.765625 1211.851562 " fill-opacity="1" fill-rule="nonzero"/><path fill="#000000" d="M 809.050781 951.695312 C 805.402344 949.394531 814.230469 946.007812 815.941406 945.242188 C 819.8125 943.664062 824.273438 943.84375 827.738281 941.273438 C 827.738281 941.273438 827.738281 941.273438 827.695312 941.273438 C 827.648438 941.316406 827.605469 941.316406 827.558594 941.363281 C 832.332031 938.472656 836.25 934.640625 839.71875 930.308594 C 843.320312 927.058594 846.832031 923.628906 848.273438 918.847656 C 848.8125 913.839844 845.796875 909.328125 843.183594 905.355469 C 840.257812 900.574219 838.277344 895.25 834.71875 890.917969 C 829.902344 883.339844 822.246094 880.675781 814.679688 886.316406 C 813.011719 887.308594 811.484375 884.648438 813.195312 883.699219 C 824.273438 876.617188 837.78125 884.828125 840.933594 896.46875 C 842.734375 900.257812 845.347656 903.234375 847.507812 906.710938 C 850.480469 912.484375 852.101562 919.75 848.769531 925.660156 C 842.507812 934.097656 835.484375 942.308594 825.710938 946.550781 C 820.039062 947.902344 814.90625 951.421875 809.050781 951.695312 Z M 809.050781 951.695312 " fill-opacity="1" fill-rule="nonzero"/><path fill="#000000" d="M 760.101562 926.921875 C 758.613281 923 758.703125 918.800781 758.929688 914.695312 C 759.199219 910.859375 758.480469 906.9375 759.246094 903.144531 C 761.542969 893.894531 768.792969 885.457031 777.617188 881.894531 C 782.257812 880.089844 787.210938 879.457031 791.984375 878.105469 C 800.40625 875.804688 811.390625 874.132812 818.28125 880.722656 C 819.40625 881.398438 818.460938 882.480469 817.425781 882.390625 C 814.679688 881.894531 812.203125 880.40625 809.457031 879.910156 C 801.621094 878.195312 794.28125 881.804688 786.804688 883.382812 C 775.59375 884.828125 768.296875 888.707031 763.117188 899.039062 C 760.6875 903.824219 761.765625 909.28125 761.855469 914.425781 C 761.902344 918.304688 761.722656 922.230469 763.074219 925.929688 C 763.703125 927.734375 760.777344 928.726562 760.101562 926.921875 Z M 760.101562 926.921875 " fill-opacity="1" fill-rule="nonzero"/><path fill="#000000" d="M 782.078125 969.695312 C 775.996094 969.109375 770.726562 966.492188 766.179688 962.523438 C 761.453125 959.320312 756.769531 955.257812 755.507812 949.394531 C 753.976562 938.789062 748.886719 927.285156 754.878906 917.179688 C 755.777344 915.960938 757.175781 913.164062 758.976562 913.972656 C 759.335938 914.246094 759.46875 914.785156 759.289062 915.191406 C 757.984375 917.898438 756.542969 920.382812 755.957031 923.269531 C 754.5625 929.132812 756.273438 934.640625 757.488281 940.277344 C 758.210938 943.886719 758.210938 947.722656 759.695312 951.152344 C 762.039062 955.527344 766.675781 957.832031 770.546875 960.71875 C 773.835938 963.515625 777.4375 965.816406 781.804688 966.492188 C 789.328125 968.839844 792.75 967.890625 797.703125 961.621094 C 798.378906 960.492188 800.132812 961.53125 799.457031 962.65625 C 795.179688 968.703125 789.507812 971.816406 782.078125 969.695312 Z M 782.078125 969.695312 " fill-opacity="1" fill-rule="nonzero"/><path fill="#000000" d="M 768.386719 916.636719 C 767.710938 912.53125 767.800781 908.378906 767.667969 904.273438 C 767.757812 903.054688 767.980469 901.835938 768.476562 900.710938 C 768.34375 899.714844 769.332031 898.8125 770.324219 898.949219 C 771.765625 899.175781 772.035156 900.84375 771.269531 901.835938 C 770.953125 903.640625 770.863281 905.039062 771.179688 906.753906 C 771.492188 910.050781 776.132812 916.773438 771.628906 918.53125 C 770.277344 918.890625 768.703125 918.035156 768.386719 916.636719 Z M 768.386719 916.636719 " fill-opacity="1" fill-rule="nonzero"/><path fill="#000000" d="M 776.175781 930.667969 C 775.5 929.316406 774.0625 926.019531 776.3125 925.480469 C 777.078125 925.390625 777.796875 925.976562 777.84375 926.742188 C 778.835938 928.007812 780.769531 929.8125 778.96875 931.253906 C 778.070312 931.886719 776.71875 931.660156 776.175781 930.667969 Z M 776.175781 930.667969 " fill-opacity="1" fill-rule="nonzero"/><path fill="#000000" d="M 829.585938 723.523438 C 828.144531 721.40625 828.820312 718.292969 827.558594 715.992188 C 825.039062 711.386719 821.210938 707.460938 820.894531 702.003906 C 819.992188 696.410156 821.433594 690.632812 824.316406 685.851562 C 828.054688 676.917969 835.980469 664.597656 847.238281 669.335938 C 849.039062 670.105469 852.417969 671.320312 851.109375 673.847656 C 849.851562 675.925781 847.644531 674.300781 846.113281 673.488281 C 833.414062 666.359375 822.425781 689.414062 823.324219 699.523438 C 822.921875 705.839844 827.605469 709.628906 830.261719 714.726562 C 831.296875 717.207031 831.386719 720.007812 831.207031 722.621094 C 831.433594 723.480469 830.261719 724.066406 829.585938 723.523438 Z M 829.585938 723.523438 " fill-opacity="1" fill-rule="nonzero"/><path fill="#000000" d="M 890.199219 694.964844 C 889.433594 692.210938 889.433594 689.097656 888.667969 686.390625 C 887.089844 681.113281 884.121094 675.96875 879.839844 672.539062 C 877.230469 671.140625 874.480469 669.96875 872.230469 667.984375 C 871.421875 667.441406 870.699219 667.082031 869.800781 666.855469 C 865.160156 666.269531 861.558594 668.480469 858.316406 671.503906 C 854.894531 673.9375 851.652344 676.738281 849.21875 680.164062 C 848.320312 681.96875 848.410156 684.136719 848.859375 685.984375 C 849.308594 686.480469 849.308594 687.339844 848.632812 687.699219 C 846.335938 688.785156 845.707031 682.375 845.886719 680.933594 C 847.011719 675.292969 851.964844 670.871094 856.109375 667.398438 C 858.855469 664.554688 862.367188 662.660156 866.375 662.703125 C 868.402344 662.480469 870.566406 662.117188 872.457031 663.15625 C 874.390625 663.96875 876.101562 665.1875 877.453125 666.855469 C 882.183594 671.230469 887 675.519531 890.109375 681.25 C 891.550781 683.59375 896.050781 695.550781 892.089844 696.273438 C 891.277344 696.363281 890.421875 695.820312 890.199219 694.964844 Z M 890.199219 694.964844 " fill-opacity="1" fill-rule="nonzero"/><path fill="#000000" d="M 873.671875 736.609375 C 873.042969 734.265625 877.320312 734.535156 878.625 733.496094 C 881.640625 732.007812 883.535156 729.300781 886.054688 727.226562 C 893.082031 720.546875 906.003906 717.433594 906.816406 706.246094 C 906.363281 702.816406 905.285156 699.566406 904.652344 696.136719 C 902.941406 688.285156 898.167969 681.519531 892.992188 675.609375 C 890.199219 671.546875 885.515625 670.195312 880.875 669.609375 C 879.660156 669.246094 876.867188 669.382812 877.453125 667.441406 C 879.074219 665.410156 882.722656 666.808594 884.792969 666.992188 C 891.460938 667.757812 896.097656 672.628906 899.65625 677.953125 C 906.320312 684.542969 907.492188 693.882812 908.4375 702.816406 C 911.046875 713.375 902.042969 722.488281 892.628906 725.464844 C 889.207031 727.359375 885.832031 729.796875 883.445312 732.863281 C 881.371094 735.4375 878.085938 736.203125 875.15625 737.332031 C 874.527344 737.558594 873.898438 737.152344 873.671875 736.609375 Z M 873.671875 736.609375 " fill-opacity="1" fill-rule="nonzero"/><path fill="#000000" d="M 942.886719 810.695312 C 940.09375 810.5625 940.679688 807.449219 940.996094 805.550781 C 942.253906 799.101562 936.042969 794.046875 932.617188 789.265625 C 926.402344 780.871094 921.539062 774.238281 911.003906 781.730469 C 905.960938 785.160156 899.609375 786.421875 894.882812 790.347656 C 891.953125 792.828125 890.46875 796.484375 888.621094 799.640625 C 888.621094 800.003906 888.308594 800.410156 887.902344 800.410156 C 886.867188 800.363281 887.179688 799.144531 887.363281 798.46875 C 888.398438 794.226562 890.421875 789.894531 893.847656 787.097656 C 896.863281 783.984375 901.050781 782.226562 904.925781 780.644531 C 911.003906 777.035156 918.882812 773.5625 925.457031 777.714844 C 929.375 780.015625 931.628906 784.4375 934.511719 787.730469 C 936.988281 790.707031 940.140625 793.054688 942.300781 796.257812 C 944.777344 799.507812 945.8125 803.746094 945.273438 807.808594 C 945.226562 809.207031 944.460938 810.742188 942.886719 810.695312 Z M 942.886719 810.695312 " fill-opacity="1" fill-rule="nonzero"/><g clip-path="url(#c5875afea0)"><path fill="#000000" d="M 935.769531 849.183594 C 934.871094 844.265625 950.363281 847.152344 953.558594 843.992188 C 956.710938 841.875 957.117188 837.496094 957.207031 834.066406 C 956.9375 831.585938 955.628906 829.511719 955 827.164062 C 954.414062 825.269531 954.640625 823.148438 953.738281 821.34375 C 952.839844 819.269531 950.945312 817.417969 949.414062 816.019531 C 944.058594 811.148438 935.816406 812.953125 929.601562 815.027344 C 926.449219 816.019531 923.566406 817.691406 920.503906 818.953125 C 918.972656 819.675781 917.984375 818.5 918.839844 817.011719 C 924.332031 808.394531 946.398438 804.695312 952.613281 814.125 C 954.59375 816.832031 957.070312 819.496094 957.925781 822.789062 C 958.195312 824.414062 958.0625 826.035156 958.105469 827.660156 C 958.242188 829.917969 959.457031 831.945312 959.457031 834.203125 C 959.097656 839.480469 956.980469 845.753906 951.757812 848.011719 C 948.335938 849.589844 944.371094 848.6875 940.859375 849.316406 C 939.195312 849.363281 936.761719 851.078125 935.769531 849.183594 Z M 935.769531 849.183594 " fill-opacity="1" fill-rule="nonzero"/></g><path fill="#000000" d="M 927.035156 877.066406 C 916.992188 875.804688 908.257812 869.394531 900.332031 863.484375 C 896.546875 860.328125 893.621094 855.636719 893.980469 850.535156 C 894.027344 849.949219 894.160156 849.183594 894.65625 848.820312 C 896.773438 847.511719 898.800781 854.824219 900.105469 856.039062 C 905.285156 862.855469 924.828125 875.804688 933.292969 871.832031 C 937.570312 868.269531 941.761719 864.253906 945.136719 859.785156 C 947.027344 856.222656 946.804688 851.890625 946.625 848.101562 C 946.039062 845.933594 949.144531 845.300781 949.324219 847.378906 C 950.089844 853.695312 949.820312 860.597656 944.867188 865.109375 C 940.09375 870.660156 935.5 878.421875 927.035156 877.066406 Z M 927.035156 877.066406 " fill-opacity="1" fill-rule="nonzero"/><path fill="#000000" d="M 896.683594 807.3125 C 895.332031 803.207031 900.242188 799.144531 902.355469 796.078125 C 904.699219 792.558594 907.21875 788.679688 911.273438 786.917969 C 913.613281 785.835938 915.867188 789.175781 913.929688 790.933594 C 911.09375 793.191406 909.023438 796.167969 906.5 798.785156 C 903.707031 801.355469 900.644531 803.566406 898.574219 806.816406 C 898.125 807.402344 897.269531 808.035156 896.683594 807.3125 Z M 896.683594 807.3125 " fill-opacity="1" fill-rule="nonzero"/><path fill="#000000" d="M 922.578125 790.03125 C 920.414062 789.308594 920.550781 787.1875 922.621094 786.421875 C 926.179688 785.339844 926.179688 791.160156 922.578125 790.03125 Z M 922.578125 790.03125 " fill-opacity="1" fill-rule="nonzero"/><path fill="#000000" d="M 931.808594 827.796875 C 931.582031 824.230469 942.164062 820.304688 942.796875 825.132812 C 943.066406 828.742188 938.5625 828.066406 936.222656 828.429688 C 934.871094 828.335938 932.527344 829.285156 931.808594 827.796875 Z M 931.808594 827.796875 " fill-opacity="1" fill-rule="nonzero"/><path fill="#af7330" d="M 28.625 379.78125 C 27.769531 378.957031 27.679688 377.597656 28.449219 376.667969 C 46.15625 355.242188 64.246094 332.820312 82.230469 310.042969 C 102.429688 284.445312 111.300781 272.507812 109.800781 257.71875 C 109.496094 254.707031 108.789062 251.792969 108.042969 248.710938 C 106.546875 242.515625 104.847656 235.5 105.363281 224.625 C 105.640625 218.832031 106.363281 215.773438 107.191406 212.234375 C 107.867188 209.386719 108.625 206.15625 109.273438 200.71875 C 110.492188 190.429688 109.785156 184.894531 109.105469 179.542969 C 108.503906 174.820312 107.882812 169.9375 108.550781 162.117188 C 109.222656 154.242188 110.628906 150.230469 113.703125 141.441406 C 115.324219 136.828125 117.535156 130.503906 120.394531 121.4375 C 124.082031 109.746094 127.449219 97.902344 130.40625 86.25 C 130.71875 85.023438 131.972656 84.28125 133.199219 84.59375 C 134.429688 84.90625 135.171875 86.152344 134.859375 87.378906 C 131.878906 99.117188 128.488281 111.042969 124.773438 122.820312 C 121.898438 131.949219 119.667969 138.308594 118.042969 142.957031 C 115.011719 151.625 113.753906 155.210938 113.128906 162.507812 C 112.496094 169.839844 113.066406 174.269531 113.664062 178.964844 C 114.378906 184.589844 115.117188 190.410156 113.835938 201.257812 C 113.160156 206.953125 112.367188 210.320312 111.664062 213.285156 C 110.851562 216.742188 110.207031 219.46875 109.953125 224.84375 C 109.46875 235.058594 111.082031 241.738281 112.507812 247.632812 C 113.292969 250.871094 114.035156 253.933594 114.371094 257.257812 C 116.046875 273.816406 106.839844 286.28125 85.835938 312.882812 C 67.832031 335.6875 49.71875 358.136719 31.992188 379.589844 C 31.183594 380.566406 29.738281 380.707031 28.757812 379.898438 C 28.710938 379.859375 28.667969 379.824219 28.625 379.78125 " fill-opacity="1" fill-rule="nonzero"/><path fill="#6e861f" d="M 33.546875 378.832031 C 33.597656 378.84375 36.0625 374.550781 35.90625 368.605469 C 35.664062 359.625 29.664062 356.152344 24.804688 346.917969 C 17.429688 332.925781 19.683594 319.015625 19.703125 319.011719 C 19.714844 319.011719 19.199219 327.175781 23.945312 335.097656 C 26.015625 338.546875 27.183594 338.785156 30.21875 343.378906 C 30.988281 344.550781 34.589844 350.007812 36.171875 355.363281 C 39.652344 367.140625 33.464844 378.8125 33.546875 378.832031 " fill-opacity="1" fill-rule="nonzero"/><path fill="#6e861f" d="M 44.46875 360.730469 C 44.300781 360.671875 46.257812 356.855469 47.328125 350.242188 C 48.527344 342.851562 47.847656 336.707031 47.410156 333.820312 C 46.304688 326.472656 44.851562 327.289062 44.78125 322.546875 C 44.699219 317.199219 46.488281 312.984375 49.445312 306.042969 C 51.332031 301.597656 53.304688 297.9375 53.628906 298.074219 C 54.101562 298.261719 49.324219 305.648438 49.996094 315.320312 C 50.273438 319.289062 51.21875 320.082031 51.722656 325.980469 C 51.777344 326.636719 52.167969 331.414062 51.667969 336.925781 C 50.472656 350.199219 44.738281 360.832031 44.46875 360.730469 " fill-opacity="1" fill-rule="nonzero"/><path fill="#5d6d11" d="M 38.21875 368.582031 C 38.003906 367.78125 42.195312 365.410156 46.933594 364.472656 C 50.992188 363.675781 54.714844 364.074219 61.847656 364.835938 C 64.503906 365.121094 65.976562 365.375 68.480469 365.226562 C 72.792969 364.96875 75.296875 363.808594 75.46875 364.207031 C 75.695312 364.730469 71.78125 367.917969 66.511719 369.082031 C 61.542969 370.175781 59.824219 368.492188 52.476562 368.066406 C 43.777344 367.558594 38.449219 369.464844 38.21875 368.582031 " fill-opacity="1" fill-rule="nonzero"/><path fill="#6e861f" d="M 33.414062 373.308594 C 33.609375 372.792969 37.179688 373.941406 47.488281 376.613281 C 57.683594 379.257812 60.417969 379.742188 60.433594 380.828125 C 60.457031 382.164062 56.371094 383.949219 52.460938 383.652344 C 49.53125 383.425781 48.347656 382.160156 42.171875 378.496094 C 35.910156 374.769531 33.238281 373.761719 33.414062 373.308594 " fill-opacity="1" fill-rule="nonzero"/><path fill="#6e861f" d="M 60.636719 341.925781 C 60.527344 341.808594 65.054688 338.984375 68.367188 332.875 C 70.21875 329.46875 71.265625 325.8125 72.253906 322.363281 C 73.644531 317.5 73.214844 317.351562 74.160156 315.203125 C 76.714844 309.371094 82.066406 305.484375 82.910156 306.132812 C 83.570312 306.640625 81.21875 309.757812 77.289062 318.960938 C 74.597656 325.253906 75.132812 325.117188 73.753906 327.808594 C 68.9375 337.207031 60.78125 342.082031 60.636719 341.925781 " fill-opacity="1" fill-rule="nonzero"/><path fill="#6e861f" d="M 56.566406 343.824219 C 56.617188 343.03125 62.644531 344.027344 71.304688 341.765625 C 78.234375 339.960938 78.367188 338.285156 83.585938 337.59375 C 87.816406 337.042969 91.386719 337.859375 98.53125 339.484375 C 104.113281 340.757812 112.269531 343.035156 112.117188 343.820312 C 111.941406 344.699219 101.21875 343.429688 98.085938 343.058594 C 89.363281 342.027344 87.730469 341.175781 83.414062 341.925781 C 81.140625 342.324219 81.164062 342.632812 74.789062 344.125 C 68.640625 345.558594 66.988281 345.65625 66.28125 345.683594 C 61.292969 345.867188 56.523438 344.527344 56.566406 343.824219 " fill-opacity="1" fill-rule="nonzero"/><path fill="#5d6d11" d="M 62.289062 340.230469 C 63.316406 340.453125 65.476562 334.523438 67.558594 328.804688 C 70.757812 320.023438 69.605469 320.03125 71.777344 315.875 C 72.402344 314.683594 72.785156 314.136719 81.597656 302.332031 C 84.417969 298.546875 85.28125 297.386719 85.066406 297.175781 C 84.585938 296.703125 79.078125 301.152344 74.527344 306.023438 C 71.4375 309.332031 68.046875 312.964844 65.449219 318.28125 C 60.449219 328.542969 60.929688 339.9375 62.289062 340.230469 " fill-opacity="1" fill-rule="nonzero"/><path fill="#6e861f" d="M 86.402344 308.746094 C 86.121094 308.714844 86.691406 305.765625 86.253906 300.605469 C 85.917969 296.714844 85.492188 292.253906 82.960938 287.9375 C 81.917969 286.160156 81.660156 286.351562 78.140625 282.296875 C 74.582031 278.191406 69.117188 271.386719 69.652344 270.871094 C 70.058594 270.484375 73.984375 273.667969 77.152344 276.84375 C 82.277344 281.988281 86.925781 286.660156 88.296875 294.078125 C 89.742188 301.867188 86.839844 308.800781 86.402344 308.746094 " fill-opacity="1" fill-rule="nonzero"/><path fill="#5d6d11" d="M 83.640625 311.351562 C 84.089844 311.863281 88.378906 307.816406 96.246094 303.734375 C 101.589844 300.957031 104.957031 299.214844 109.902344 298.394531 C 115.273438 297.5 117.371094 298.558594 121.847656 296.644531 C 126.035156 294.859375 128.984375 291.898438 128.761719 291.554688 C 128.550781 291.226562 125.792969 293.746094 121.300781 294.621094 C 115.292969 295.789062 113.464844 292.597656 106.75 293.359375 C 102.148438 293.882812 98.824219 295.863281 97.640625 296.582031 C 95.441406 297.921875 93.515625 299.960938 89.75 303.980469 C 86.140625 307.835938 83.261719 310.914062 83.640625 311.351562 " fill-opacity="1" fill-rule="nonzero"/><path fill="#5d6d11" d="M 97.449219 292.890625 C 98.703125 292.972656 101.136719 286.316406 101.019531 279.332031 C 100.90625 272.34375 98.257812 266.53125 94.914062 259.207031 C 93.09375 255.203125 92.640625 254.9375 90.941406 250.878906 C 87.71875 243.160156 86.875 238.140625 86.375 238.234375 C 85.863281 238.335938 85.738281 243.863281 87.609375 249.921875 C 89.71875 256.734375 91.976562 256.550781 94.109375 263.679688 C 94.664062 265.542969 95.941406 269.933594 95.855469 275.605469 C 95.8125 278.582031 95.433594 279.296875 95.472656 282.488281 C 95.527344 286.648438 96.261719 292.8125 97.449219 292.890625 " fill-opacity="1" fill-rule="nonzero"/><path fill="#6e861f" d="M 94.183594 295.496094 C 94.671875 295.316406 93.054688 289.527344 91.964844 285.609375 C 90.335938 279.769531 89.890625 279.292969 89.375 276.363281 C 88.339844 270.523438 89.757812 270.429688 88.8125 266.574219 C 87.773438 262.351562 85.191406 259.441406 80.035156 253.625 C 78.273438 251.640625 75.074219 248.21875 74.714844 248.503906 C 74.222656 248.898438 80.746094 255.050781 83.945312 265.390625 C 84.796875 268.144531 84.558594 268.433594 86.5625 275.90625 C 88.199219 282.027344 89.078125 284.511719 89.546875 285.777344 C 91.289062 290.496094 93.714844 295.667969 94.183594 295.496094 " fill-opacity="1" fill-rule="nonzero"/><path fill="#6e861f" d="M 106.460938 274.851562 C 107.078125 275.285156 110.550781 269.785156 117.71875 263.441406 C 125.5 256.554688 128.300781 256.9375 135.960938 251.015625 C 147.34375 242.214844 153.316406 231.960938 153.058594 231.734375 C 152.882812 231.574219 149.445312 236.089844 142.542969 241.601562 C 141.804688 242.191406 138.257812 245.003906 133.109375 248.265625 C 128.308594 251.308594 127.871094 251.097656 124.410156 253.390625 C 122.125 254.90625 117.746094 257.84375 113.75 262.367188 C 108.824219 267.941406 105.816406 274.398438 106.460938 274.851562 " fill-opacity="1" fill-rule="nonzero"/><path fill="#6e861f" d="M 109.945312 268.945312 C 109.183594 268.941406 111.839844 258.507812 106.253906 248.398438 C 103.039062 242.574219 99.648438 241.5 97.980469 234.929688 C 97 231.074219 97.023438 226.917969 97.035156 224.761719 C 97.050781 220.871094 97.5 216.855469 97.910156 216.855469 C 98.515625 216.855469 96.628906 225.875 101.40625 233.976562 C 103.847656 238.125 105.71875 238.085938 108.066406 242.886719 C 110.03125 246.914062 110.4375 250.457031 110.820312 254.042969 C 111.640625 261.8125 110.574219 268.949219 109.945312 268.945312 " fill-opacity="1" fill-rule="nonzero"/><path fill="#6e861f" d="M 112.75 257.316406 C 111.8125 256.640625 115.988281 251.828125 120.226562 241.269531 C 121.582031 237.898438 123.074219 233.613281 127.039062 230.582031 C 127.773438 230.023438 128.140625 229.84375 129.105469 229.058594 C 133.527344 225.441406 135.472656 221.183594 135.398438 221.136719 C 135.265625 221.046875 126.140625 235.53125 122.648438 241.355469 C 121.585938 243.128906 121.144531 243.933594 120.679688 244.953125 C 118.660156 249.367188 119.144531 251.296875 117.273438 253.929688 C 115.792969 256.007812 113.378906 257.769531 112.75 257.316406 " fill-opacity="1" fill-rule="nonzero"/><path fill="#5d6d11" d="M 110.261719 241.488281 C 110.59375 241.527344 110.25 234.304688 114.449219 226.773438 C 116.570312 222.972656 118.945312 220.703125 123.433594 216.425781 C 129.679688 210.464844 131.507812 210.308594 136.722656 204.984375 C 141.105469 200.511719 145.300781 195.019531 144.683594 194.398438 C 144.441406 194.15625 143.410156 194.609375 132.355469 203.027344 C 126.132812 207.757812 123.023438 210.132812 122.183594 210.976562 C 114.492188 218.726562 111.976562 227.164062 111.433594 229.121094 C 109.566406 235.824219 109.972656 241.453125 110.261719 241.488281 " fill-opacity="1" fill-rule="nonzero"/><path fill="#5d6d11" d="M 106.027344 228.164062 C 106.734375 228.214844 107.867188 219.933594 108.472656 215.515625 C 109.648438 206.878906 110.238281 202.5625 109.960938 199.710938 C 109.1875 191.808594 106.199219 191.160156 103.863281 179.839844 C 102.566406 173.574219 102.691406 169.941406 102.148438 169.941406 C 101.335938 169.941406 100 178.152344 100.933594 187.019531 C 101.523438 192.570312 102.613281 194.675781 103.847656 199.816406 C 107.664062 215.664062 105.160156 228.101562 106.027344 228.164062 " fill-opacity="1" fill-rule="nonzero"/><path fill="#6e861f" d="M 109.40625 234.203125 C 110.085938 233.855469 108.90625 228.890625 106.039062 224.46875 C 104.769531 222.511719 104.179688 222.214844 98.628906 216.332031 C 95.378906 212.882812 93.753906 211.160156 92.90625 210.070312 C 88.3125 204.152344 86.996094 199.183594 86.464844 199.375 C 85.96875 199.550781 86.515625 204.199219 88.808594 208.875 C 90.136719 211.59375 92.195312 214.03125 96.253906 218.792969 C 99.378906 222.460938 99.496094 222.332031 102.109375 225.429688 C 107.292969 231.582031 108.851562 234.488281 109.40625 234.203125 " fill-opacity="1" fill-rule="nonzero"/><path fill="#6e861f" d="M 112.320312 198.117188 C 113.785156 198.382812 113.871094 191.875 119.378906 186.914062 C 123.667969 183.046875 126.363281 184.519531 133.644531 179.90625 C 135.949219 178.449219 135.332031 178.519531 142.054688 173.003906 C 149.648438 166.773438 156.242188 161.921875 156.246094 161.925781 C 156.246094 161.925781 155.910156 162.183594 155.242188 162.707031 C 149.597656 167.089844 140.453125 171.285156 135.566406 173.503906 C 127.519531 177.167969 126.394531 177.664062 123.816406 178.941406 C 115.257812 183.1875 113.234375 184.851562 111.996094 187.304688 C 109.636719 191.976562 110.960938 197.871094 112.320312 198.117188 " fill-opacity="1" fill-rule="nonzero"/><path fill="#6e861f" d="M 110.214844 178.773438 C 110.8125 179.445312 119.054688 173.671875 126.3125 167.023438 C 129.953125 163.679688 132.355469 161.027344 136.4375 156.527344 C 141.792969 150.609375 141.527344 150.320312 150.402344 139.976562 C 154.207031 135.542969 155.609375 134.019531 155.382812 133.773438 C 154.933594 133.289062 148.160156 138.140625 141.945312 144.335938 C 135.785156 150.46875 135.871094 152.246094 128.59375 159.46875 C 125.042969 162.996094 124.519531 163.066406 120.203125 167.390625 C 118.257812 169.332031 109.5625 178.027344 110.214844 178.773438 " fill-opacity="1" fill-rule="nonzero"/><path fill="#6e861f" d="M 111.058594 178.4375 C 111.527344 178.285156 110.164062 169.476562 105 160.855469 C 102.535156 156.738281 100.007812 154.011719 97.957031 151.824219 C 94.410156 148.046875 88.957031 143.152344 88.125 143.859375 C 87.355469 144.515625 90.699219 149.828125 93.136719 153.1875 C 98.738281 160.871094 101.886719 161.351562 106.152344 167.964844 C 109.957031 173.863281 110.71875 178.550781 111.058594 178.4375 " fill-opacity="1" fill-rule="nonzero"/><path fill="#5d6d11" d="M 113.308594 164.9375 C 114.292969 165.203125 115.3125 155.75 123.15625 146.175781 C 127.253906 141.164062 132.808594 136.621094 134.292969 135.40625 C 140.34375 130.457031 142.960938 128.5 142.960938 128.5 C 146.226562 126.054688 147.359375 125.375 147.226562 125.113281 C 146.917969 124.496094 139.800781 126.375 133.449219 131.09375 C 131.472656 132.566406 129.464844 134.753906 125.445312 139.128906 C 120.011719 145.054688 117.269531 148.074219 115.855469 150.890625 C 112.480469 157.605469 112.464844 164.710938 113.308594 164.9375 " fill-opacity="1" fill-rule="nonzero"/><path fill="#6e861f" d="M 111.164062 157.824219 C 111.664062 158.039062 113.257812 154.179688 117.105469 148.550781 C 118.570312 146.414062 122.464844 140.929688 128.457031 135.234375 C 132.414062 131.46875 132.039062 132.605469 136.734375 128.207031 C 139.378906 125.734375 139.84375 125.054688 147.734375 116.804688 C 151.652344 112.71875 152.351562 112.027344 152.234375 111.882812 C 151.796875 111.367188 141.691406 119.011719 133.632812 125.71875 C 127.390625 130.914062 124.976562 133.394531 124.230469 134.167969 C 117.152344 141.511719 114.617188 146.71875 113.917969 148.230469 C 111.800781 152.792969 110.621094 157.589844 111.164062 157.824219 " fill-opacity="1" fill-rule="nonzero"/><path fill="#5d6d11" d="M 111.902344 151.964844 C 112.933594 151.980469 113.972656 143.808594 114.324219 138.300781 C 114.675781 132.871094 114.953125 128.601562 113.789062 123.039062 C 112.851562 118.53125 111.335938 115.269531 108.304688 108.753906 C 105.988281 103.785156 103.84375 99.171875 103.03125 99.433594 C 101.914062 99.792969 103.296875 109.515625 105.925781 117.964844 C 106.964844 121.316406 108.0625 123.996094 108.796875 128.726562 C 109.253906 131.648438 109.164062 132.726562 109.453125 136.605469 C 109.609375 138.675781 110.59375 151.9375 111.902344 151.964844 " fill-opacity="1" fill-rule="nonzero"/><path fill="#6e861f" d="M 116.8125 133.816406 C 116.621094 133.785156 117.96875 129.683594 117.777344 123.996094 C 117.5 115.761719 114.175781 109.511719 110.109375 101.867188 C 108.03125 97.972656 106.125 94.382812 102.628906 90.167969 C 99.882812 86.855469 97.332031 84.574219 97.675781 84.148438 C 98.035156 83.699219 101.464844 85.550781 104.238281 87.71875 C 110.332031 92.480469 113.039062 98.566406 114.96875 103.050781 C 116.714844 107.09375 118.890625 112.285156 119.097656 119.523438 C 119.320312 127.464844 117.050781 133.859375 116.8125 133.816406 " fill-opacity="1" fill-rule="nonzero"/><g clip-path="url(#d7bee6887e)"><path fill="#6e861f" d="M 126.285156 115.445312 C 126.507812 115.726562 130.976562 111.273438 139.386719 107.566406 C 142.9375 106 145.832031 105.164062 151.542969 103.519531 C 160.851562 100.84375 165.167969 100.296875 165.105469 99.582031 C 165.035156 98.832031 160.144531 98.371094 155.535156 98.867188 C 153.058594 99.136719 148.308594 99.929688 141.480469 103.578125 C 132.167969 108.5625 126.011719 115.105469 126.285156 115.445312 " fill-opacity="1" fill-rule="nonzero"/></g><path fill="#6e861f" d="M 129.535156 101.699219 C 130.566406 101.785156 132.285156 95.261719 132.746094 89.296875 C 133.359375 81.375 131.695312 75.195312 130.492188 70.878906 C 128.769531 64.671875 126.328125 59.226562 125.820312 59.382812 C 125.363281 59.523438 126.90625 64.175781 127.582031 71.820312 C 127.96875 76.179688 127.695312 77.28125 127.792969 83.273438 C 127.878906 88.507812 128.09375 101.578125 129.535156 101.699219 " fill-opacity="1" fill-rule="nonzero"/><path fill="#5d6d11" d="M 132.292969 95.988281 C 131.894531 95.402344 134.167969 93.554688 138.035156 89.515625 C 147.105469 80.042969 147.304688 76.949219 152.539062 74.484375 C 157.558594 72.121094 163.4375 72.113281 163.988281 73.511719 C 164.472656 74.742188 160.566406 76.472656 152.445312 83.398438 C 147.289062 87.796875 146.375 89.21875 142.40625 91.726562 C 138.199219 94.386719 132.855469 96.808594 132.292969 95.988281 " fill-opacity="1" fill-rule="nonzero"/><path fill="#af7330" d="M 8.179688 0.195312 C 9.054688 0.476562 9.578125 1.386719 9.363281 2.292969 C 4.40625 23.210938 -0.484375 44.953125 -5.171875 66.902344 C -10.441406 91.566406 -12.515625 102.878906 -6.414062 112.632812 C -5.167969 114.621094 -3.6875 116.402344 -2.113281 118.285156 C 1.042969 122.074219 4.621094 126.363281 7.988281 134.085938 C 9.777344 138.207031 10.324219 140.570312 10.953125 143.3125 C 11.464844 145.523438 12.042969 148.023438 13.453125 152.019531 C 16.125 159.574219 18.507812 163.175781 20.8125 166.65625 C 22.84375 169.730469 24.949219 172.90625 27.15625 178.566406 C 29.382812 184.261719 29.78125 187.523438 30.652344 194.675781 C 31.113281 198.433594 31.738281 203.578125 32.851562 210.839844 C 34.296875 220.21875 36.003906 229.585938 37.9375 238.683594 C 38.140625 239.644531 37.527344 240.585938 36.570312 240.789062 C 35.605469 240.988281 34.667969 240.382812 34.464844 239.421875 C 32.515625 230.257812 30.792969 220.824219 29.339844 211.378906 C 28.214844 204.058594 27.582031 198.882812 27.125 195.105469 C 26.265625 188.050781 25.910156 185.136719 23.847656 179.855469 C 21.773438 174.550781 19.871094 171.667969 17.847656 168.613281 C 15.425781 164.953125 12.917969 161.167969 10.101562 153.195312 C 8.621094 149.015625 8.023438 146.410156 7.492188 144.109375 C 6.875 141.433594 6.386719 139.320312 4.726562 135.503906 C 1.570312 128.246094 -1.835938 124.164062 -4.84375 120.558594 C -6.492188 118.578125 -8.058594 116.703125 -9.425781 114.511719 C -16.257812 103.59375 -14.125 91.796875 -8.652344 66.160156 C -3.957031 44.183594 0.941406 22.421875 5.90625 1.480469 C 6.128906 0.523438 7.085938 -0.0664062 8.042969 0.160156 C 8.085938 0.167969 8.132812 0.183594 8.179688 0.195312 " fill-opacity="1" fill-rule="nonzero"/><path fill="#6e861f" d="M 5.085938 2.535156 C 5.042969 2.542969 4.804688 6.367188 6.945312 10.4375 C 10.183594 16.585938 15.539062 16.953125 22.070312 21.703125 C 31.972656 28.898438 35.171875 39.320312 35.15625 39.332031 C 35.148438 39.335938 32.71875 33.492188 26.707031 29.613281 C 24.097656 27.925781 23.203125 28.160156 19.519531 26 C 18.585938 25.453125 14.21875 22.898438 11.289062 19.71875 C 4.847656 12.734375 5.148438 2.519531 5.085938 2.535156 " fill-opacity="1" fill-rule="nonzero"/><path fill="#6e861f" d="M 3.695312 18.824219 C 3.832031 18.8125 3.777344 22.128906 5.296875 27.085938 C 6.996094 32.625 9.570312 36.652344 10.859375 38.511719 C 14.140625 43.230469 14.867188 42.171875 16.539062 45.441406 C 18.425781 49.121094 18.625 52.660156 18.953125 58.488281 C 19.15625 62.21875 19.042969 65.429688 18.773438 65.449219 C 18.382812 65.476562 19.167969 58.71875 15.394531 52.238281 C 13.84375 49.574219 12.917969 49.347656 10.550781 45.421875 C 10.28125 44.988281 8.378906 41.804688 6.839844 37.808594 C 3.136719 28.183594 3.46875 18.847656 3.695312 18.824219 " fill-opacity="1" fill-rule="nonzero"/><path fill="#5d6d11" d="M 5.347656 11.242188 C 5.769531 11.726562 3.671875 14.804688 0.703125 17.066406 C -1.839844 19.011719 -4.5625 20.003906 -9.773438 21.90625 C -11.710938 22.617188 -12.824219 22.949219 -14.507812 23.90625 C -17.414062 25.558594 -18.753906 27.214844 -19.011719 27 C -19.34375 26.707031 -17.722656 23.164062 -14.460938 20.554688 C -11.386719 18.101562 -9.617188 18.679688 -4.371094 16.46875 C 1.84375 13.851562 4.886719 10.710938 5.347656 11.242188 " fill-opacity="1" fill-rule="nonzero"/><path fill="#6e861f" d="M 7.066406 6.320312 C 7.109375 6.753906 4.238281 7.167969 -3.835938 8.835938 C -11.8125 10.480469 -13.875 11.074219 -14.261719 10.328125 C -14.738281 9.40625 -12.507812 6.773438 -9.691406 5.648438 C -7.585938 4.804688 -6.328125 5.277344 -0.789062 5.714844 C 4.832031 6.160156 7.03125 5.949219 7.066406 6.320312 " fill-opacity="1" fill-rule="nonzero"/><path fill="#6e861f" d="M 1.085938 34.691406 C 1.316406 35.257812 -3.207031 36.621094 -8.449219 41.152344 C -12.636719 44.769531 -12.152344 45.980469 -15.546875 48.238281 C -18.289062 50.066406 -21.046875 50.71875 -26.5625 52.027344 C -30.875 53.050781 -37.3125 54.253906 -37.472656 53.660156 C -37.652344 52.988281 -29.777344 50.207031 -27.476562 49.398438 C -21.070312 47.140625 -19.644531 47.167969 -16.90625 45.175781 C -15.464844 44.125 -15.585938 43.914062 -11.667969 40.707031 C -7.890625 37.609375 -6.777344 36.980469 -6.296875 36.722656 C -2.898438 34.886719 0.871094 34.1875 1.085938 34.691406 " fill-opacity="1" fill-rule="nonzero"/><path fill="#5d6d11" d="M -1.664062 39.140625 C -2.453125 39.335938 -1.921875 44.191406 -1.410156 48.867188 C -0.625 56.0625 0.167969 55.65625 0.0820312 59.285156 C 0.0585938 60.324219 -0.0234375 60.835938 -2.09375 72.039062 C -2.761719 75.628906 -2.964844 76.726562 -2.742188 76.800781 C -2.25 76.964844 0.0507812 72 1.546875 67.058594 C 2.558594 63.710938 3.671875 60.035156 3.652344 55.453125 C 3.609375 46.625 -0.617188 38.878906 -1.664062 39.140625 " fill-opacity="1" fill-rule="nonzero"/><path fill="#6e861f" d="M -7.625 69.226562 C -7.421875 69.152344 -6.808594 71.394531 -4.738281 74.824219 C -3.179688 77.414062 -1.355469 80.363281 1.878906 82.496094 C 3.210938 83.371094 3.324219 83.152344 7.152344 84.765625 C 11.03125 86.402344 17.152344 89.253906 16.953125 89.792969 C 16.808594 90.207031 12.988281 89.335938 9.707031 88.210938 C 4.390625 86.386719 -0.433594 84.734375 -3.925781 80.058594 C -7.59375 75.136719 -7.949219 69.335938 -7.625 69.226562 " fill-opacity="1" fill-rule="nonzero"/><path fill="#5d6d11" d="M -9.871094 84.003906 C -10.769531 84.375 -10.183594 89.824219 -7.714844 94.632812 C -5.242188 99.445312 -1.414062 102.574219 3.40625 106.519531 C 6.046875 108.675781 6.449219 108.703125 9.015625 110.941406 C 13.898438 115.199219 16.199219 118.394531 16.507812 118.160156 C 16.835938 117.917969 15.03125 114.035156 11.65625 110.46875 C 7.863281 106.460938 6.355469 107.359375 2.441406 103.140625 C 1.417969 102.035156 -0.972656 99.421875 -2.855469 95.453125 C -3.839844 93.378906 -3.820312 92.746094 -4.941406 90.550781 C -6.402344 87.683594 -9.023438 83.652344 -9.871094 84.003906 " fill-opacity="1" fill-rule="nonzero"/><path fill="#6e861f" d="M -8.496094 81.082031 C -8.773438 81.367188 -5.671875 84.835938 -3.574219 87.183594 C -0.449219 90.683594 0.0234375 90.859375 1.390625 92.714844 C 4.105469 96.417969 3.148438 96.96875 5.125 99.320312 C 7.292969 101.894531 10.078125 103.035156 15.648438 105.308594 C 17.550781 106.089844 20.941406 107.371094 21.089844 107.050781 C 21.296875 106.605469 14.664062 104.566406 8.90625 98.484375 C 7.375 96.855469 7.441406 96.582031 3.496094 92.074219 C 0.265625 88.386719 -1.195312 86.960938 -1.953125 86.242188 C -4.773438 83.558594 -8.226562 80.800781 -8.496094 81.082031 " fill-opacity="1" fill-rule="nonzero"/><path fill="#6e861f" d="M -10.351562 104.890625 C -9.820312 104.628906 -8.097656 112.78125 -0.765625 117.894531 C 3.460938 120.835938 6.183594 120.421875 9.589844 124.417969 C 11.582031 126.761719 12.992188 129.648438 13.722656 131.148438 C 15.042969 133.855469 16.105469 136.796875 15.820312 136.9375 C 15.398438 137.144531 13.621094 130.242188 7.539062 126.25 C 4.417969 124.203125 3.140625 124.867188 -0.136719 122.335938 C -2.878906 120.210938 -4.375 117.890625 -5.859375 115.535156 C -9.089844 110.414062 -10.792969 105.097656 -10.351562 104.890625 " fill-opacity="1" fill-rule="nonzero"/><path fill="#5d6d11" d="M -1.183594 124.058594 C -1.421875 124.144531 1.285156 129.039062 0.945312 135.699219 C 0.777344 139.0625 -0.0976562 141.449219 -1.75 145.949219 C -4.046875 152.222656 -5.265625 152.953125 -7.058594 158.429688 C -8.570312 163.027344 -9.605469 168.269531 -8.964844 168.496094 C -8.714844 168.582031 -8.152344 167.910156 -3.359375 158.296875 C -0.660156 152.882812 0.6875 150.179688 0.980469 149.304688 C 3.671875 141.300781 2.527344 134.585938 2.238281 133.039062 C 1.234375 127.75 -0.964844 123.980469 -1.183594 124.058594 " fill-opacity="1" fill-rule="nonzero"/><path fill="#5d6d11" d="M 6.3125 131.859375 C 5.8125 132.066406 7.855469 138.199219 8.949219 141.472656 C 11.082031 147.867188 12.152344 151.066406 13.320312 152.953125 C 16.558594 158.175781 18.851562 157.605469 24.351562 164.664062 C 27.394531 168.566406 28.550781 171.132812 28.925781 170.949219 C 29.488281 170.667969 27.609375 164.515625 23.921875 158.683594 C 21.621094 155.027344 20.140625 153.933594 17.523438 150.785156 C 9.453125 141.089844 6.941406 131.605469 6.3125 131.859375 " fill-opacity="1" fill-rule="nonzero"/><path fill="#6e861f" d="M 1.90625 128.816406 C 1.550781 129.292969 4.070312 132.339844 7.570312 134.429688 C 9.121094 135.355469 9.632812 135.355469 15.496094 137.546875 C 18.933594 138.832031 20.652344 139.46875 21.609375 139.9375 C 26.824219 142.476562 29.4375 145.476562 29.742188 145.167969 C 30.03125 144.875 28.054688 141.832031 24.867188 139.371094 C 23.015625 137.9375 20.753906 136.949219 16.304688 135.023438 C 12.886719 133.546875 12.84375 133.675781 9.96875 132.417969 C 4.269531 129.917969 2.191406 128.433594 1.90625 128.816406 " fill-opacity="1" fill-rule="nonzero"/><path fill="#6e861f" d="M 12.226562 154.863281 C 11.121094 155.179688 13.285156 159.722656 11.160156 165.046875 C 9.503906 169.199219 7.128906 169.09375 3.652344 174.785156 C 2.554688 176.582031 2.957031 176.320312 0.179688 182.445312 C -2.964844 189.363281 -5.878906 194.984375 -5.886719 194.980469 C -5.886719 194.980469 -5.738281 194.683594 -5.453125 194.097656 C -3.039062 189.121094 1.878906 183.09375 4.507812 179.878906 C 8.84375 174.59375 9.457031 173.863281 10.804688 172.097656 C 15.292969 166.230469 16.132812 164.386719 16.152344 162.257812 C 16.191406 158.210938 13.257812 154.570312 12.226562 154.863281 " fill-opacity="1" fill-rule="nonzero"/><path fill="#6e861f" d="M 20.304688 167.574219 C 19.660156 167.308594 15.914062 174.132812 13.152344 181.222656 C 11.765625 184.785156 11.003906 187.449219 9.714844 191.96875 C 8.019531 197.902344 8.304688 198.011719 5.683594 208.21875 C 4.558594 212.597656 4.105469 214.132812 4.347656 214.222656 C 4.828125 214.40625 7.863281 208.730469 10.058594 202.308594 C 12.242188 195.945312 11.570312 194.742188 14.152344 187.242188 C 15.410156 183.585938 15.746094 183.355469 17.265625 178.882812 C 17.949219 176.867188 21.011719 167.867188 20.304688 167.574219 " fill-opacity="1" fill-rule="nonzero"/><path fill="#6e861f" d="M 19.832031 168.09375 C 19.5625 168.359375 23.519531 174.007812 30.050781 178.226562 C 33.175781 180.246094 35.859375 181.273438 38.03125 182.089844 C 41.789062 183.503906 47.246094 185.039062 47.578125 184.265625 C 47.890625 183.550781 43.753906 181 40.910156 179.503906 C 34.394531 176.078125 32.046875 176.820312 26.820312 173.6875 C 22.164062 170.890625 20.027344 167.898438 19.832031 168.09375 " fill-opacity="1" fill-rule="nonzero"/><path fill="#5d6d11" d="M 22.890625 178.230469 C 22.117188 178.386719 24.640625 185.289062 22.472656 194.617188 C 21.34375 199.496094 19.039062 204.542969 18.425781 205.894531 C 15.917969 211.394531 14.773438 213.644531 14.773438 213.644531 C 13.34375 216.453125 12.785156 217.3125 12.972656 217.453125 C 13.394531 217.777344 17.691406 214.039062 20.484375 208.597656 C 21.355469 206.902344 22.003906 204.695312 23.292969 200.285156 C 25.039062 194.324219 25.914062 191.292969 25.933594 188.851562 C 25.972656 183.039062 23.550781 178.097656 22.890625 178.230469 " fill-opacity="1" fill-rule="nonzero"/><path fill="#6e861f" d="M 26.8125 182.433594 C 26.390625 182.457031 26.605469 185.683594 25.859375 190.902344 C 25.578125 192.882812 24.746094 198.023438 22.535156 204.019531 C 21.082031 207.980469 20.953125 207.066406 19.195312 211.722656 C 18.203125 214.34375 18.113281 214.976562 15.457031 223.394531 C 14.140625 227.566406 13.886719 228.28125 14.023438 228.339844 C 14.5 228.554688 18.902344 219.800781 22.199219 212.390625 C 24.753906 206.648438 25.582031 204.109375 25.835938 203.320312 C 28.238281 195.800781 28.214844 191.324219 28.1875 190.035156 C 28.097656 186.144531 27.269531 182.414062 26.8125 182.433594 " fill-opacity="1" fill-rule="nonzero"/><path fill="#5d6d11" d="M 28.304688 186.757812 C 27.582031 187.097656 29.65625 193.121094 31.296875 197.066406 C 32.910156 200.957031 34.183594 204.011719 36.890625 207.480469 C 39.085938 210.289062 41.253906 212.03125 45.582031 215.519531 C 48.894531 218.179688 51.953125 220.648438 52.429688 220.191406 C 53.089844 219.5625 48.796875 213.28125 44.085938 208.316406 C 42.21875 206.347656 40.535156 204.855469 38.410156 201.824219 C 37.09375 199.953125 36.785156 199.175781 35.257812 196.578125 C 34.441406 195.195312 29.21875 186.328125 28.304688 186.757812 " fill-opacity="1" fill-rule="nonzero"/><path fill="#6e861f" d="M 31.105469 201.027344 C 31.246094 200.988281 31.71875 204.292969 33.792969 208.171875 C 36.804688 213.792969 41.253906 216.996094 46.691406 220.914062 C 49.460938 222.914062 52.015625 224.75 55.882812 226.484375 C 58.921875 227.84375 61.46875 228.558594 61.378906 228.972656 C 61.285156 229.40625 58.273438 229.292969 55.601562 228.730469 C 49.746094 227.507812 45.789062 224.210938 42.90625 221.753906 C 40.3125 219.542969 37.023438 216.683594 34.410156 211.734375 C 31.539062 206.292969 30.925781 201.082031 31.105469 201.027344 " fill-opacity="1" fill-rule="nonzero"/><path fill="#6e861f" d="M 30.816406 217.015625 C 30.5625 216.898438 28.984375 221.515625 24.414062 226.960938 C 22.484375 229.257812 20.761719 230.824219 17.363281 233.914062 C 11.816406 238.949219 9.007812 240.804688 9.292969 241.273438 C 9.601562 241.773438 13.152344 240.421875 16.183594 238.507812 C 17.808594 237.472656 20.835938 235.300781 24.328125 230.4375 C 29.085938 223.796875 31.121094 217.15625 30.816406 217.015625 " fill-opacity="1" fill-rule="nonzero"/><path fill="#6e861f" d="M 33.261719 227.667969 C 32.515625 227.957031 33.550781 233.070312 35.273438 237.371094 C 37.558594 243.078125 40.824219 246.796875 43.136719 249.382812 C 46.457031 253.105469 50.015625 256.046875 50.3125 255.773438 C 50.585938 255.515625 47.917969 252.8125 44.835938 247.734375 C 43.078125 244.84375 42.890625 243.984375 40.769531 239.855469 C 38.921875 236.253906 34.304688 227.257812 33.261719 227.667969 " fill-opacity="1" fill-rule="nonzero"/><path fill="#5d6d11" d="M 33.296875 232.574219 C 33.777344 232.839844 32.832031 234.902344 31.527344 239.023438 C 28.472656 248.695312 29.394531 250.90625 26.605469 254.410156 C 23.929688 257.765625 19.851562 259.773438 18.988281 258.992188 C 18.226562 258.300781 20.351562 255.769531 23.621094 248.191406 C 25.691406 243.378906 25.84375 242.078125 27.738281 238.984375 C 29.746094 235.699219 32.632812 232.191406 33.296875 232.574219 " fill-opacity="1" fill-rule="nonzero"/></svg>