<svg xmlns="http://www.w3.org/2000/svg" xmlns:xlink="http://www.w3.org/1999/xlink" width="1280" zoomAndPan="magnify" viewBox="0 0 960 1439.999935" height="1920" preserveAspectRatio="xMidYMid meet" version="1.0"><defs><clipPath id="e00da78eb8"><path d="M 589 307 L 659.714844 307 L 659.714844 379 L 589 379 Z M 589 307 " clip-rule="nonzero"/></clipPath></defs><path fill="#000000" d="M 599.761719 1376.261719 C 581.339844 1337.289062 589.089844 1292.484375 588.476562 1250.898438 C 588.628906 1217.296875 573.125 1186.300781 570.898438 1153.003906 C 568.980469 1135.128906 569.363281 1116.867188 571.511719 1098.992188 C 574.121094 1079.8125 578.34375 1060.554688 577.117188 1041.144531 C 576.042969 1025.109375 572.664062 1009.382812 570.746094 993.421875 C 568.75 977.847656 568.519531 962.042969 565.449219 946.546875 C 562.453125 931.96875 555.546875 918.773438 551.863281 904.425781 C 549.175781 894.835938 547.714844 884.9375 545.796875 875.195312 C 539.964844 848.191406 532.441406 821.335938 520.464844 796.480469 C 497.589844 755.816406 468.652344 711.625 476.863281 662.753906 C 485.386719 615.722656 497.207031 569.921875 504.804688 522.890625 C 509.71875 495.195312 503.195312 468.265625 497.589844 441.488281 C 490.910156 411.03125 503.039062 381.492188 500.429688 350.652344 C 500.046875 336.839844 500.277344 322.878906 497.820312 309.222656 C 494.671875 293.953125 489.761719 279.148438 486.765625 263.878906 C 481.546875 244.316406 483.390625 224.214844 484.617188 204.34375 C 484.769531 199.433594 484.539062 194.523438 484.234375 189.613281 C 484.15625 188.308594 485.230469 187.234375 486.460938 187.082031 C 487.839844 186.929688 489.222656 187.925781 489.300781 189.304688 C 491.140625 205.109375 488.226562 221.300781 488.839844 237.027344 C 490.679688 257.664062 498.28125 277.152344 503.578125 297.023438 C 508.71875 314.132812 508.796875 332.085938 509.257812 349.808594 C 509.640625 361.777344 509.949219 373.820312 508.796875 385.789062 C 506.570312 404.433594 504.34375 423.304688 508.566406 441.875 C 511.5625 458.675781 515.324219 475.476562 515.628906 492.585938 C 515.9375 516.828125 511.5625 540.765625 507.414062 564.550781 C 500.96875 598.460938 493.292969 632.449219 486.921875 666.359375 C 480.777344 711.242188 506.339844 752.289062 527.296875 789.726562 C 542.574219 820.109375 552.628906 853.867188 558.691406 886.933594 C 561.6875 906.957031 571.972656 924.910156 575.582031 944.703125 C 577.808594 956.671875 578.269531 968.871094 579.417969 980.996094 C 581.414062 1004.703125 588.171875 1027.949219 587.402344 1051.886719 C 585.867188 1081.730469 577.421875 1111.039062 580.492188 1141.113281 C 581.800781 1177.09375 598.53125 1210.699219 597.765625 1246.832031 C 596.921875 1289.566406 591.546875 1333.683594 604.597656 1375.1875 C 606.054688 1375.648438 606.441406 1377.492188 605.59375 1378.640625 C 603.984375 1381.554688 600.683594 1378.257812 599.761719 1376.261719 Z M 599.761719 1376.261719 " fill-opacity="1" fill-rule="nonzero"/><path fill="#000000" d="M 509.105469 495.578125 C 508.414062 488.902344 509.871094 481.84375 509.796875 475.171875 C 510.332031 452.613281 505.957031 429.289062 514.09375 407.578125 C 517.625 399.0625 523.230469 391.390625 525.761719 382.414062 C 528.753906 372.441406 528.984375 361.546875 534.742188 352.570312 C 535.585938 350.882812 538.351562 351.878906 537.890625 353.71875 C 537.121094 356.480469 536.664062 359.320312 536.585938 362.160156 C 536.664062 369.601562 536.203125 377.121094 534.589844 384.332031 C 531.597656 397.222656 522.84375 408.039062 521.234375 421.386719 C 518.007812 440.03125 520.542969 457.753906 517.777344 476.167969 C 517.472656 479.3125 513.402344 503.480469 509.105469 495.578125 Z M 509.105469 495.578125 " fill-opacity="1" fill-rule="nonzero"/><path fill="#000000" d="M 477.09375 701.039062 C 474.40625 690.988281 471.335938 681.550781 466.269531 672.652344 C 462.203125 665.285156 455.292969 659.992188 451.148438 652.625 C 447.464844 646.640625 444.929688 640.042969 442.550781 633.445312 C 439.019531 623.933594 437.332031 613.730469 433.570312 604.292969 C 424.511719 584.726562 405.703125 570.457031 400.867188 548.667969 C 400.867188 547.671875 400.5625 546.828125 401.253906 546.136719 C 402.175781 545.371094 403.554688 546.289062 403.324219 547.363281 C 408.390625 555.035156 413.457031 562.710938 419.445312 569.539062 C 426.585938 577.515625 434.414062 585.035156 439.480469 594.625 C 447.539062 609.277344 448.230469 625.238281 454.449219 640.273438 C 459.363281 652.625 468.574219 661.679688 473.410156 674.03125 C 477.09375 682.394531 479.398438 691.371094 481.394531 700.117188 C 481.929688 702.496094 477.9375 703.570312 477.09375 701.039062 Z M 477.09375 701.039062 " fill-opacity="1" fill-rule="nonzero"/><path fill="#000000" d="M 578.269531 1011.375 C 574.96875 1009.152344 573.125 1004.164062 571.28125 1001.171875 C 569.363281 997.644531 567.289062 994.113281 565.21875 990.585938 C 554.164062 972.324219 544.492188 952.992188 540.347656 931.890625 C 536.433594 914.707031 536.96875 896.984375 536.738281 879.414062 C 537.121094 858.011719 542.113281 836.910156 542.34375 815.507812 C 543.035156 793.792969 538.886719 772.617188 536.277344 751.214844 C 535.585938 733.492188 538.121094 715.613281 543.339844 698.734375 C 545.105469 695.207031 544.339844 689.144531 549.019531 688.992188 C 550.710938 689.144531 552.246094 690.757812 552.015625 692.523438 C 551.246094 697.433594 550.710938 702.417969 549.789062 707.328125 C 547.253906 720.832031 545.183594 734.335938 544.644531 747.992188 C 544.722656 768.707031 548.175781 789.34375 547.253906 810.058594 C 546.71875 836.679688 544.800781 863.148438 546.335938 889.773438 C 546.71875 911.40625 549.019531 933.195312 557.003906 953.375 C 562.453125 965.878906 569.441406 977.695312 575.273438 989.96875 C 578.113281 996.03125 581.109375 1002.554688 580.722656 1009.457031 C 581.492188 1011.070312 579.417969 1012.449219 578.269531 1011.375 Z M 578.269531 1011.375 " fill-opacity="1" fill-rule="nonzero"/><path fill="#000000" d="M 575.65625 1169.113281 C 558.921875 1155 559.84375 1128.683594 548.636719 1110.652344 C 544.875 1104.363281 541.652344 1097.378906 536.125 1092.316406 C 529.445312 1086.410156 521.464844 1082.265625 514.707031 1076.4375 C 505.265625 1067.074219 496.4375 1056.640625 489.683594 1045.210938 C 484.539062 1034.238281 483.390625 1021.886719 480.242188 1010.300781 C 479.167969 1006.082031 478.015625 1001.863281 476.710938 997.71875 C 476.25 996.183594 478.628906 995.417969 479.089844 996.953125 C 481.164062 1003.089844 483.390625 1009.152344 485.613281 1015.289062 C 489.375 1025.03125 491.832031 1035.542969 497.667969 1044.289062 C 504.730469 1053.417969 512.636719 1061.476562 521.15625 1068.839844 C 527.296875 1073.519531 534.28125 1077.203125 540.269531 1082.035156 C 552.320312 1091.625 558.847656 1106.664062 564.449219 1120.628906 C 568.902344 1133.746094 571.898438 1147.402344 576.734375 1160.367188 C 577.5 1162.824219 578.421875 1164.820312 579.113281 1167.121094 C 579.496094 1168.730469 577.191406 1169.804688 575.65625 1169.113281 Z M 575.65625 1169.113281 " fill-opacity="1" fill-rule="nonzero"/><path fill="#000000" d="M 485.769531 189.691406 C 481.855469 189 478.628906 186.160156 474.636719 185.625 C 465.351562 185.164062 454.832031 186.699219 447.769531 179.027344 C 442.933594 173.117188 439.019531 166.214844 435.257812 159.613281 C 434.261719 158.15625 432.570312 157.464844 431.496094 156.085938 C 430.421875 154.78125 432.417969 153.09375 433.492188 154.398438 C 434.722656 155.933594 436.488281 157.160156 437.945312 158.15625 C 445.085938 163.527344 449.765625 173.347656 459.132812 174.960938 C 463.585938 175.878906 468.035156 174.269531 472.488281 174.574219 C 477.9375 174.730469 483.390625 177.109375 486.84375 181.402344 C 488.53125 183.398438 490.449219 186.851562 488.148438 189.074219 C 487.839844 189.917969 486.535156 190.304688 485.769531 189.691406 Z M 485.769531 189.691406 " fill-opacity="1" fill-rule="nonzero"/><path fill="#000000" d="M 478.9375 184.78125 C 449.304688 169.359375 455.371094 162.835938 453.527344 133.53125 C 451.300781 126.855469 446.390625 121.175781 444.855469 114.195312 C 444.546875 112.585938 446.773438 111.972656 447.464844 113.351562 C 449.304688 116.957031 451.457031 120.179688 453.605469 123.480469 C 457.828125 129.308594 461.128906 135.753906 461.894531 142.964844 C 463.507812 150.253906 462.816406 158.925781 468.113281 164.753906 C 474.023438 170.816406 484.464844 173.730469 486.613281 182.785156 C 487.304688 187.3125 481.394531 186.699219 478.9375 184.78125 Z M 478.9375 184.78125 " fill-opacity="1" fill-rule="nonzero"/><path fill="#000000" d="M 485.460938 186.621094 C 469.878906 177.722656 484.695312 157.082031 490.527344 146.1875 C 493.214844 140.972656 493.445312 134.910156 495.132812 129.386719 C 496.667969 124.09375 498.894531 119.183594 500.125 113.8125 C 500.355469 112.738281 502.117188 112.96875 501.964844 114.121094 C 501.582031 116.882812 501.429688 119.71875 501.351562 122.25 C 500.96875 130.996094 502.734375 140.050781 500.199219 148.566406 C 497.589844 156.007812 493.214844 162.683594 490.679688 170.203125 C 487.996094 174.882812 493.828125 186.773438 485.460938 186.621094 Z M 485.460938 186.621094 " fill-opacity="1" fill-rule="nonzero"/><path fill="#000000" d="M 488.609375 189.917969 C 482.007812 187.386719 491.066406 180.175781 493.675781 177.875 C 497.667969 173.886719 500.8125 169.207031 503.882812 164.449219 C 509.335938 153.859375 518.699219 144.039062 531.519531 144.960938 C 535.511719 144.808594 538.429688 142.507812 541.652344 140.511719 C 543.496094 139.285156 545.644531 142.121094 543.878906 143.503906 C 536.96875 149.105469 527.910156 151.558594 521.464844 157.773438 C 511.792969 169.359375 506.570312 189 488.609375 189.917969 Z M 488.609375 189.917969 " fill-opacity="1" fill-rule="nonzero"/><path fill="#000000" d="M 504.5 193.910156 C 498.433594 193.066406 489.222656 193.371094 486.613281 186.621094 C 486.382812 185.316406 487.226562 183.859375 488.53125 183.476562 C 497.359375 181.632812 506.265625 184.472656 515.09375 184.703125 C 519.3125 184.242188 522.613281 181.097656 526.144531 179.027344 C 528.753906 177.335938 534.4375 173.042969 536.277344 177.492188 C 536.816406 179.714844 533.976562 180.253906 532.671875 180.945312 C 523.230469 185.855469 515.9375 196.519531 504.5 193.910156 Z M 504.5 193.910156 " fill-opacity="1" fill-rule="nonzero"/><path fill="#000000" d="M 532.515625 358.785156 C 529.214844 354.792969 530.828125 348.886719 530.0625 344.128906 C 528.753906 336.226562 525.453125 329.324219 526.914062 321.265625 C 527.449219 311.753906 533.898438 304.082031 535.585938 294.875 C 536.277344 289.734375 536.507812 284.441406 536.894531 279.222656 C 536.894531 278.53125 537.582031 277.917969 538.273438 277.917969 C 539.042969 277.84375 539.808594 278.53125 539.808594 279.300781 C 539.734375 284.824219 540.039062 290.425781 539.195312 295.949219 C 537.660156 305.308594 534.050781 314.515625 535.585938 324.183594 C 536.894531 333.160156 541.804688 341.597656 539.964844 350.957031 C 539.734375 354.5625 537.199219 362.007812 532.515625 358.785156 Z M 532.515625 358.785156 " fill-opacity="1" fill-rule="nonzero"/><path fill="#000000" d="M 534.128906 361.929688 C 529.0625 361.007812 531.828125 355.179688 534.359375 352.875 C 541.421875 345.359375 551.863281 344.128906 561.148438 340.90625 C 565.679688 339.296875 569.363281 345.742188 565.449219 348.734375 C 564.066406 349.730469 562.761719 350.726562 561.226562 351.417969 C 557.3125 353.183594 553.089844 353.644531 549.175781 355.253906 C 543.953125 357.019531 539.503906 361.085938 534.128906 361.929688 Z M 534.128906 361.929688 " fill-opacity="1" fill-rule="nonzero"/><path fill="#000000" d="M 548.023438 379.652344 C 539.65625 379.652344 534.207031 371.828125 533.515625 364 C 533.207031 360.933594 532.746094 354.5625 537.199219 354.71875 C 538.582031 355.101562 539.425781 356.480469 540.039062 357.710938 C 544.644531 368.449219 545.335938 373.820312 558.847656 372.285156 C 565.984375 371.210938 572.511719 374.28125 578.957031 376.890625 C 579.648438 377.195312 580.035156 377.964844 579.804688 378.65625 C 578.726562 380.726562 575.8125 378.425781 574.351562 378.269531 C 571.4375 377.503906 568.59375 376.429688 565.679688 376.121094 C 559.613281 376.964844 554.011719 379.957031 548.023438 379.652344 Z M 548.023438 379.652344 " fill-opacity="1" fill-rule="nonzero"/><path fill="#000000" d="M 535.511719 353.71875 C 534.050781 352.261719 535.203125 350.039062 535.972656 348.503906 C 539.117188 342.441406 541.882812 335.996094 545.644531 330.320312 C 547.332031 328.785156 551.554688 323.875 553.78125 326.175781 C 554.394531 326.867188 554.394531 327.941406 553.703125 328.632812 C 549.558594 331.929688 549.636719 336.304688 548.5625 340.984375 C 547.792969 344.4375 539.347656 356.25 535.511719 353.71875 Z M 535.511719 353.71875 " fill-opacity="1" fill-rule="nonzero"/><path fill="#000000" d="M 381.601562 573.988281 C 373.3125 573.757812 368.089844 566.238281 362.410156 561.175781 C 357.652344 556.726562 353.351562 551.355469 348.59375 547.058594 C 342.988281 543.070312 335.542969 542.761719 330.476562 537.851562 C 328.480469 536.242188 324.414062 534.859375 325.949219 531.558594 C 326.640625 530.257812 328.175781 529.71875 329.554688 530.179688 C 335.390625 532.632812 341.453125 532.863281 347.519531 534.320312 C 361.488281 539.230469 368.398438 556.417969 381.292969 563.324219 C 388.355469 560.253906 389.125 548.363281 397.183594 545.292969 C 399.410156 543.988281 403.632812 544.296875 403.710938 547.59375 C 403.019531 549.742188 400.636719 551.125 399.71875 553.273438 C 395.035156 561.019531 392.65625 573.605469 381.601562 573.988281 Z M 381.601562 573.988281 " fill-opacity="1" fill-rule="nonzero"/><path fill="#000000" d="M 395.265625 550.125 C 364.097656 534.859375 402.789062 514.527344 377.378906 490.667969 C 371.929688 485.066406 369.78125 477.472656 367.398438 470.261719 C 366.863281 468.648438 369.394531 467.804688 369.933594 469.414062 C 372.390625 480.464844 379.914062 487.984375 386.515625 496.652344 C 389.816406 502.867188 393.882812 509.234375 394.035156 516.523438 C 394.421875 522.582031 392.65625 528.566406 393.269531 534.550781 C 395.417969 538.542969 400.332031 541.074219 401.175781 545.984375 C 401.945312 549.589844 398.488281 552.042969 395.265625 550.125 Z M 395.265625 550.125 " fill-opacity="1" fill-rule="nonzero"/><path fill="#000000" d="M 401.097656 549.207031 C 394.574219 546.980469 404.324219 537.929688 406.011719 534.78125 C 408.699219 531.175781 413.074219 529.640625 416.453125 526.804688 C 420.367188 523.65625 420.136719 518.363281 422.667969 514.527344 C 423.285156 513.761719 424.28125 513.453125 425.203125 513.914062 C 428.734375 516.292969 420.671875 524.425781 419.367188 527.1875 C 414.839844 535.242188 412 548.054688 401.097656 549.207031 Z M 401.097656 549.207031 " fill-opacity="1" fill-rule="nonzero"/><path fill="#000000" d="M 568.671875 701.726562 C 581.492188 700.960938 592.546875 694.363281 602.832031 687.6875 C 615.039062 678.941406 619.71875 670.808594 617.03125 655.773438 C 616.726562 653.625 618.492188 652.011719 618.875 650.09375 C 620.488281 642.574219 618.261719 634.671875 613.960938 628.535156 C 608.972656 621.9375 601.066406 617.105469 593.082031 615.492188 C 590.625 615.339844 587.554688 615.109375 586.789062 612.347656 C 585.945312 606.746094 584.101562 601.453125 581.03125 596.695312 C 564.066406 574.984375 533.132812 597.539062 528.984375 618.945312 C 527.988281 621.9375 528.679688 625.238281 527.757812 628.230469 C 525.453125 632.371094 520.542969 634.75 518.238281 638.816406 C 511.332031 649.710938 512.023438 659.683594 518.46875 670.503906 C 523.691406 680.015625 534.742188 686.230469 544.875 688.457031 C 543.722656 684.542969 549.097656 682.242188 550.710938 686.230469 C 552.78125 694.898438 560.152344 700.5 568.671875 701.726562 Z M 570.054688 710.015625 C 560.535156 709.402344 551.324219 703.492188 547.179688 694.898438 C 541.191406 698.046875 534.972656 693.367188 529.523438 690.988281 C 518.699219 685.769531 512.40625 675.335938 509.566406 664.058594 C 506.570312 656.617188 510.871094 649.019531 513.25 642.039062 C 514.785156 635.671875 520.082031 631.910156 524.765625 627.84375 C 516.242188 587.644531 583.410156 556.570312 591.472656 610.277344 C 609.203125 609.277344 623.710938 626.386719 623.25 643.496094 C 623.558594 647.640625 622.636719 651.707031 620.640625 655.3125 C 620.792969 658.839844 621.714844 662.292969 621.5625 665.824219 C 621.640625 687.457031 590.089844 709.324219 570.054688 710.015625 Z M 570.054688 710.015625 " fill-opacity="1" fill-rule="nonzero"/><path fill="#000000" d="M 564.066406 663.0625 C 559.613281 662.523438 561.304688 657.460938 560.917969 654.390625 C 559.84375 646.105469 556.46875 638.28125 551.9375 631.296875 C 549.789062 627.617188 554.855469 626.617188 557.3125 628.304688 C 565.21875 630.378906 574.660156 662.292969 564.066406 663.0625 Z M 564.066406 663.0625 " fill-opacity="1" fill-rule="nonzero"/><path fill="#000000" d="M 571.511719 649.40625 C 568.519531 649.25 562.148438 648.175781 563.605469 643.957031 C 565.140625 641.425781 568.441406 640.886719 571.207031 640.429688 C 575.503906 639.890625 579.726562 638.894531 583.871094 637.664062 C 585.789062 637.207031 587.710938 636.667969 589.550781 635.976562 C 592.238281 635.058594 594.15625 638.96875 591.703125 640.503906 C 585.945312 645.492188 579.417969 649.789062 571.511719 649.40625 Z M 571.511719 649.40625 " fill-opacity="1" fill-rule="nonzero"/><path fill="#000000" d="M 513.785156 713.621094 C 525.53125 709.402344 523.84375 691.523438 537.890625 690.832031 C 541.730469 690.988281 550.324219 690.527344 550.480469 695.972656 C 549.636719 701.34375 542.804688 701.726562 538.503906 701.269531 C 531.289062 700.730469 529.0625 709.015625 523.84375 712.390625 C 521.234375 714.617188 517.933594 715.921875 514.632812 716.535156 C 513.171875 716.457031 512.40625 714.386719 513.785156 713.621094 Z M 513.785156 713.621094 " fill-opacity="1" fill-rule="nonzero"/><path fill="#000000" d="M 532.902344 695.742188 C 526.300781 695.4375 519.773438 694.363281 513.171875 693.902344 C 511.175781 693.75 509.488281 692.523438 508.335938 690.910156 C 506.957031 688.914062 503.347656 686.769531 505.574219 684.160156 C 508.261719 681.628906 510.792969 685.617188 513.019531 686.921875 C 516.089844 686.613281 519.46875 686.691406 522 686.84375 C 527.21875 686.996094 534.050781 686.078125 537.738281 690.605469 C 539.734375 693.824219 535.972656 696.203125 532.902344 695.742188 Z M 532.902344 695.742188 " fill-opacity="1" fill-rule="nonzero"/><path fill="#000000" d="M 588.476562 612.886719 C 584.179688 607.667969 594.234375 603.601562 597.996094 602.066406 C 600.835938 600.609375 602.753906 598 604.445312 595.46875 C 604.90625 594.855469 605.75 594.625 606.363281 595.007812 C 607.054688 595.390625 607.285156 596.160156 607.054688 596.851562 C 606.132812 599.382812 604.980469 601.992188 603.675781 604.445312 C 601.296875 608.589844 596.078125 609.507812 592.46875 612.269531 C 591.394531 613.113281 589.707031 614.648438 588.476562 612.886719 Z M 588.476562 612.886719 " fill-opacity="1" fill-rule="nonzero"/><path fill="#000000" d="M 476.097656 999.332031 C 474.867188 997.796875 475.40625 995.496094 476.019531 993.882812 C 478.554688 987.285156 485.539062 985.136719 491.449219 982.835938 C 498.203125 978.617188 501.351562 970.714844 507.183594 965.417969 C 511.023438 961.660156 514.863281 957.902344 519.082031 954.601562 C 519.851562 953.988281 520.925781 953.988281 521.695312 954.679688 C 522.460938 955.371094 522.539062 956.671875 521.769531 957.441406 C 514.707031 964.5 510.714844 974.472656 506.1875 982.914062 C 502.964844 988.359375 497.667969 992.65625 491.371094 993.882812 C 487.304688 994.265625 483.621094 995.800781 480.546875 998.5625 C 479.472656 999.636719 477.402344 1000.941406 476.097656 999.332031 Z M 476.097656 999.332031 " fill-opacity="1" fill-rule="nonzero"/><path fill="#000000" d="M 457.367188 1049.199219 C 456.675781 1043.0625 456.136719 1036.386719 458.902344 1030.632812 C 460.898438 1026.644531 463.8125 1023.34375 465.734375 1019.429688 C 468.191406 1014.292969 467.269531 1008.382812 468.34375 1002.859375 C 468.726562 998.5625 471.414062 993.191406 476.402344 993.578125 C 478.09375 993.730469 480.011719 995.109375 479.933594 996.953125 C 479.628906 998.332031 478.859375 999.714844 478.246094 1001.019531 C 476.632812 1006.464844 477.019531 1012.527344 474.023438 1017.511719 C 464.734375 1029.175781 457.441406 1032.089844 459.824219 1049.121094 C 459.746094 1050.582031 457.441406 1050.734375 457.367188 1049.199219 Z M 457.367188 1049.199219 " fill-opacity="1" fill-rule="nonzero"/><path fill="#000000" d="M 439.558594 1019.277344 C 429.039062 1010.683594 435.183594 993.578125 415.835938 997.71875 C 413.84375 997.796875 413.6875 994.804688 415.683594 994.652344 C 434.796875 989.125 432.957031 998.410156 443.472656 1009.996094 C 451.300781 1003.089844 458.59375 992.734375 470.109375 992.886719 C 474.5625 992.578125 480.394531 997.414062 475.636719 1001.25 C 470.722656 1002.9375 465.273438 1003.933594 461.28125 1007.386719 C 454.679688 1010.914062 447.695312 1024.726562 439.558594 1019.277344 Z M 439.558594 1019.277344 " fill-opacity="1" fill-rule="nonzero"/><path fill="#000000" d="M 513.171875 961.738281 C 511.023438 958.589844 514.09375 954.066406 515.324219 951.074219 C 517.777344 945.242188 519.621094 938.796875 518.546875 932.507812 C 516.242188 924.375 510.101562 918.007812 506.339844 910.5625 C 500.046875 893.683594 480.320312 884.019531 463.585938 891.230469 C 448.386719 896.90625 438.789062 908.570312 437.484375 924.835938 C 437.253906 926.367188 437.40625 928.824219 435.257812 928.746094 C 434.261719 928.671875 433.570312 927.75 433.648438 926.828125 C 434.261719 913.097656 439.710938 898.902344 452.605469 892.457031 C 476.941406 875.960938 506.648438 886.320312 515.09375 914.554688 C 517.472656 920.769531 520.925781 926.675781 522.460938 933.195312 C 522.769531 939.640625 522.308594 946.46875 520.542969 952.761719 C 519.773438 954.753906 516.011719 964.882812 513.171875 961.738281 Z M 513.171875 961.738281 " fill-opacity="1" fill-rule="nonzero"/><path fill="#000000" d="M 390.507812 976.007812 C 377.6875 964.882812 368.167969 948.234375 370.777344 930.820312 C 373.234375 916.546875 382.984375 902.355469 397.644531 898.980469 C 406.394531 894.757812 415.914062 890.308594 425.96875 891.996094 C 431.726562 892.996094 437.792969 894.683594 441.859375 899.210938 C 443.320312 900.359375 445.46875 902.890625 442.78125 903.964844 C 438.636719 904.121094 435.566406 899.285156 431.574219 898.59375 C 423.359375 895.757812 414.226562 897.367188 406.164062 899.898438 C 401.023438 902.816406 395.34375 904.195312 390.121094 906.726562 C 376.304688 915.628906 371.777344 936.496094 379.144531 950.917969 C 383.597656 958.976562 389.738281 965.34375 393.808594 973.320312 C 395.113281 975.238281 392.273438 977.695312 390.507812 976.007812 Z M 390.507812 976.007812 " fill-opacity="1" fill-rule="nonzero"/><path fill="#000000" d="M 416.683594 1047.203125 C 404.09375 1043.828125 389.96875 1040.375 381.523438 1029.710938 C 372.695312 1011.375 361.949219 989.894531 369.703125 969.484375 C 370.546875 966.339844 376.382812 954.910156 380.066406 959.433594 C 380.605469 960.507812 379.988281 961.8125 378.914062 962.121094 C 367.171875 979 373.3125 995.339844 380.296875 1012.449219 C 381.984375 1018.359375 383.214844 1025.03125 387.511719 1029.558594 C 393.730469 1035.695312 402.328125 1038.226562 410.542969 1040.375 C 417.21875 1042.832031 424.972656 1043.675781 430.882812 1038.84375 C 433.800781 1036.769531 435.796875 1033.933594 438.558594 1031.707031 C 442.703125 1029.023438 447.234375 1026.414062 450.765625 1022.960938 C 455.753906 1018.664062 457.828125 1012.144531 462.433594 1007.539062 C 464.890625 1005.46875 467.34375 1003.089844 469.265625 1000.636719 C 470.953125 998.640625 474.253906 1001.25 472.640625 1003.398438 C 468.652344 1008.765625 463.738281 1013.21875 460.589844 1019.125 C 455.90625 1026.796875 448.460938 1032.246094 440.554688 1036.308594 C 434.335938 1043.292969 426.429688 1049.351562 416.683594 1047.203125 Z M 416.683594 1047.203125 " fill-opacity="1" fill-rule="nonzero"/><path fill="#000000" d="M 446.234375 952.914062 C 443.089844 942.863281 438.867188 920.539062 451.226562 915.78125 C 452.148438 916.011719 452.835938 916.933594 452.761719 917.851562 C 451.609375 921.535156 449.535156 925.0625 449.382812 929.054688 C 449.765625 936.417969 451.839844 943.554688 452.992188 950.84375 C 453.296875 952.53125 452.300781 954.296875 450.609375 954.832031 C 448.921875 955.292969 446.925781 954.523438 446.234375 952.914062 Z M 446.234375 952.914062 " fill-opacity="1" fill-rule="nonzero"/><path fill="#000000" d="M 452.914062 966.261719 C 451.6875 964.191406 450.535156 960.28125 453.683594 959.511719 C 456.214844 959.050781 456.675781 961.890625 457.671875 963.578125 C 459.132812 966.570312 454.601562 969.101562 452.914062 966.261719 Z M 452.914062 966.261719 " fill-opacity="1" fill-rule="nonzero"/><path fill="#000000" d="M 380.375 993.578125 C 377.53125 990.890625 377.226562 980.609375 381.292969 978.921875 C 383.214844 978.539062 383.289062 981.070312 383.597656 982.144531 C 384.289062 984.832031 384.980469 987.515625 385.515625 990.277344 C 386.128906 993.039062 382.597656 995.265625 380.375 993.578125 Z M 380.375 993.578125 " fill-opacity="1" fill-rule="nonzero"/><path fill="#000000" d="M 403.019531 551.199219 C 396.800781 547.289062 411.847656 541.535156 414.761719 540.230469 C 421.363281 537.542969 428.964844 537.851562 434.875 533.476562 C 434.875 533.476562 434.875 533.476562 434.796875 533.476562 C 434.722656 533.554688 434.644531 533.554688 434.566406 533.632812 C 442.703125 528.722656 449.382812 522.199219 455.292969 514.835938 C 461.433594 509.3125 467.421875 503.480469 469.878906 495.347656 C 470.800781 486.832031 465.65625 479.160156 461.203125 472.40625 C 456.214844 464.277344 452.835938 455.222656 446.773438 447.855469 C 438.558594 434.96875 425.511719 430.441406 412.613281 440.03125 C 409.773438 441.71875 407.164062 437.191406 410.082031 435.582031 C 428.964844 423.535156 451.992188 437.5 457.367188 457.292969 C 460.4375 463.738281 464.890625 468.800781 468.574219 474.710938 C 473.640625 484.53125 476.402344 496.882812 470.722656 506.933594 C 460.054688 521.28125 448.078125 535.242188 431.421875 542.453125 C 421.75 544.757812 412.996094 550.742188 403.019531 551.199219 Z M 403.019531 551.199219 " fill-opacity="1" fill-rule="nonzero"/><path fill="#000000" d="M 319.578125 509.082031 C 317.042969 502.40625 317.199219 495.269531 317.582031 488.289062 C 318.042969 481.769531 316.8125 475.09375 318.117188 468.648438 C 322.035156 452.921875 334.390625 438.574219 349.4375 432.511719 C 357.34375 429.445312 365.789062 428.371094 373.925781 426.070312 C 388.28125 422.15625 407.011719 419.316406 418.753906 430.519531 C 420.671875 431.667969 419.0625 433.511719 417.296875 433.355469 C 412.613281 432.511719 408.390625 429.980469 403.710938 429.136719 C 390.351562 426.222656 377.839844 432.359375 365.097656 435.042969 C 345.984375 437.5 333.546875 444.097656 324.71875 461.667969 C 320.574219 469.800781 322.417969 479.082031 322.570312 487.828125 C 322.648438 494.425781 322.339844 501.101562 324.644531 507.394531 C 325.71875 510.460938 320.730469 512.148438 319.578125 509.082031 Z M 319.578125 509.082031 " fill-opacity="1" fill-rule="nonzero"/><path fill="#000000" d="M 357.039062 581.8125 C 346.675781 580.816406 337.691406 576.367188 329.941406 569.613281 C 321.878906 564.167969 313.898438 557.261719 311.746094 547.289062 C 309.136719 529.257812 300.464844 509.695312 310.671875 492.507812 C 312.207031 490.4375 314.585938 485.679688 317.65625 487.0625 C 318.273438 487.523438 318.503906 488.441406 318.195312 489.132812 C 315.96875 493.738281 313.511719 497.957031 312.515625 502.867188 C 310.136719 512.839844 313.050781 522.199219 315.125 531.789062 C 316.351562 537.929688 316.351562 544.449219 318.886719 550.28125 C 322.878906 557.722656 330.785156 561.636719 337.386719 566.546875 C 342.988281 571.300781 349.128906 575.214844 356.578125 576.367188 C 369.394531 580.355469 375.230469 578.742188 383.675781 568.078125 C 384.824219 566.160156 387.820312 567.925781 386.667969 569.84375 C 379.375 580.125 369.703125 585.417969 357.039062 581.8125 Z M 357.039062 581.8125 " fill-opacity="1" fill-rule="nonzero"/><path fill="#000000" d="M 333.703125 491.589844 C 332.550781 484.605469 332.703125 477.546875 332.472656 470.566406 C 332.625 468.496094 333.011719 466.421875 333.855469 464.503906 C 333.625 462.816406 335.3125 461.285156 337.003906 461.511719 C 339.457031 461.898438 339.917969 464.734375 338.613281 466.421875 C 338.078125 469.492188 337.921875 471.871094 338.460938 474.785156 C 339 480.386719 346.90625 491.820312 339.226562 494.8125 C 336.925781 495.425781 334.238281 493.964844 333.703125 491.589844 Z M 333.703125 491.589844 " fill-opacity="1" fill-rule="nonzero"/><path fill="#000000" d="M 346.980469 515.449219 C 345.828125 513.148438 343.375 507.546875 347.210938 506.625 C 348.515625 506.472656 349.746094 507.46875 349.820312 508.773438 C 351.511719 510.921875 354.8125 513.992188 351.742188 516.445312 C 350.207031 517.519531 347.902344 517.136719 346.980469 515.449219 Z M 346.980469 515.449219 " fill-opacity="1" fill-rule="nonzero"/><path fill="#000000" d="M 438.023438 163.222656 C 435.566406 159.613281 436.71875 154.320312 434.566406 150.410156 C 430.269531 142.582031 423.746094 135.90625 423.207031 126.625 C 421.671875 117.109375 424.128906 107.289062 429.039062 99.160156 C 435.414062 83.96875 448.921875 63.023438 468.113281 71.078125 C 471.183594 72.382812 476.941406 74.453125 474.714844 78.75 C 472.566406 82.28125 468.804688 79.519531 466.195312 78.136719 C 444.546875 66.015625 425.816406 105.21875 427.351562 122.40625 C 426.660156 133.144531 434.644531 139.589844 439.171875 148.261719 C 440.9375 152.480469 441.09375 157.238281 440.785156 161.6875 C 441.167969 163.144531 439.171875 164.140625 438.023438 163.222656 Z M 438.023438 163.222656 " fill-opacity="1" fill-rule="nonzero"/><path fill="#000000" d="M 541.34375 114.65625 C 540.039062 109.976562 540.039062 104.683594 538.734375 100.078125 C 536.046875 91.101562 530.980469 82.355469 523.6875 76.527344 C 519.238281 74.148438 514.554688 72.152344 510.714844 68.777344 C 509.335938 67.855469 508.105469 67.242188 506.570312 66.859375 C 498.664062 65.863281 492.523438 69.621094 486.996094 74.761719 C 481.164062 78.902344 475.636719 83.660156 471.492188 89.492188 C 469.957031 92.558594 470.109375 96.242188 470.875 99.390625 C 471.644531 100.234375 471.644531 101.691406 470.492188 102.304688 C 466.578125 104.144531 465.503906 93.25 465.808594 90.796875 C 467.730469 81.207031 476.171875 73.6875 483.234375 67.78125 C 487.917969 62.945312 493.90625 59.722656 500.738281 59.800781 C 504.191406 59.417969 507.875 58.804688 511.101562 60.566406 C 514.402344 61.949219 517.316406 64.019531 519.621094 66.859375 C 527.679688 74.300781 535.894531 81.589844 541.191406 91.332031 C 543.648438 95.324219 551.324219 115.652344 544.570312 116.882812 C 543.1875 117.035156 541.730469 116.113281 541.34375 114.65625 Z M 541.34375 114.65625 " fill-opacity="1" fill-rule="nonzero"/><path fill="#000000" d="M 513.171875 185.46875 C 512.097656 181.480469 519.390625 181.941406 521.617188 180.175781 C 526.761719 177.644531 529.984375 173.042969 534.28125 169.511719 C 546.257812 158.15625 568.289062 152.863281 569.671875 133.835938 C 568.902344 128.003906 567.058594 122.480469 565.984375 116.652344 C 563.070312 103.300781 554.933594 91.792969 546.105469 81.742188 C 541.34375 74.835938 533.363281 72.535156 525.453125 71.539062 C 523.382812 70.925781 518.625 71.15625 519.621094 67.855469 C 522.382812 64.402344 528.601562 66.78125 532.132812 67.089844 C 543.496094 68.394531 551.402344 76.679688 557.464844 85.730469 C 568.824219 96.933594 570.820312 112.816406 572.433594 128.003906 C 576.886719 145.957031 561.535156 161.457031 545.488281 166.519531 C 539.65625 169.742188 533.898438 173.886719 529.832031 179.101562 C 526.300781 183.476562 520.695312 184.78125 515.707031 186.699219 C 514.632812 187.082031 513.558594 186.390625 513.171875 185.46875 Z M 513.171875 185.46875 " fill-opacity="1" fill-rule="nonzero"/><path fill="#000000" d="M 631.15625 311.445312 C 626.398438 311.214844 627.394531 305.921875 627.933594 302.699219 C 630.082031 291.730469 619.488281 283.136719 613.65625 275.003906 C 603.0625 260.734375 594.773438 249.457031 576.808594 262.191406 C 568.210938 268.023438 557.386719 270.171875 549.328125 276.84375 C 544.339844 281.066406 541.804688 287.28125 538.660156 292.648438 C 538.660156 293.261719 538.121094 293.953125 537.429688 293.953125 C 535.664062 293.878906 536.203125 291.804688 536.507812 290.65625 C 538.273438 283.441406 541.730469 276.078125 547.5625 271.320312 C 552.707031 266.027344 559.84375 263.035156 566.445312 260.351562 C 576.808594 254.210938 590.242188 248.304688 601.449219 255.363281 C 608.128906 259.277344 611.964844 266.792969 616.878906 272.394531 C 621.101562 277.460938 626.476562 281.449219 630.160156 286.894531 C 634.382812 292.417969 636.148438 299.632812 635.226562 306.535156 C 635.148438 308.914062 633.84375 311.523438 631.15625 311.445312 Z M 631.15625 311.445312 " fill-opacity="1" fill-rule="nonzero"/><g clip-path="url(#e00da78eb8)"><path fill="#000000" d="M 619.027344 376.890625 C 617.492188 368.527344 643.898438 373.4375 649.351562 368.066406 C 654.722656 364.460938 655.414062 357.019531 655.566406 351.1875 C 655.105469 346.96875 652.882812 343.4375 651.804688 339.449219 C 650.808594 336.226562 651.191406 332.621094 649.65625 329.554688 C 648.121094 326.023438 644.898438 322.878906 642.289062 320.5 C 633.152344 312.214844 619.105469 315.28125 608.511719 318.8125 C 603.140625 320.5 598.226562 323.339844 593.007812 325.488281 C 590.394531 326.714844 588.707031 324.71875 590.167969 322.1875 C 599.53125 307.535156 637.144531 301.242188 647.738281 317.277344 C 651.117188 321.878906 655.335938 326.40625 656.796875 332.007812 C 657.257812 334.769531 657.027344 337.53125 657.101562 340.292969 C 657.332031 344.128906 659.40625 347.582031 659.40625 351.417969 C 658.792969 360.394531 655.183594 371.058594 646.28125 374.894531 C 640.445312 377.582031 633.691406 376.046875 627.703125 377.121094 C 624.863281 377.195312 620.71875 380.113281 619.027344 376.890625 Z M 619.027344 376.890625 " fill-opacity="1" fill-rule="nonzero"/></g><path fill="#000000" d="M 604.136719 424.304688 C 587.019531 422.15625 572.125 411.261719 558.617188 401.210938 C 552.167969 395.839844 547.179688 387.859375 547.792969 379.191406 C 547.871094 378.195312 548.101562 376.890625 548.945312 376.277344 C 552.550781 374.050781 556.007812 386.480469 558.234375 388.550781 C 567.058594 400.136719 600.375 422.15625 614.808594 415.402344 C 622.097656 409.34375 629.238281 402.515625 634.996094 394.917969 C 638.21875 388.859375 637.835938 381.492188 637.527344 375.046875 C 636.53125 371.367188 641.828125 370.292969 642.132812 373.820312 C 643.4375 384.5625 642.980469 396.300781 634.535156 403.972656 C 626.398438 413.410156 618.566406 426.605469 604.136719 424.304688 Z M 604.136719 424.304688 " fill-opacity="1" fill-rule="nonzero"/><path fill="#000000" d="M 552.398438 305.691406 C 550.097656 298.710938 558.464844 291.804688 562.070312 286.589844 C 566.0625 280.605469 570.359375 274.007812 577.269531 271.015625 C 581.261719 269.171875 585.101562 274.851562 581.800781 277.84375 C 576.960938 281.679688 573.433594 286.742188 569.132812 291.191406 C 564.375 295.566406 559.152344 299.324219 555.621094 304.847656 C 554.855469 305.847656 553.398438 306.921875 552.398438 305.691406 Z M 552.398438 305.691406 " fill-opacity="1" fill-rule="nonzero"/><path fill="#000000" d="M 596.539062 276.308594 C 592.851562 275.082031 593.082031 271.476562 596.613281 270.171875 C 602.679688 268.328125 602.679688 278.226562 596.539062 276.308594 Z M 596.539062 276.308594 " fill-opacity="1" fill-rule="nonzero"/><path fill="#000000" d="M 612.273438 340.523438 C 611.890625 334.464844 629.929688 327.789062 631.003906 335.996094 C 631.464844 342.136719 623.789062 340.984375 619.796875 341.597656 C 617.492188 341.445312 613.503906 343.054688 612.273438 340.523438 Z M 612.273438 340.523438 " fill-opacity="1" fill-rule="nonzero"/></svg>